# Blender 5.2.1 LTS
# www.blender.org
o sofa_1
v -11.552258 2.773945 1.572731
v -11.601180 2.692194 1.481503
v -11.570980 2.767722 1.537818
v -11.586852 2.750001 1.508221
v -11.597457 2.723479 1.488445
v -11.420017 2.692194 1.073818
v -11.307016 2.692194 0.981337
v -11.328836 2.773945 1.069954
v -11.402981 2.692194 1.041744
v -11.375524 2.692194 1.012906
v -11.411331 2.723479 1.075657
v -11.392630 2.724263 1.042696
v -11.370456 2.722636 1.019099
v -11.364714 2.739393 1.026115
v -11.306931 2.723479 0.990215
v -11.311049 2.750001 1.010174
v -11.341825 2.692194 0.991694
v -11.342939 2.724263 1.002029
v -11.344571 2.745844 1.018002
v -11.361984 2.767722 1.073565
v -11.390953 2.750001 1.075568
v -11.318741 2.767722 1.038175
v -11.352534 2.760212 1.040997
v -11.376650 2.745844 1.044256
v -11.461492 2.692194 1.167118
v -11.386786 2.773945 1.200317
v -11.455805 2.723479 1.169645
v -11.439611 2.750001 1.176841
v -11.415375 2.767722 1.187612
v 0.000000 2.692194 2.202870
v -0.021999 2.773945 2.363155
v -0.001675 2.723479 2.215071
v -0.006443 2.750001 2.249816
v -0.013580 2.767722 2.301817
v 0.000000 2.692194 3.168883
v -0.019608 2.773945 3.078202
v -0.001493 2.723479 3.161980
v -0.005743 2.750001 3.142323
v -0.012105 2.767722 3.112904
v -0.513250 2.773945 1.179286
v -0.436184 2.692194 1.151709
v -0.483758 2.767722 1.168733
v -0.458756 2.750001 1.159786
v -0.442050 2.723479 1.153808
v -0.181901 2.692194 3.666886
v -0.288443 2.692194 3.766518
v -0.219458 2.773945 3.634727
v -0.198609 2.692194 3.698010
v -0.224724 2.692194 3.727875
v -0.183381 2.723479 3.660662
v -0.202472 2.722377 3.692666
v -0.222004 2.721606 3.720176
v -0.220932 2.739210 3.709465
v -0.272046 2.723479 3.753242
v -0.253177 2.750001 3.723535
v -0.256270 2.692194 3.751931
v -0.245382 2.722377 3.737146
v -0.234251 2.746543 3.718033
v -0.203706 2.767722 3.643258
v -0.191038 2.750001 3.652365
v -0.234711 2.767722 3.681918
v -0.219781 2.758677 3.684520
v -0.207250 2.746543 3.687341
v -1.972136 2.692194 4.256503
v -2.123606 2.692194 4.242497
v -2.074641 2.773945 4.175640
v -2.007730 2.692194 4.262439
v -2.049015 2.692194 4.261862
v -1.988236 2.723479 4.252761
v -2.021240 2.722377 4.255032
v -2.051990 2.721606 4.256013
v -2.055096 2.739210 4.247466
v -2.118021 2.723479 4.238345
v -2.106755 2.750001 4.224182
v -2.089705 2.692194 4.254859
v -2.083925 2.722377 4.248147
v -2.077116 2.746543 4.239470
v -2.043711 2.767722 4.208999
v -2.013370 2.750001 4.236080
v -2.091522 2.767722 4.202163
v -2.061842 2.758677 4.225625
v -2.036628 2.746543 4.244575
v -1.239762 2.773945 0.443992
v -1.221456 2.692194 0.357409
v -1.232756 2.767722 0.410858
v -1.226818 2.750001 0.382768
v -1.222849 2.723479 0.363999
v -2.528217 2.773945 0.086298
v -2.509827 2.692194 -0.000000
v -2.521179 2.767722 0.053273
v -2.515213 2.750001 0.025276
v -2.511227 2.723479 0.006569
v -3.302181 2.692194 3.647375
v -3.289833 2.773945 3.562028
v -3.301241 2.723479 3.640878
v -3.298564 2.750001 3.622377
v -3.294559 2.767722 3.594689
v -4.143978 2.773945 0.373344
v -4.163927 2.692194 0.293857
v -4.151612 2.767722 0.342926
v -4.158084 2.750001 0.317139
v -4.162408 2.723479 0.299908
v -3.960174 2.692194 3.647375
v -3.965368 2.773945 3.561884
v -3.960569 2.723479 3.640867
v -3.961695 2.750001 3.622335
v -3.963381 2.767722 3.594600
v -6.194023 2.692195 4.858387
v -6.212225 2.773946 4.779768
v -6.195409 2.723480 4.852403
v -6.199354 2.750001 4.835361
v -6.205260 2.767723 4.809854
v -5.661836 2.773945 1.248165
v -5.647200 2.692194 1.148877
v -5.656235 2.767722 1.210169
v -5.651487 2.750001 1.177958
v -5.648314 2.723479 1.156435
v -7.323531 2.773945 1.994201
v -7.340422 2.692194 1.909189
v -7.329995 2.767722 1.961668
v -7.335475 2.750001 1.934088
v -7.339137 2.723479 1.915660
v -7.240935 2.692195 5.146757
v -7.243482 2.773946 5.063872
v -7.241129 2.723480 5.140448
v -7.241681 2.750001 5.122481
v -7.242507 2.767723 5.095591
v -8.203938 2.692195 5.146757
v -8.196054 2.773946 5.063916
v -8.203338 2.723480 5.140451
v -8.201629 2.750001 5.122494
v -8.199071 2.767723 5.095618
v -7.889885 2.773945 1.994331
v -7.881403 2.692194 1.909189
v -7.886639 2.767722 1.961749
v -7.883887 2.750001 1.934126
v -7.882049 2.723479 1.915670
v -8.490700 2.773945 1.649308
v -8.459736 2.692194 1.576918
v -8.478850 2.767722 1.621606
v -8.468805 2.750001 1.598120
v -8.462093 2.723479 1.582428
v -9.522403 2.692195 4.763680
v -9.483258 2.773945 4.689922
v -9.519423 2.723480 4.758065
v -9.510938 2.750001 4.742077
v -9.498239 2.767722 4.718148
v -8.759461 2.773945 1.212434
v -8.740140 2.692194 1.122501
v -8.752068 2.767722 1.178018
v -8.745799 2.750001 1.148842
v -8.741611 2.723479 1.129347
v -9.175442 2.773945 0.897885
v -9.166764 2.692194 0.801204
v -9.172121 2.767722 0.860886
v -9.169306 2.750001 0.829521
v -9.167425 2.723479 0.808563
v -9.665964 2.773945 0.699454
v -9.640477 2.692194 0.610020
v -9.656211 2.767722 0.665229
v -9.647942 2.750001 0.636215
v -9.642417 2.723479 0.616828
v -10.567900 2.692194 3.895384
v -10.464123 2.773945 3.875304
v -10.560000 2.723479 3.893855
v -10.537504 2.750001 3.889503
v -10.503837 2.767722 3.882988
v -11.386630 2.692194 2.692515
v -11.386648 2.773945 2.518849
v -11.386631 2.723479 2.679291
v -11.386636 2.750001 2.641646
v -11.386642 2.767722 2.585305
v -11.601180 0.081751 1.481503
v -11.552258 0.000000 1.572731
v -11.597457 0.050466 1.488446
v -11.586852 0.023944 1.508221
v -11.570980 0.006223 1.537818
v -11.420017 0.081751 1.073819
v -11.328836 0.000000 1.069955
v -11.307016 0.081751 0.981337
v -11.411331 0.050466 1.075657
v -11.390953 0.023944 1.075569
v -11.402981 0.081751 1.041745
v -11.392630 0.049682 1.042697
v -11.376650 0.028102 1.044257
v -11.364714 0.034552 1.026115
v -11.318741 0.006223 1.038175
v -11.311049 0.023944 1.010174
v -11.361984 0.006223 1.073566
v -11.352534 0.013733 1.040998
v -11.344571 0.028102 1.018003
v -11.341825 0.081751 0.991695
v -11.375524 0.081751 1.012907
v -11.306931 0.050466 0.990216
v -11.342939 0.049682 1.002029
v -11.370456 0.051309 1.019100
v -11.386786 0.000000 1.200318
v -11.461492 0.081751 1.167118
v -11.415375 0.006223 1.187612
v -11.439611 0.023944 1.176842
v -11.455805 0.050466 1.169645
v -0.021999 0.000000 2.363156
v 0.000000 0.081751 2.202870
v -0.013580 0.006223 2.301817
v -0.006443 0.023944 2.249816
v -0.001675 0.050466 2.215071
v -0.019608 0.000000 3.078202
v 0.000000 0.081751 3.168883
v -0.012105 0.006223 3.112904
v -0.005743 0.023945 3.142323
v -0.001493 0.050466 3.161980
v -0.436184 0.081751 1.151709
v -0.513250 0.000000 1.179286
v -0.442050 0.050466 1.153808
v -0.458756 0.023944 1.159786
v -0.483758 0.006223 1.168733
v -0.181901 0.081751 3.666886
v -0.219458 0.000000 3.634728
v -0.288444 0.081751 3.766519
v -0.183381 0.050466 3.660662
v -0.191038 0.023945 3.652365
v -0.198610 0.081751 3.698011
v -0.202472 0.051569 3.692666
v -0.207250 0.027402 3.687341
v -0.220932 0.034736 3.709464
v -0.234711 0.006223 3.681918
v -0.253177 0.023945 3.723535
v -0.203707 0.006223 3.643258
v -0.219781 0.015268 3.684520
v -0.234251 0.027402 3.718033
v -0.256270 0.081751 3.751932
v -0.224724 0.081751 3.727875
v -0.272046 0.050466 3.753242
v -0.245382 0.051569 3.737146
v -0.222005 0.052340 3.720177
v -1.972136 0.081751 4.256503
v -2.074641 -0.000000 4.175640
v -2.123606 0.081751 4.242497
v -1.988236 0.050466 4.252761
v -2.013370 0.023944 4.236080
v -2.007730 0.081751 4.262439
v -2.021240 0.051568 4.255032
v -2.036628 0.027402 4.244575
v -2.055096 0.034736 4.247466
v -2.091522 0.006223 4.202163
v -2.106755 0.023944 4.224182
v -2.043711 0.006223 4.208999
v -2.061842 0.015268 4.225625
v -2.077116 0.027402 4.239470
v -2.089705 0.081751 4.254859
v -2.049015 0.081751 4.261862
v -2.118021 0.050466 4.238345
v -2.083925 0.051568 4.248147
v -2.051990 0.052339 4.256013
v -1.221456 0.081751 0.357409
v -1.239762 -0.000000 0.443993
v -1.222849 0.050466 0.364000
v -1.226818 0.023944 0.382769
v -1.232756 0.006223 0.410859
v -2.509827 0.081751 -0.000000
v -2.528217 -0.000000 0.086298
v -2.511227 0.050466 0.006569
v -2.515213 0.023944 0.025276
v -2.521179 0.006223 0.053273
v -3.289833 0.000000 3.562028
v -3.302181 0.081751 3.647375
v -3.294558 0.006223 3.594689
v -3.298564 0.023945 3.622377
v -3.301241 0.050466 3.640878
v -4.163927 0.081751 0.293857
v -4.143978 -0.000000 0.373344
v -4.162408 0.050466 0.299908
v -4.158084 0.023944 0.317138
v -4.151612 0.006223 0.342926
v -3.965368 0.000000 3.561884
v -3.960174 0.081751 3.647375
v -3.963381 0.006223 3.594600
v -3.961695 0.023945 3.622335
v -3.960569 0.050466 3.640867
v -6.212225 0.000000 4.779768
v -6.194023 0.081751 4.858387
v -6.205260 0.006223 4.809854
v -6.199354 0.023944 4.835361
v -6.195409 0.050466 4.852403
v -5.647200 0.081751 1.148877
v -5.661836 -0.000000 1.248165
v -5.648314 0.050466 1.156435
v -5.651487 0.023944 1.177958
v -5.656235 0.006223 1.210169
v -7.340422 0.081751 1.909189
v -7.323531 -0.000000 1.994201
v -7.339137 0.050466 1.915660
v -7.335475 0.023944 1.934088
v -7.329995 0.006223 1.961668
v -7.243482 0.000000 5.063872
v -7.240935 0.081751 5.146757
v -7.242507 0.006223 5.095591
v -7.241681 0.023945 5.122481
v -7.241129 0.050467 5.140448
v -8.196054 0.000000 5.063916
v -8.203938 0.081751 5.146757
v -8.199071 0.006223 5.095618
v -8.201629 0.023945 5.122494
v -8.203338 0.050467 5.140451
v -7.881403 0.081751 1.909189
v -7.889885 0.000000 1.994332
v -7.882049 0.050466 1.915670
v -7.883887 0.023944 1.934127
v -7.886639 0.006223 1.961749
v -8.459736 0.081751 1.576918
v -8.490700 -0.000000 1.649309
v -8.462093 0.050466 1.582428
v -8.468805 0.023944 1.598121
v -8.478850 0.006223 1.621606
v -9.483258 0.000000 4.689922
v -9.522403 0.081751 4.763680
v -9.498239 0.006223 4.718148
v -9.510938 0.023945 4.742077
v -9.519423 0.050467 4.758065
v -8.740140 0.081751 1.122501
v -8.759461 0.000000 1.212435
v -8.741611 0.050466 1.129347
v -8.745799 0.023944 1.148842
v -8.752068 0.006223 1.178018
v -9.166764 0.081751 0.801205
v -9.175442 0.000000 0.897885
v -9.167425 0.050466 0.808563
v -9.169306 0.023944 0.829521
v -9.172121 0.006223 0.860886
v -9.640477 0.081751 0.610020
v -9.665964 0.000000 0.699454
v -9.642417 0.050466 0.616828
v -9.647942 0.023944 0.636215
v -9.656211 0.006223 0.665229
v -10.464123 0.000000 3.875304
v -10.567900 0.081751 3.895384
v -10.503837 0.006223 3.882988
v -10.537504 0.023945 3.889503
v -10.560000 0.050466 3.893856
v -11.386648 0.000000 2.518849
v -11.386630 0.081751 2.692515
v -11.386642 0.006223 2.585306
v -11.386636 0.023944 2.641647
v -11.386631 0.050466 2.679291
vn -0.2350 0.9717 0.0246
vn -0.9876 0.0740 -0.1382
vn -0.5784 0.8158 0.0025
vn -0.8127 0.5781 -0.0732
vn -0.9437 0.3028 -0.1335
vn -0.8897 0.1266 -0.4387
vn -0.2513 0.1267 -0.9596
vn -0.1075 0.9855 -0.1317
vn -0.8058 0.1322 -0.5773
vn -0.6284 0.1252 -0.7678
vn -0.8135 0.4113 -0.4111
vn -0.7392 0.4023 -0.5401
vn -0.5890 0.3678 -0.7196
vn -0.5225 0.5652 -0.6384
vn -0.2336 0.4117 -0.8809
vn -0.1940 0.7026 -0.6846
vn -0.4065 0.1322 -0.9040
vn -0.3833 0.4023 -0.8314
vn -0.3466 0.6500 -0.6762
vn -0.3500 0.9095 -0.2242
vn -0.6291 0.7022 -0.3333
vn -0.1478 0.9095 -0.3886
vn -0.3576 0.8253 -0.4370
vn -0.5943 0.6500 -0.4735
vn -0.9074 0.1072 -0.4065
vn -0.0913 0.9950 -0.0411
vn -0.8369 0.3926 -0.3813
vn -0.6436 0.7058 -0.2960
vn -0.3530 0.9216 -0.1613
vn 0.9739 0.0706 -0.2156
vn 0.3233 0.9463 -0.0076
vn 0.9330 0.2957 -0.2053
vn 0.8267 0.5448 -0.1406
vn 0.6391 0.7668 -0.0602
vn 0.9818 0.0442 0.1849
vn 0.3268 0.9450 0.0100
vn 0.9629 0.1937 0.1881
vn 0.8916 0.4244 0.1582
vn 0.6894 0.7196 0.0833
vn 0.0928 0.9935 -0.0665
vn 0.8307 0.0943 -0.5487
vn 0.3402 0.9106 -0.2346
vn 0.6047 0.6857 -0.4052
vn 0.7766 0.3666 -0.5124
vn 0.9058 0.0720 0.4175
vn 0.3418 0.1171 0.9324
vn 0.1679 0.9791 0.1149
vn 0.8213 0.0789 0.5651
vn 0.6805 0.0790 0.7284
vn 0.8818 0.2423 0.4047
vn 0.8125 0.2322 0.5347
vn 0.6838 0.2405 0.6889
vn 0.6689 0.4365 0.6017
vn 0.3422 0.4221 0.8395
vn 0.2790 0.7363 0.6164
vn 0.5106 0.0917 0.8549
vn 0.5127 0.3155 0.7985
vn 0.4817 0.6040 0.6349
vn 0.5098 0.8200 0.2601
vn 0.7739 0.5219 0.3588
vn 0.2101 0.9267 0.3114
vn 0.4825 0.7712 0.4152
vn 0.7199 0.4987 0.4828
vn 0.2198 0.1224 0.9678
vn -0.3892 0.1037 0.9153
vn -0.0223 0.9913 0.1299
vn 0.0740 0.1127 0.9909
vn -0.0908 0.1080 0.9900
vn 0.1800 0.4370 0.8813
vn 0.0616 0.3635 0.9295
vn -0.0961 0.3082 0.9464
vn -0.1033 0.5339 0.8392
vn -0.3581 0.3685 0.8579
vn -0.2791 0.6930 0.6647
vn -0.2556 0.1079 0.9607
vn -0.2503 0.3283 0.9108
vn -0.1992 0.6333 0.7478
vn 0.0359 0.9442 0.3275
vn 0.1260 0.7588 0.6391
vn -0.1356 0.9184 0.3716
vn -0.0659 0.8576 0.5100
vn 0.0270 0.6687 0.7431
vn 0.0641 0.9935 -0.0941
vn 0.4994 0.0993 -0.8607
vn 0.2174 0.9144 -0.3416
vn 0.3681 0.6996 -0.6124
vn 0.4642 0.3809 -0.7997
vn 0.0020 0.9944 -0.1056
vn 0.0493 0.1029 -0.9935
vn 0.0126 0.9221 -0.3868
vn 0.0302 0.7140 -0.6994
vn 0.0456 0.3923 -0.9187
vn -0.2318 0.1044 0.9671
vn -0.0176 0.9968 0.0775
vn -0.2140 0.4090 0.8871
vn -0.1581 0.7377 0.6563
vn -0.0791 0.9393 0.3339
vn -0.0387 0.9940 -0.1021
vn -0.3397 0.0967 -0.9355
vn -0.1400 0.9157 -0.3768
vn -0.2469 0.6955 -0.6748
vn -0.3163 0.3744 -0.8716
vn 0.2476 0.1023 0.9635
vn 0.0178 0.9968 0.0780
vn 0.2308 0.4024 0.8859
vn 0.1714 0.7315 0.6599
vn 0.0846 0.9377 0.3370
vn 0.3709 0.0950 0.9238
vn 0.0415 0.9942 0.0996
vn 0.3457 0.3704 0.8621
vn 0.2703 0.6917 0.6697
vn 0.1525 0.9153 0.3728
vn -0.0411 0.9956 -0.0842
vn -0.4549 0.0980 -0.8851
vn -0.1691 0.9265 -0.3361
vn -0.3210 0.7095 -0.6274
vn -0.4231 0.3833 -0.8210
vn -0.0167 0.9968 -0.0784
vn -0.2085 0.1053 -0.9723
vn -0.0718 0.9394 -0.3353
vn -0.1413 0.7393 -0.6583
vn -0.1913 0.4110 -0.8913
vn 0.1325 0.0981 0.9863
vn 0.0152 0.9944 0.1044
vn 0.1230 0.3796 0.9169
vn 0.0961 0.7018 0.7059
vn 0.0546 0.9190 0.3904
vn -0.1398 0.0988 0.9852
vn -0.0153 0.9945 0.1039
vn -0.1298 0.3816 0.9152
vn -0.1004 0.7039 0.7031
vn -0.0561 0.9198 0.3883
vn 0.0187 0.9969 -0.0768
vn 0.2592 0.1028 -0.9604
vn 0.0884 0.9386 -0.3336
vn 0.1787 0.7336 -0.6557
vn 0.2410 0.4043 -0.8823
vn 0.0599 0.9959 -0.0676
vn 0.6971 0.0890 -0.7114
vn 0.2700 0.9214 -0.2794
vn 0.5147 0.6832 -0.5179
vn 0.6580 0.3575 -0.6628
vn -0.4665 0.0988 0.8790
vn -0.0508 0.9941 0.0958
vn -0.4336 0.3802 0.8170
vn -0.3341 0.7015 0.6295
vn -0.1863 0.9176 0.3511
vn 0.1008 0.9919 -0.0771
vn 0.7313 0.0898 -0.6761
vn 0.3367 0.8986 -0.2813
vn 0.5558 0.6664 -0.4969
vn 0.6860 0.3535 -0.6359
vn 0.0526 0.9950 -0.0849
vn 0.4861 0.1053 -0.8675
vn 0.1907 0.9272 -0.3223
vn 0.3420 0.7248 -0.5981
vn 0.4472 0.4025 -0.7988
vn 0.0028 0.9941 -0.1083
vn 0.0856 0.1164 -0.9895
vn 0.0194 0.9229 -0.3844
vn 0.0495 0.7253 -0.6867
vn 0.0779 0.4151 -0.9065
vn -0.7394 0.1078 0.6646
vn -0.0703 0.9950 0.0713
vn -0.6785 0.4099 0.6097
vn -0.5018 0.7305 0.4632
vn -0.2679 0.9283 0.2577
vn -0.9137 0.0871 0.3970
vn -0.2332 0.9713 0.0477
vn -0.8621 0.3484 0.3680
vn -0.7446 0.6114 0.2681
vn -0.5478 0.8228 0.1514
vn -0.9876 -0.0740 -0.1382
vn -0.2350 -0.9717 0.0246
vn -0.9437 -0.3028 -0.1335
vn -0.8127 -0.5781 -0.0732
vn -0.5784 -0.8158 0.0025
vn -0.8897 -0.1266 -0.4387
vn -0.1075 -0.9855 -0.1317
vn -0.2513 -0.1267 -0.9596
vn -0.8135 -0.4113 -0.4111
vn -0.6291 -0.7022 -0.3333
vn -0.8058 -0.1322 -0.5773
vn -0.7392 -0.4023 -0.5401
vn -0.5943 -0.6500 -0.4735
vn -0.5225 -0.5652 -0.6384
vn -0.1478 -0.9095 -0.3886
vn -0.1940 -0.7026 -0.6846
vn -0.3500 -0.9095 -0.2242
vn -0.3576 -0.8253 -0.4370
vn -0.3466 -0.6500 -0.6762
vn -0.4065 -0.1322 -0.9040
vn -0.6284 -0.1252 -0.7678
vn -0.2336 -0.4117 -0.8809
vn -0.3833 -0.4023 -0.8314
vn -0.5890 -0.3678 -0.7196
vn -0.0913 -0.9950 -0.0411
vn -0.9074 -0.1073 -0.4065
vn -0.3530 -0.9216 -0.1613
vn -0.6436 -0.7058 -0.2960
vn -0.8369 -0.3926 -0.3813
vn 0.3233 -0.9463 -0.0075
vn 0.9739 -0.0706 -0.2156
vn 0.6391 -0.7668 -0.0602
vn 0.8267 -0.5448 -0.1406
vn 0.9330 -0.2957 -0.2053
vn 0.3268 -0.9450 0.0100
vn 0.9818 -0.0442 0.1849
vn 0.6894 -0.7196 0.0833
vn 0.8916 -0.4244 0.1582
vn 0.9629 -0.1937 0.1881
vn 0.8307 -0.0943 -0.5487
vn 0.0928 -0.9935 -0.0665
vn 0.7766 -0.3666 -0.5124
vn 0.6047 -0.6857 -0.4052
vn 0.3402 -0.9106 -0.2346
vn 0.9058 -0.0721 0.4175
vn 0.1679 -0.9791 0.1149
vn 0.3418 -0.1171 0.9324
vn 0.8818 -0.2423 0.4047
vn 0.7739 -0.5219 0.3588
vn 0.8212 -0.0789 0.5651
vn 0.8125 -0.2322 0.5347
vn 0.7199 -0.4987 0.4828
vn 0.6689 -0.4365 0.6017
vn 0.2101 -0.9267 0.3115
vn 0.2790 -0.7363 0.6164
vn 0.5098 -0.8200 0.2601
vn 0.4826 -0.7712 0.4152
vn 0.4817 -0.6040 0.6349
vn 0.5106 -0.0917 0.8549
vn 0.6805 -0.0790 0.7284
vn 0.3422 -0.4221 0.8395
vn 0.5127 -0.3155 0.7985
vn 0.6838 -0.2405 0.6889
vn 0.2198 -0.1224 0.9678
vn -0.0223 -0.9913 0.1299
vn -0.3892 -0.1037 0.9153
vn 0.1800 -0.4370 0.8813
vn 0.1260 -0.7588 0.6391
vn 0.0740 -0.1127 0.9909
vn 0.0616 -0.3635 0.9295
vn 0.0270 -0.6687 0.7431
vn -0.1033 -0.5339 0.8392
vn -0.1356 -0.9184 0.3716
vn -0.2791 -0.6930 0.6647
vn 0.0359 -0.9442 0.3275
vn -0.0659 -0.8576 0.5100
vn -0.1992 -0.6333 0.7478
vn -0.2556 -0.1079 0.9607
vn -0.0908 -0.1080 0.9900
vn -0.3581 -0.3685 0.8579
vn -0.2502 -0.3283 0.9108
vn -0.0961 -0.3082 0.9464
vn 0.4994 -0.0993 -0.8607
vn 0.0641 -0.9935 -0.0941
vn 0.4642 -0.3809 -0.7997
vn 0.3681 -0.6996 -0.6124
vn 0.2174 -0.9144 -0.3416
vn 0.0493 -0.1029 -0.9935
vn 0.0020 -0.9944 -0.1056
vn 0.0456 -0.3923 -0.9187
vn 0.0302 -0.7140 -0.6994
vn 0.0126 -0.9221 -0.3868
vn -0.0176 -0.9968 0.0775
vn -0.2318 -0.1044 0.9671
vn -0.0791 -0.9393 0.3339
vn -0.1581 -0.7377 0.6563
vn -0.2140 -0.4090 0.8871
vn -0.3397 -0.0967 -0.9355
vn -0.0387 -0.9940 -0.1021
vn -0.3163 -0.3744 -0.8716
vn -0.2469 -0.6955 -0.6748
vn -0.1400 -0.9157 -0.3768
vn 0.0178 -0.9968 0.0780
vn 0.2476 -0.1023 0.9635
vn 0.0846 -0.9377 0.3370
vn 0.1714 -0.7315 0.6599
vn 0.2308 -0.4024 0.8859
vn 0.0415 -0.9942 0.0996
vn 0.3709 -0.0950 0.9238
vn 0.1525 -0.9153 0.3728
vn 0.2703 -0.6917 0.6697
vn 0.3457 -0.3704 0.8621
vn -0.4549 -0.0980 -0.8851
vn -0.0411 -0.9956 -0.0842
vn -0.4232 -0.3833 -0.8210
vn -0.3210 -0.7095 -0.6274
vn -0.1691 -0.9265 -0.3361
vn -0.2085 -0.1053 -0.9723
vn -0.0167 -0.9968 -0.0784
vn -0.1913 -0.4110 -0.8913
vn -0.1413 -0.7393 -0.6583
vn -0.0718 -0.9394 -0.3353
vn 0.0152 -0.9944 0.1044
vn 0.1325 -0.0981 0.9863
vn 0.0546 -0.9190 0.3903
vn 0.0961 -0.7018 0.7059
vn 0.1230 -0.3796 0.9169
vn -0.0153 -0.9945 0.1039
vn -0.1398 -0.0988 0.9852
vn -0.0561 -0.9198 0.3883
vn -0.1004 -0.7039 0.7032
vn -0.1298 -0.3816 0.9152
vn 0.2592 -0.1028 -0.9604
vn 0.0187 -0.9969 -0.0768
vn 0.2410 -0.4043 -0.8823
vn 0.1787 -0.7336 -0.6557
vn 0.0884 -0.9386 -0.3336
vn 0.6971 -0.0890 -0.7114
vn 0.0599 -0.9959 -0.0676
vn 0.6580 -0.3575 -0.6628
vn 0.5147 -0.6832 -0.5179
vn 0.2700 -0.9214 -0.2794
vn -0.0508 -0.9941 0.0958
vn -0.4665 -0.0988 0.8790
vn -0.1863 -0.9176 0.3511
vn -0.3341 -0.7015 0.6295
vn -0.4336 -0.3802 0.8170
vn 0.7313 -0.0898 -0.6761
vn 0.1008 -0.9919 -0.0771
vn 0.6860 -0.3535 -0.6359
vn 0.5558 -0.6664 -0.4969
vn 0.3367 -0.8986 -0.2813
vn 0.4861 -0.1053 -0.8675
vn 0.0526 -0.9950 -0.0849
vn 0.4472 -0.4025 -0.7988
vn 0.3420 -0.7248 -0.5981
vn 0.1907 -0.9272 -0.3223
vn 0.0856 -0.1164 -0.9895
vn 0.0028 -0.9941 -0.1083
vn 0.0779 -0.4151 -0.9065
vn 0.0495 -0.7253 -0.6867
vn 0.0194 -0.9229 -0.3844
vn -0.0703 -0.9950 0.0713
vn -0.7394 -0.1078 0.6646
vn -0.2679 -0.9283 0.2577
vn -0.5018 -0.7305 0.4632
vn -0.6785 -0.4099 0.6097
vn -0.2332 -0.9713 0.0477
vn -0.9137 -0.0871 0.3970
vn -0.5478 -0.8228 0.1514
vn -0.7446 -0.6114 0.2681
vn -0.8621 -0.3484 0.3680
vt 0.297198 0.727114
vt 0.296733 0.725185
vt 0.294893 0.725148
vt 0.295474 0.727124
vt 0.293074 0.725259
vt 0.293230 0.727138
vt 0.295558 0.723555
vt 0.294009 0.723820
vt 0.292904 0.724225
vt 0.288577 0.727165
vt 0.290808 0.727152
vt 0.291102 0.725170
vt 0.288769 0.725232
vt 0.291561 0.723835
vt 0.289461 0.723591
vt 0.573882 0.022840
vt 0.575788 0.023623
vt 0.575790 0.021528
vt 0.573831 0.020782
vt 0.575718 0.020026
vt 0.573863 0.018987
vt 0.577479 0.024237
vt 0.577170 0.022134
vt 0.292550 0.722942
vt 0.450950 0.727047
vt 0.451010 0.725115
vt 0.449176 0.725183
vt 0.449274 0.727047
vt 0.447422 0.725231
vt 0.447088 0.727047
vt 0.450763 0.723478
vt 0.449026 0.723691
vt 0.447731 0.724144
vt 0.442547 0.727047
vt 0.444726 0.727047
vt 0.445691 0.725183
vt 0.443793 0.725115
vt 0.446771 0.723691
vt 0.445560 0.723478
vt 0.359352 0.693319
vt 0.356529 0.692139
vt 0.356296 0.693043
vt 0.358749 0.694244
vt 0.356064 0.693798
vt 0.358132 0.694975
vt 0.354070 0.690788
vt 0.354313 0.691980
vt 0.448374 0.722942
vt 0.334826 0.727047
vt 0.333991 0.725115
vt 0.332049 0.725183
vt 0.332651 0.727047
vt 0.330266 0.725231
vt 0.330301 0.727047
vt 0.332938 0.723478
vt 0.331410 0.723691
vt 0.330286 0.724144
vt 0.326479 0.727047
vt 0.328134 0.727047
vt 0.328620 0.725183
vt 0.326894 0.725115
vt 0.329210 0.723691
vt 0.327867 0.723478
vt 0.335541 0.576405
vt 0.333998 0.575230
vt 0.332406 0.576936
vt 0.333333 0.578137
vt 0.331117 0.578389
vt 0.331519 0.579864
vt 0.332728 0.574178
vt 0.331638 0.575924
vt 0.331036 0.577237
vt 0.298149 0.888288
vt 0.296425 0.888298
vt 0.295867 0.890282
vt 0.297707 0.890222
vt 0.294999 0.891619
vt 0.296551 0.891867
vt 0.294181 0.888312
vt 0.294047 0.890192
vt 0.293890 0.891227
vt 0.024015 0.022840
vt 0.024065 0.020781
vt 0.022107 0.021528
vt 0.022109 0.023623
vt 0.020727 0.022134
vt 0.020418 0.024237
vt 0.024034 0.018986
vt 0.022178 0.020026
vt 0.293550 0.892515
vt 0.292551 0.891634
vt 0.289528 0.888339
vt 0.289742 0.890269
vt 0.292076 0.890304
vt 0.291759 0.888326
vt 0.290454 0.891903
vt 0.450950 0.888224
vt 0.449274 0.888224
vt 0.449176 0.890087
vt 0.451010 0.890155
vt 0.449026 0.891579
vt 0.450763 0.891793
vt 0.447088 0.888224
vt 0.447422 0.890040
vt 0.447731 0.891126
vt 0.238544 0.693319
vt 0.239147 0.694244
vt 0.241600 0.693043
vt 0.241368 0.692139
vt 0.243584 0.691980
vt 0.243827 0.690788
vt 0.239765 0.694975
vt 0.241833 0.693798
vt 0.448374 0.892328
vt 0.446771 0.891579
vt 0.442547 0.888224
vt 0.443793 0.890155
vt 0.445691 0.890087
vt 0.444726 0.888224
vt 0.445560 0.891793
vt 0.334826 0.888224
vt 0.332651 0.888224
vt 0.332049 0.890087
vt 0.333991 0.890155
vt 0.331410 0.891579
vt 0.332938 0.891793
vt 0.330301 0.888224
vt 0.330266 0.890040
vt 0.330286 0.891126
vt 0.262355 0.576405
vt 0.264563 0.578137
vt 0.265490 0.576936
vt 0.263899 0.575230
vt 0.266259 0.575923
vt 0.265168 0.574178
vt 0.266377 0.579864
vt 0.266780 0.578389
vt 0.266860 0.577237
vt 0.326479 0.888224
vt 0.326894 0.890155
vt 0.328620 0.890087
vt 0.328134 0.888224
vt 0.327867 0.891793
vt 0.329210 0.891579
vt 0.786167 0.238754
vt 0.784239 0.238292
vt 0.785220 0.254268
vt 0.787135 0.254508
vt 0.317032 0.725065
vt 0.316879 0.723429
vt 0.300709 0.723524
vt 0.301475 0.725157
vt 0.548242 0.004723
vt 0.546333 0.005551
vt 0.567086 0.016914
vt 0.567880 0.015475
vt 0.544086 0.006526
vt 0.566156 0.018609
vt 0.301752 0.727087
vt 0.436584 0.711962
vt 0.440318 0.712793
vt 0.512437 0.689648
vt 0.511936 0.687780
vt 0.443488 0.713495
vt 0.512867 0.691230
vt 0.174133 0.797836
vt 0.172495 0.799660
vt 0.172495 0.870548
vt 0.174133 0.870646
vt 0.170563 0.800301
vt 0.170563 0.870514
vt 0.172495 0.746575
vt 0.170563 0.746150
vt 0.174133 0.747787
vt 0.175227 0.795105
vt 0.175227 0.749601
vt 0.392575 0.708458
vt 0.390404 0.708742
vt 0.172495 0.723329
vt 0.170563 0.722942
vt 0.174133 0.723992
vt 0.388569 0.708981
vt 0.562894 0.647431
vt 0.560888 0.646832
vt 0.564599 0.647938
vt 0.172495 0.935031
vt 0.174133 0.934082
vt 0.170563 0.935365
vt 0.591474 0.569979
vt 0.589475 0.569378
vt 0.593173 0.570487
vt 0.602620 0.421374
vt 0.604257 0.422040
vt 0.604257 0.356802
vt 0.602620 0.356137
vt 0.606189 0.422274
vt 0.606189 0.357036
vt 0.661585 0.830729
vt 0.661449 0.828824
vt 0.603654 0.825474
vt 0.604017 0.827392
vt 0.660834 0.827243
vt 0.602620 0.823869
vt 0.377518 0.504308
vt 0.375842 0.503918
vt 0.379501 0.504766
vt 0.581975 0.468177
vt 0.580062 0.468492
vt 0.583602 0.467908
vt 0.604257 0.255600
vt 0.602620 0.255444
vt 0.606189 0.255655
vt 0.767366 0.813637
vt 0.769297 0.813841
vt 0.769297 0.776095
vt 0.767366 0.775967
vt 0.770935 0.814422
vt 0.770935 0.776459
vt 0.380938 0.463155
vt 0.379230 0.463114
vt 0.382959 0.463200
vt 0.769297 0.620137
vt 0.767366 0.620078
vt 0.770935 0.620305
vt 0.317609 0.319003
vt 0.316017 0.319234
vt 0.319493 0.318729
vt 0.536296 0.371167
vt 0.533984 0.370629
vt 0.538260 0.371621
vt 0.604257 0.150653
vt 0.602620 0.149968
vt 0.606189 0.150894
vt 0.498601 0.264340
vt 0.496564 0.264573
vt 0.500333 0.264142
vt 0.604257 0.036278
vt 0.602620 0.036056
vt 0.606189 0.036356
vt 0.769297 0.553609
vt 0.767366 0.553474
vt 0.770935 0.553993
vt 0.305323 0.253721
vt 0.303672 0.253632
vt 0.307277 0.253824
vt 0.769297 0.498523
vt 0.767366 0.498343
vt 0.770935 0.499036
vt 0.310205 0.194862
vt 0.308572 0.194565
vt 0.312138 0.195210
vt 0.501438 0.230089
vt 0.499447 0.229724
vt 0.503131 0.230397
vt 0.604257 0.005261
vt 0.602620 0.004723
vt 0.606189 0.005449
vt 0.525390 0.195386
vt 0.523744 0.194517
vt 0.526791 0.196122
vt 0.580146 0.891257
vt 0.579159 0.889619
vt 0.545466 0.889619
vt 0.546172 0.891257
vt 0.578813 0.887688
vt 0.545218 0.887688
vt 0.769297 0.432021
vt 0.767366 0.431720
vt 0.770935 0.432876
vt 0.340064 0.116850
vt 0.338664 0.115944
vt 0.341722 0.117917
vt 0.554079 0.180840
vt 0.551997 0.180210
vt 0.555850 0.181372
vt 0.512833 0.889619
vt 0.513817 0.891257
vt 0.512487 0.887688
vt 0.575737 0.156613
vt 0.573475 0.156220
vt 0.577660 0.156944
vt 0.483830 0.889619
vt 0.484956 0.891257
vt 0.483434 0.887688
vt 0.590248 0.127825
vt 0.588189 0.127051
vt 0.591998 0.128480
vt 0.578951 0.157163
vt 0.593173 0.128916
vt 0.460456 0.887688
vt 0.460788 0.889619
vt 0.787440 0.006199
vt 0.785530 0.006489
vt 0.783609 0.077214
vt 0.785509 0.077259
vt 0.783949 0.007278
vt 0.782054 0.077051
vt 0.396585 0.059239
vt 0.396364 0.057131
vt 0.396853 0.061722
vt 0.782954 0.164375
vt 0.784860 0.163582
vt 0.781381 0.166599
vt 0.480939 0.011545
vt 0.477480 0.011255
vt 0.485026 0.011885
vt 0.782606 0.236943
vt 0.780381 0.169914
vt 0.781516 0.234911
vt 0.185692 0.724203
vt 0.184932 0.725845
vt 0.184673 0.727778
vt 0.053810 0.006526
vt 0.051564 0.005551
vt 0.030810 0.016914
vt 0.031740 0.018609
vt 0.049655 0.004723
vt 0.030016 0.015475
vt 0.950632 0.235402
vt 0.948996 0.236781
vt 0.949977 0.252757
vt 0.951652 0.252008
vt 0.947067 0.237278
vt 0.948035 0.253033
vt 0.948322 0.257708
vt 0.950275 0.257415
vt 0.951976 0.257013
vt 0.009387 0.800301
vt 0.007455 0.799660
vt 0.007455 0.870548
vt 0.009387 0.870514
vt 0.005817 0.797836
vt 0.005817 0.870646
vt 0.154408 0.713495
vt 0.157579 0.712793
vt 0.085459 0.689648
vt 0.085029 0.691230
vt 0.161312 0.711962
vt 0.085961 0.687780
vt 0.207493 0.708742
vt 0.205322 0.708458
vt 0.004723 0.795105
vt 0.005817 0.747787
vt 0.004723 0.749601
vt 0.007455 0.746575
vt 0.009387 0.746150
vt 0.209328 0.708981
vt 0.007455 0.723329
vt 0.005817 0.723992
vt 0.009387 0.722942
vt 0.007455 0.935031
vt 0.009387 0.935365
vt 0.005817 0.934082
vt 0.035003 0.647431
vt 0.033298 0.647938
vt 0.037009 0.646832
vt 0.767366 0.422274
vt 0.769297 0.422040
vt 0.769297 0.356802
vt 0.767366 0.357036
vt 0.770935 0.421374
vt 0.770935 0.356137
vt 0.006423 0.569979
vt 0.004723 0.570486
vt 0.008421 0.569378
vt 0.220379 0.504308
vt 0.218396 0.504766
vt 0.222055 0.503918
vt 0.660834 0.995277
vt 0.661449 0.993588
vt 0.603654 0.990238
vt 0.602620 0.991902
vt 0.661585 0.991636
vt 0.604017 0.988299
vt 0.769297 0.255600
vt 0.767366 0.255655
vt 0.770935 0.255444
vt 0.015921 0.468177
vt 0.014294 0.467908
vt 0.017834 0.468492
vt 0.216958 0.463155
vt 0.214938 0.463200
vt 0.218666 0.463114
vt 0.602620 0.814422
vt 0.604257 0.813841
vt 0.604257 0.776095
vt 0.602620 0.776459
vt 0.606189 0.813637
vt 0.606189 0.775967
vt 0.280288 0.319003
vt 0.278403 0.318729
vt 0.281880 0.319234
vt 0.604257 0.620136
vt 0.602620 0.620305
vt 0.606189 0.620077
vt 0.769297 0.150653
vt 0.767366 0.150894
vt 0.770935 0.149968
vt 0.061601 0.371167
vt 0.059636 0.371621
vt 0.063913 0.370629
vt 0.769297 0.036278
vt 0.767366 0.036356
vt 0.770935 0.036056
vt 0.099296 0.264340
vt 0.097563 0.264142
vt 0.101333 0.264573
vt 0.292573 0.253721
vt 0.290619 0.253823
vt 0.294225 0.253632
vt 0.604257 0.553609
vt 0.602620 0.553993
vt 0.606189 0.553474
vt 0.287691 0.194862
vt 0.285759 0.195210
vt 0.289325 0.194565
vt 0.604257 0.498523
vt 0.602620 0.499036
vt 0.606189 0.498343
vt 0.769297 0.005261
vt 0.767366 0.005449
vt 0.770935 0.004723
vt 0.096459 0.230089
vt 0.094766 0.230397
vt 0.098450 0.229724
vt 0.578813 0.726511
vt 0.579159 0.724579
vt 0.545466 0.724579
vt 0.545218 0.726511
vt 0.580146 0.722942
vt 0.546172 0.722942
vt 0.072506 0.195386
vt 0.071105 0.196122
vt 0.074153 0.194516
vt 0.257833 0.116850
vt 0.256175 0.117916
vt 0.259233 0.115944
vt 0.604257 0.432021
vt 0.602620 0.432876
vt 0.606189 0.431720
vt 0.512833 0.724579
vt 0.512487 0.726511
vt 0.513817 0.722942
vt 0.043817 0.180840
vt 0.042047 0.181372
vt 0.045900 0.180210
vt 0.483830 0.724579
vt 0.483434 0.726511
vt 0.484956 0.722942
vt 0.022159 0.156613
vt 0.020237 0.156944
vt 0.024422 0.156220
vt 0.460788 0.724579
vt 0.460456 0.726511
vt 0.018946 0.157163
vt 0.005899 0.128480
vt 0.004723 0.128916
vt 0.007649 0.127825
vt 0.009708 0.127051
vt 0.201311 0.059239
vt 0.201044 0.061722
vt 0.201533 0.057131
vt 0.951976 0.005737
vt 0.950287 0.004978
vt 0.948366 0.075703
vt 0.950080 0.075511
vt 0.948340 0.004723
vt 0.946410 0.075783
vt 0.116957 0.011545
vt 0.112871 0.011884
vt 0.120417 0.011255
vt 0.947711 0.162864
vt 0.949407 0.165058
vt 0.945760 0.162106
vt 0.950592 0.168353
vt 0.951727 0.233351
vt 0.185624 0.888952
vt 0.185906 0.890882
vt 0.186685 0.892515
vt 0.787422 0.259183
s 1
f 6/1/6 11/2/11 12/3/12 9/4/9
f 9/4/9 12/3/12 13/5/13 10/6/10
f 11/2/11 21/7/21 24/8/24 12/3/12
f 12/3/12 24/8/24 14/9/14 13/5/13
f 7/10/7 17/11/17 18/12/18 15/13/15
f 15/13/15 18/12/18 19/14/19 16/15/16
f 17/11/17 10/6/10 13/5/13 18/12/18
f 18/12/18 13/5/13 14/9/14 19/14/19
f 8/16/8 22/17/22 23/18/23 20/19/20
f 20/19/20 23/18/23 24/20/24 21/21/21
f 22/17/22 16/22/16 19/23/19 23/18/23
f 23/24/23 19/14/19 14/9/14 24/8/24
f 45/25/45 50/26/50 51/27/51 48/28/48
f 48/28/48 51/27/51 52/29/52 49/30/49
f 50/26/50 60/31/60 63/32/63 51/27/51
f 51/27/51 63/32/63 53/33/53 52/29/52
f 46/34/46 56/35/56 57/36/57 54/37/54
f 54/37/54 57/36/57 58/38/58 55/39/55
f 56/35/56 49/30/49 52/29/52 57/36/57
f 57/36/57 52/29/52 53/33/53 58/38/58
f 47/40/47 61/41/61 62/42/62 59/43/59
f 59/43/59 62/42/62 63/44/63 60/45/60
f 61/41/61 55/46/55 58/47/58 62/42/62
f 62/48/62 58/38/58 53/33/53 63/32/63
f 64/49/64 69/50/69 70/51/70 67/52/67
f 67/52/67 70/51/70 71/53/71 68/54/68
f 69/50/69 79/55/79 82/56/82 70/51/70
f 70/51/70 82/56/82 72/57/72 71/53/71
f 65/58/65 75/59/75 76/60/76 73/61/73
f 73/61/73 76/60/76 77/62/77 74/63/74
f 75/59/75 68/54/68 71/53/71 76/60/76
f 76/60/76 71/53/71 72/57/72 77/62/77
f 66/64/66 80/65/80 81/66/81 78/67/78
f 78/67/78 81/66/81 82/68/82 79/69/79
f 80/65/80 74/70/74 77/71/77 81/66/81
f 81/66/81 77/71/77 72/72/72 82/68/82
f 178/73/178 183/74/183 184/75/184 181/76/181
f 181/76/181 184/75/184 185/77/185 182/78/182
f 183/74/183 193/79/193 196/80/196 184/75/184
f 184/75/184 196/80/196 186/81/186 185/77/185
f 179/82/179 189/83/189 190/84/190 187/85/187
f 187/85/187 190/84/190 191/86/191 188/87/188
f 189/83/189 182/88/182 185/89/185 190/84/190
f 190/90/190 185/77/185 186/81/186 191/91/191
f 180/92/180 194/93/194 195/94/195 192/95/192
f 192/95/192 195/94/195 196/80/196 193/79/193
f 194/93/194 188/96/188 191/91/191 195/94/195
f 195/94/195 191/91/191 186/81/186 196/80/196
f 217/97/217 222/98/222 223/99/223 220/100/220
f 220/100/220 223/99/223 224/101/224 221/102/221
f 222/98/222 232/103/232 235/104/235 223/99/223
f 223/99/223 235/104/235 225/105/225 224/101/224
f 218/106/218 228/107/228 229/108/229 226/109/226
f 226/109/226 229/108/229 230/110/230 227/111/227
f 228/107/228 221/112/221 224/113/224 229/108/229
f 229/114/229 224/101/224 225/105/225 230/115/230
f 219/116/219 233/117/233 234/118/234 231/119/231
f 231/119/231 234/118/234 235/104/235 232/103/232
f 233/117/233 227/120/227 230/115/230 234/118/234
f 234/118/234 230/115/230 225/105/225 235/104/235
f 236/121/236 241/122/241 242/123/242 239/124/239
f 239/124/239 242/123/242 243/125/243 240/126/240
f 241/122/241 251/127/251 254/128/254 242/123/242
f 242/123/242 254/128/254 244/129/244 243/125/243
f 237/130/237 247/131/247 248/132/248 245/133/245
f 245/133/245 248/132/248 249/134/249 246/135/246
f 247/131/247 240/136/240 243/137/243 248/132/248
f 248/132/248 243/137/243 244/138/244 249/134/249
f 238/139/238 252/140/252 253/141/253 250/142/250
f 250/142/250 253/141/253 254/128/254 251/127/251
f 252/140/252 246/143/246 249/144/249 253/141/253
f 253/141/253 249/144/249 244/129/244 254/128/254
f 2/145/2 5/146/5 27/147/27 25/148/25
f 5/149/5 4/150/4 28/151/28 27/152/27
f 4/153/4 3/154/3 29/155/29 28/156/28
f 3/154/3 1/157/1 26/158/26 29/155/29
f 8/16/8 20/19/20 29/155/29 26/158/26
f 20/19/20 21/21/21 28/156/28 29/155/29
f 21/7/21 11/2/11 27/152/27 28/151/28
f 11/2/11 6/1/6 25/159/25 27/152/27
f 31/160/31 34/161/34 42/162/42 40/163/40
f 34/161/34 33/164/33 43/165/43 42/162/42
f 33/166/33 32/167/32 44/168/44 43/169/43
f 32/167/32 30/170/30 41/171/41 44/168/44
f 30/170/30 32/167/32 37/172/37 35/173/35
f 32/167/32 33/166/33 38/174/38 37/172/37
f 33/166/33 34/175/34 39/176/39 38/174/38
f 34/161/34 31/160/31 36/177/36 39/178/39
f 35/173/35 37/172/37 50/179/50 45/180/45
f 37/172/37 38/174/38 60/181/60 50/179/50
f 38/182/38 39/178/39 59/43/59 60/45/60
f 39/178/39 36/177/36 47/40/47 59/43/59
f 46/34/46 54/37/54 69/50/69 64/49/64
f 54/37/54 55/39/55 79/55/79 69/50/69
f 55/46/55 61/41/61 78/67/78 79/69/79
f 61/41/61 47/40/47 66/64/66 78/67/78
f 40/163/40 42/162/42 85/183/85 83/184/83
f 42/162/42 43/165/43 86/185/86 85/183/85
f 43/169/43 44/168/44 87/186/87 86/187/86
f 44/168/44 41/171/41 84/188/84 87/186/87
f 83/184/83 85/183/85 90/189/90 88/190/88
f 85/183/85 86/185/86 91/191/91 90/189/90
f 86/192/86 87/193/87 92/194/92 91/195/91
f 87/193/87 84/196/84 89/197/89 92/194/92
f 65/198/65 73/199/73 95/200/95 93/201/93
f 73/199/73 74/202/74 96/203/96 95/200/95
f 74/70/74 80/65/80 97/204/97 96/205/96
f 80/65/80 66/64/66 94/206/94 97/204/97
f 88/190/88 90/189/90 100/207/100 98/208/98
f 90/189/90 91/191/91 101/209/101 100/207/100
f 91/195/91 92/194/92 102/210/102 101/211/101
f 92/194/92 89/197/89 99/212/99 102/210/102
f 93/213/93 95/214/95 105/215/105 103/216/103
f 95/214/95 96/217/96 106/218/106 105/215/105
f 96/205/96 97/204/97 107/219/107 106/220/106
f 97/204/97 94/206/94 104/221/104 107/219/107
f 103/216/103 105/215/105 110/222/110 108/223/108
f 105/215/105 106/218/106 111/224/111 110/222/110
f 106/220/106 107/219/107 112/225/112 111/226/111
f 107/219/107 104/221/104 109/227/109 112/225/112
f 98/208/98 100/207/100 115/228/115 113/229/113
f 100/207/100 101/209/101 116/230/116 115/228/115
f 101/211/101 102/210/102 117/231/117 116/232/116
f 102/210/102 99/212/99 114/233/114 117/231/117
f 113/229/113 115/228/115 120/234/120 118/235/118
f 115/228/115 116/230/116 121/236/121 120/234/120
f 116/232/116 117/231/117 122/237/122 121/238/121
f 117/231/117 114/233/114 119/239/119 122/237/122
f 108/223/108 110/222/110 125/240/125 123/241/123
f 110/222/110 111/224/111 126/242/126 125/240/125
f 111/226/111 112/225/112 127/243/127 126/244/126
f 112/225/112 109/227/109 124/245/124 127/243/127
f 123/241/123 125/240/125 130/246/130 128/247/128
f 125/240/125 126/242/126 131/248/131 130/246/130
f 126/244/126 127/243/127 132/249/132 131/250/131
f 127/243/127 124/245/124 129/251/129 132/249/132
f 118/235/118 120/234/120 135/252/135 133/253/133
f 120/234/120 121/236/121 136/254/136 135/252/135
f 121/238/121 122/237/122 137/255/137 136/256/136
f 122/237/122 119/239/119 134/257/134 137/255/137
f 133/253/133 135/252/135 140/258/140 138/259/138
f 135/252/135 136/254/136 141/260/141 140/258/140
f 136/261/136 137/262/137 142/263/142 141/264/141
f 137/262/137 134/265/134 139/266/139 142/263/142
f 128/247/128 130/246/130 145/267/145 143/268/143
f 130/246/130 131/248/131 146/269/146 145/267/145
f 131/250/131 132/249/132 147/270/147 146/271/146
f 132/249/132 129/251/129 144/272/144 147/270/147
f 138/259/138 140/258/140 150/273/150 148/274/148
f 140/258/140 141/260/141 151/275/151 150/273/150
f 141/264/141 142/263/142 152/276/152 151/277/151
f 142/263/142 139/266/139 149/278/149 152/276/152
f 148/274/148 150/273/150 155/279/155 153/280/153
f 150/273/150 151/275/151 156/281/156 155/279/155
f 151/277/151 152/276/152 157/282/157 156/283/156
f 152/276/152 149/278/149 154/284/154 157/282/157
f 153/280/153 155/279/155 160/285/160 158/286/158
f 155/279/155 156/281/156 161/287/161 160/285/160
f 156/281/156 157/288/157 162/289/162 161/287/161
f 157/282/157 154/284/154 159/290/159 162/291/162
f 143/292/143 145/293/145 165/294/165 163/295/163
f 145/293/145 146/296/146 166/297/166 165/294/165
f 146/271/146 147/270/147 167/298/167 166/299/166
f 147/270/147 144/272/144 164/300/164 167/298/167
f 163/295/163 165/294/165 170/301/170 168/302/168
f 165/294/165 166/297/166 171/303/171 170/301/170
f 166/299/166 167/298/167 172/304/172 171/305/171
f 167/298/167 164/300/164 169/306/169 172/304/172
f 168/302/168 170/301/170 5/146/5 2/145/2
f 170/301/170 171/303/171 4/307/4 5/146/5
f 171/303/171 172/308/172 3/309/3 4/307/4
f 172/304/172 169/306/169 1/157/1 3/154/3
f 158/286/158 160/285/160 22/17/22 8/16/8
f 160/285/160 161/287/161 16/22/16 22/17/22
f 161/310/161 162/311/162 15/13/15 16/15/16
f 162/311/162 159/312/159 7/10/7 15/13/15
f 174/313/174 177/314/177 199/315/199 197/316/197
f 177/314/177 176/317/176 200/318/200 199/315/199
f 176/319/176 175/320/175 201/321/201 200/322/200
f 175/320/175 173/323/173 198/324/198 201/321/201
f 178/325/178 181/326/181 201/321/201 198/324/198
f 181/326/181 182/327/182 200/322/200 201/321/201
f 182/88/182 189/83/189 199/315/199 200/318/200
f 189/83/189 179/82/179 197/316/197 199/315/199
f 203/328/203 206/329/206 214/330/214 212/331/212
f 206/329/206 205/332/205 215/333/215 214/330/214
f 205/334/205 204/335/204 216/336/216 215/337/215
f 204/335/204 202/338/202 213/339/213 216/336/216
f 202/338/202 204/335/204 209/340/209 207/341/207
f 204/342/204 205/332/205 210/343/210 209/344/209
f 205/332/205 206/329/206 211/345/211 210/343/210
f 206/329/206 203/328/203 208/346/208 211/345/211
f 207/341/207 209/340/209 228/107/228 218/106/218
f 209/340/209 210/347/210 221/112/221 228/107/228
f 210/343/210 211/345/211 220/348/220 221/349/221
f 211/345/211 208/346/208 217/350/217 220/348/220
f 218/106/218 226/109/226 247/131/247 237/130/237
f 226/109/226 227/111/227 240/136/240 247/131/247
f 227/120/227 233/117/233 239/124/239 240/126/240
f 233/117/233 219/116/219 236/121/236 239/124/239
f 212/331/212 214/330/214 257/351/257 255/352/255
f 214/330/214 215/333/215 258/353/258 257/351/257
f 215/337/215 216/336/216 259/354/259 258/355/258
f 216/336/216 213/339/213 256/356/256 259/354/259
f 255/357/255 257/358/257 262/359/262 260/360/260
f 257/358/257 258/361/258 263/362/263 262/359/262
f 258/355/258 259/354/259 264/363/264 263/364/263
f 259/354/259 256/356/256 261/365/261 264/363/264
f 237/130/237 245/133/245 267/366/267 265/367/265
f 245/133/245 246/135/246 268/368/268 267/366/267
f 246/369/246 252/370/252 269/371/269 268/372/268
f 252/370/252 238/373/238 266/374/266 269/371/269
f 260/360/260 262/359/262 272/375/272 270/376/270
f 262/359/262 263/362/263 273/377/273 272/375/272
f 263/364/263 264/363/264 274/378/274 273/379/273
f 264/363/264 261/365/261 271/380/271 274/378/274
f 265/367/265 267/366/267 277/381/277 275/382/275
f 267/366/267 268/368/268 278/383/278 277/381/277
f 268/384/268 269/385/269 279/386/279 278/387/278
f 269/385/269 266/388/266 276/389/276 279/386/279
f 275/382/275 277/381/277 282/390/282 280/391/280
f 277/381/277 278/383/278 283/392/283 282/390/282
f 278/387/278 279/386/279 284/393/284 283/394/283
f 279/386/279 276/389/276 281/395/281 284/393/284
f 270/376/270 272/375/272 287/396/287 285/397/285
f 272/375/272 273/377/273 288/398/288 287/396/287
f 273/379/273 274/378/274 289/399/289 288/400/288
f 274/378/274 271/380/271 286/401/286 289/399/289
f 285/397/285 287/396/287 292/402/292 290/403/290
f 287/396/287 288/398/288 293/404/293 292/402/292
f 288/400/288 289/399/289 294/405/294 293/406/293
f 289/399/289 286/401/286 291/407/291 294/405/294
f 280/391/280 282/390/282 297/408/297 295/409/295
f 282/390/282 283/392/283 298/410/298 297/408/297
f 283/394/283 284/393/284 299/411/299 298/412/298
f 284/393/284 281/395/281 296/413/296 299/411/299
f 295/409/295 297/408/297 302/414/302 300/415/300
f 297/408/297 298/410/298 303/416/303 302/414/302
f 298/412/298 299/411/299 304/417/304 303/418/303
f 299/411/299 296/413/296 301/419/301 304/417/304
f 290/403/290 292/402/292 307/420/307 305/421/305
f 292/402/292 293/404/293 308/422/308 307/420/307
f 293/406/293 294/405/294 309/423/309 308/424/308
f 294/405/294 291/407/291 306/425/306 309/423/309
f 305/426/305 307/427/307 312/428/312 310/429/310
f 307/427/307 308/430/308 313/431/313 312/428/312
f 308/424/308 309/423/309 314/432/314 313/433/313
f 309/423/309 306/425/306 311/434/311 314/432/314
f 300/415/300 302/414/302 317/435/317 315/436/315
f 302/414/302 303/416/303 318/437/318 317/435/317
f 303/418/303 304/417/304 319/438/319 318/439/318
f 304/417/304 301/419/301 316/440/316 319/438/319
f 310/429/310 312/428/312 322/441/322 320/442/320
f 312/428/312 313/431/313 323/443/323 322/441/322
f 313/433/313 314/432/314 324/444/324 323/445/323
f 314/432/314 311/434/311 321/446/321 324/444/324
f 320/442/320 322/441/322 327/447/327 325/448/325
f 322/441/322 323/443/323 328/449/328 327/447/327
f 323/445/323 324/444/324 329/450/329 328/451/328
f 324/444/324 321/446/321 326/452/326 329/450/329
f 325/448/325 327/447/327 332/453/332 330/454/330
f 327/455/327 328/451/328 333/456/333 332/457/332
f 328/451/328 329/450/329 334/458/334 333/456/333
f 329/450/329 326/452/326 331/459/331 334/458/334
f 315/436/315 317/435/317 337/460/337 335/461/335
f 317/435/317 318/437/318 338/462/338 337/460/337
f 318/463/318 319/464/319 339/465/339 338/466/338
f 319/464/319 316/467/316 336/468/336 339/465/339
f 335/461/335 337/460/337 342/469/342 340/470/340
f 337/460/337 338/462/338 343/471/343 342/469/342
f 338/466/338 339/465/339 344/472/344 343/473/343
f 339/465/339 336/468/336 341/474/341 344/472/344
f 340/470/340 342/469/342 177/314/177 174/313/174
f 342/475/342 343/473/343 176/319/176 177/476/177
f 343/473/343 344/472/344 175/320/175 176/319/176
f 344/472/344 341/474/341 173/323/173 175/320/175
f 330/477/330 332/478/332 194/93/194 180/92/180
f 332/478/332 333/479/333 188/96/188 194/93/194
f 333/456/333 334/458/334 187/85/187 188/87/188
f 334/458/334 331/459/331 179/82/179 187/85/187
f 6/1/6 9/4/9 183/74/183 178/73/178
f 9/4/9 10/6/10 193/79/193 183/74/183
f 10/6/10 17/11/17 192/95/192 193/79/193
f 17/11/17 7/10/7 180/92/180 192/95/192
f 45/25/45 48/28/48 222/98/222 217/97/217
f 48/28/48 49/30/49 232/103/232 222/98/222
f 49/30/49 56/35/56 231/119/231 232/103/232
f 56/35/56 46/34/46 219/116/219 231/119/231
f 64/49/64 67/52/67 241/122/241 236/121/236
f 67/52/67 68/54/68 251/127/251 241/122/241
f 68/54/68 75/59/75 250/142/250 251/127/251
f 75/59/75 65/58/65 238/139/238 250/142/250
f 25/148/25 198/324/198 173/323/173 2/145/2
f 1/157/1 169/306/169 8/16/8 26/158/26
f 2/145/2 173/323/173 341/474/341 168/302/168
f 6/480/6 178/325/178 198/324/198 25/148/25
f 8/16/8 164/300/164 158/286/158
f 169/306/169 164/300/164 8/16/8
f 159/312/159 330/477/330 180/92/180 7/10/7
f 30/170/30 203/328/203 212/331/212 41/171/41
f 31/160/31 40/163/40 36/177/36
f 35/173/35 208/346/208 203/328/203 30/170/30
f 47/40/47 36/177/36 40/163/40
f 45/180/45 217/350/217 208/346/208 35/173/35
f 66/64/66 47/40/47 40/163/40
f 83/184/83 66/64/66 40/163/40
f 41/171/41 212/331/212 255/352/255 84/188/84
f 64/49/64 236/121/236 219/116/219 46/34/46
f 88/190/88 66/64/66 83/184/83
f 94/206/94 66/64/66 88/190/88
f 93/201/93 266/374/266 238/373/238 65/198/65
f 84/196/84 255/357/255 260/360/260 89/197/89
f 98/208/98 94/206/94 88/190/88
f 89/197/89 260/360/260 270/376/270 99/212/99
f 104/221/104 94/206/94 98/208/98
f 103/216/103 276/389/276 266/388/266 93/213/93
f 109/227/109 104/221/104 98/208/98
f 113/229/113 109/227/109 98/208/98
f 99/212/99 270/376/270 285/397/285 114/233/114
f 108/223/108 281/395/281 276/389/276 103/216/103
f 118/235/118 109/227/109 113/229/113
f 124/245/124 109/227/109 118/235/118
f 123/241/123 296/413/296 281/395/281 108/223/108
f 114/233/114 285/397/285 290/403/290 119/239/119
f 129/251/129 124/245/124 118/235/118
f 133/253/133 129/251/129 118/235/118
f 119/239/119 290/403/290 305/421/305 134/257/134
f 128/247/128 301/419/301 296/413/296 123/241/123
f 138/259/138 129/251/129 133/253/133
f 144/272/144 129/251/129 138/259/138
f 143/268/143 316/440/316 301/419/301 128/247/128
f 134/265/134 305/426/305 310/429/310 139/266/139
f 148/274/148 144/272/144 138/259/138
f 139/266/139 310/429/310 320/442/320 149/278/149
f 153/280/153 144/272/144 148/274/148
f 158/286/158 144/272/144 153/280/153
f 164/300/164 144/272/144 158/286/158
f 163/295/163 336/468/336 316/467/316 143/292/143
f 149/278/149 320/442/320 325/448/325 154/284/154
f 154/284/154 325/448/325 330/454/330 159/290/159
f 168/302/168 341/474/341 336/468/336 163/295/163
f 174/313/174 197/316/197 179/82/179 340/470/340
f 340/470/340 179/82/179 335/461/335
f 179/82/179 331/459/331 335/461/335
f 202/338/202 207/341/207 213/339/213
f 218/106/218 213/339/213 207/341/207
f 237/130/237 213/339/213 218/106/218
f 256/356/256 213/339/213 237/130/237
f 261/365/261 256/356/256 237/130/237
f 265/367/265 261/365/261 237/130/237
f 271/380/271 261/365/261 265/367/265
f 275/382/275 271/380/271 265/367/265
f 280/391/280 271/380/271 275/382/275
f 286/401/286 271/380/271 280/391/280
f 291/407/291 286/401/286 280/391/280
f 295/409/295 291/407/291 280/391/280
f 300/415/300 291/407/291 295/409/295
f 306/425/306 291/407/291 300/415/300
f 311/434/311 306/425/306 300/415/300
f 315/436/315 311/434/311 300/415/300
f 321/446/321 311/434/311 315/436/315
f 326/452/326 321/446/321 315/436/315
f 331/459/331 326/452/326 315/436/315
f 335/461/335 331/459/331 315/436/315
