# Blender 5.2.1 LTS
# www.blender.org
o sofa_3
v 0.000000 2.623620 2.202870
v -0.040451 2.773945 2.497606
v -0.003079 2.681147 2.225305
v -0.011848 2.729916 2.289196
v -0.024971 2.762502 2.384815
v 0.000000 2.623620 3.168883
v -0.036056 2.773945 3.002137
v -0.002745 2.681147 3.156190
v -0.010561 2.729916 3.120044
v -0.022258 2.762502 3.065948
v -0.577895 2.773945 1.202419
v -0.436184 2.623620 1.151709
v -0.523664 2.762502 1.183013
v -0.477690 2.729916 1.166561
v -0.446971 2.681147 1.155569
v -0.354286 2.623620 3.785679
v -0.227435 2.773945 3.543340
v -0.158374 2.623620 3.602474
v -0.324133 2.681147 3.761267
v -0.289438 2.729916 3.706640
v -0.295125 2.623620 3.758857
v -0.275103 2.679121 3.731669
v -0.254636 2.723558 3.696524
v -0.230145 2.710072 3.680768
v -0.198470 2.762502 3.559026
v -0.175175 2.729916 3.575773
v -0.255482 2.762502 3.630114
v -0.228028 2.745870 3.634899
v -0.204986 2.723558 3.640087
v -0.189098 2.623620 3.659707
v -0.237118 2.623620 3.714621
v -0.161095 2.681147 3.591029
v -0.196201 2.679121 3.649879
v -0.232117 2.677702 3.700466
v -2.184819 2.623620 4.211587
v -2.094780 2.773945 4.088650
v -1.906294 2.623620 4.237341
v -2.174550 2.681147 4.203954
v -2.153833 2.729916 4.177910
v -2.122481 2.623620 4.234320
v -2.111852 2.679121 4.221978
v -2.099332 2.723558 4.206023
v -2.058842 2.710072 4.220726
v -2.037905 2.762502 4.149992
v -1.982113 2.729916 4.199790
v -2.125821 2.762502 4.137421
v -2.071246 2.745870 4.180564
v -2.024881 2.723558 4.215408
v -1.971744 2.623620 4.248258
v -2.047658 2.623620 4.247197
v -1.935897 2.681147 4.230463
v -1.996586 2.679121 4.234637
v -2.053129 2.677702 4.236442
v -1.221456 2.623620 0.357409
v -1.255117 2.773945 0.516621
v -1.224018 2.681147 0.369528
v -1.231315 2.729916 0.404041
v -1.242235 2.762502 0.455693
v -2.509827 2.623620 -0.000000
v -2.543643 2.773945 0.158686
v -2.512401 2.681147 0.012079
v -2.519731 2.729916 0.046478
v -2.530702 2.762502 0.097960
v -3.279475 2.773945 3.490438
v -3.302181 2.623620 3.647375
v -3.288164 2.762502 3.550495
v -3.295531 2.729916 3.601409
v -3.300452 2.681147 3.635428
v -4.163927 2.623620 0.293857
v -4.127245 2.773945 0.440020
v -4.161135 2.681147 0.304983
v -4.153183 2.729916 0.336667
v -4.141283 2.762502 0.384086
v -3.969725 2.773945 3.490173
v -3.960174 2.623620 3.647375
v -3.966070 2.762502 3.550332
v -3.962972 2.729916 3.601332
v -3.960901 2.681147 3.635409
v -6.227497 2.773945 4.713822
v -6.194023 2.623621 4.858387
v -6.214687 2.762502 4.769144
v -6.203827 2.729916 4.816044
v -6.196571 2.681147 4.847382
v -5.647200 2.623620 1.148877
v -5.674113 2.773945 1.331450
v -5.649249 2.681147 1.162774
v -5.655083 2.729916 1.202351
v -5.663814 2.762502 1.261582
v -7.340422 2.623620 1.909189
v -7.309362 2.773945 2.065511
v -7.338058 2.681147 1.921088
v -7.331325 2.729916 1.954974
v -7.321249 2.762502 2.005689
v -7.245618 2.773946 4.994348
v -7.240935 2.623621 5.146757
v -7.243826 2.762502 5.052672
v -7.242307 2.729916 5.102118
v -7.241292 2.681147 5.135156
v -8.189440 2.773946 4.994428
v -8.203938 2.623621 5.146757
v -8.194988 2.762502 5.052722
v -8.199691 2.729916 5.102141
v -8.202834 2.681147 5.135162
v -7.881403 2.623620 1.909189
v -7.897000 2.773945 2.065751
v -7.882590 2.681147 1.921106
v -7.885971 2.729916 1.955045
v -7.891031 2.762502 2.005837
v -8.459736 2.623620 1.576918
v -8.516672 2.773945 1.710030
v -8.464069 2.681147 1.587050
v -8.476412 2.729916 1.615906
v -8.494884 2.762502 1.659090
v -9.450423 2.773945 4.628052
v -9.522403 2.623621 4.763680
v -9.477968 2.762502 4.679954
v -9.501320 2.729916 4.723955
v -9.516924 2.681147 4.753356
v -8.740140 2.623620 1.122501
v -8.775668 2.773945 1.287872
v -8.742845 2.681147 1.135089
v -8.750546 2.729916 1.170937
v -8.762073 2.762502 1.224588
v -9.166764 2.623620 0.801204
v -9.182720 2.773945 0.978982
v -9.167978 2.681147 0.814736
v -9.171437 2.729916 0.853274
v -9.176614 2.762502 0.910949
v -9.640477 2.623620 0.610020
v -9.687342 2.773945 0.774473
v -9.644045 2.681147 0.622538
v -9.654203 2.729916 0.658187
v -9.669407 2.762502 0.711540
v -10.455553 2.773945 3.793282
v -10.567900 2.623620 3.895384
v -10.498547 2.762502 3.832354
v -10.534994 2.729916 3.865479
v -10.559348 2.681147 3.887612
v -11.447887 2.623620 1.136474
v -11.240083 2.623620 0.966424
v -11.280157 2.773945 1.129364
v -11.413344 2.623620 1.081421
v -11.361723 2.623620 1.029772
v -11.430472 2.681147 1.125481
v -11.393880 2.679120 1.077337
v -11.357067 2.677702 1.035453
v -11.348685 2.710072 1.045687
v -11.254287 2.681147 0.981312
v -11.266891 2.729916 1.017505
v -11.300881 2.623620 0.989390
v -11.308723 2.679120 1.007655
v -11.315805 2.723558 1.030268
v -11.339697 2.762502 1.121634
v -11.392481 2.729916 1.120270
v -11.275975 2.762502 1.069494
v -11.327325 2.745870 1.071767
v -11.370299 2.723558 1.074858
v -11.244231 2.773945 2.634565
v -11.386630 2.623620 2.692515
v -11.298725 2.762502 2.656741
v -11.344922 2.729916 2.675542
v -11.375791 2.681147 2.688103
v -11.461510 2.623620 1.167110
v -11.445148 2.773945 1.500422
v -11.460264 2.681147 1.192480
v -11.456717 2.729916 1.264733
v -11.451409 2.762502 1.372867
v -11.445158 2.773945 1.500449
v -11.601180 2.623620 1.481503
v -11.504864 2.762502 1.493199
v -11.555481 2.729916 1.487052
v -11.589302 2.681147 1.482945
v -0.040451 0.000000 2.497606
v 0.000000 0.150325 2.202870
v -0.024971 0.011443 2.384815
v -0.011848 0.044029 2.289196
v -0.003079 0.092798 2.225305
v -0.036056 0.000000 3.002137
v 0.000000 0.150325 3.168883
v -0.022258 0.011443 3.065948
v -0.010561 0.044029 3.120044
v -0.002745 0.092798 3.156190
v -0.436184 0.150325 1.151709
v -0.577895 0.000000 1.202419
v -0.446971 0.092798 1.155569
v -0.477690 0.044029 1.166562
v -0.523664 0.011443 1.183013
v -0.354286 0.150325 3.785680
v -0.158374 0.150325 3.602474
v -0.227435 0.000000 3.543341
v -0.295125 0.150325 3.758857
v -0.237118 0.150325 3.714621
v -0.324133 0.092798 3.761268
v -0.275103 0.094825 3.731669
v -0.232117 0.096243 3.700466
v -0.230145 0.063873 3.680768
v -0.161095 0.092798 3.591030
v -0.175175 0.044029 3.575773
v -0.189098 0.150325 3.659707
v -0.196201 0.094825 3.649879
v -0.204986 0.050387 3.640088
v -0.255482 0.011443 3.630115
v -0.289438 0.044029 3.706641
v -0.198470 0.011443 3.559027
v -0.228028 0.028075 3.634900
v -0.254636 0.050387 3.696525
v -2.184819 0.150325 4.211587
v -1.906294 0.150325 4.237341
v -2.094780 -0.000000 4.088650
v -2.122481 0.150325 4.234320
v -2.047658 0.150325 4.247197
v -2.174550 0.092798 4.203954
v -2.111852 0.094824 4.221978
v -2.053129 0.096243 4.236442
v -2.058842 0.063873 4.220726
v -1.935897 0.092798 4.230463
v -1.982113 0.044029 4.199790
v -1.971744 0.150325 4.248258
v -1.996586 0.094824 4.234637
v -2.024881 0.050387 4.215408
v -2.125821 0.011443 4.137421
v -2.153833 0.044029 4.177910
v -2.037905 0.011443 4.149992
v -2.071246 0.028075 4.180564
v -2.099332 0.050387 4.206023
v -1.255117 -0.000000 0.516621
v -1.221456 0.150325 0.357409
v -1.242235 0.011443 0.455693
v -1.231315 0.044029 0.404041
v -1.224018 0.092798 0.369528
v -2.543643 -0.000000 0.158686
v -2.509827 0.150325 -0.000000
v -2.530702 0.011443 0.097960
v -2.519731 0.044029 0.046478
v -2.512401 0.092798 0.012079
v -3.302181 0.150325 3.647375
v -3.279475 0.000000 3.490438
v -3.300452 0.092798 3.635429
v -3.295531 0.044030 3.601409
v -3.288164 0.011443 3.550495
v -4.127245 -0.000000 0.440020
v -4.163927 0.150325 0.293857
v -4.141283 0.011443 0.384086
v -4.153183 0.044029 0.336667
v -4.161135 0.092798 0.304983
v -3.960174 0.150325 3.647375
v -3.969725 0.000000 3.490173
v -3.960901 0.092798 3.635409
v -3.962972 0.044029 3.601332
v -3.966070 0.011443 3.550332
v -6.194023 0.150325 4.858387
v -6.227497 0.000000 4.713822
v -6.196571 0.092798 4.847382
v -6.203827 0.044029 4.816044
v -6.214687 0.011443 4.769144
v -5.674113 -0.000000 1.331450
v -5.647200 0.150325 1.148877
v -5.663814 0.011443 1.261582
v -5.655083 0.044029 1.202351
v -5.649249 0.092798 1.162774
v -7.309362 -0.000000 2.065511
v -7.340422 0.150325 1.909189
v -7.321249 0.011443 2.005689
v -7.331325 0.044029 1.954975
v -7.338058 0.092798 1.921088
v -7.240935 0.150326 5.146757
v -7.245618 0.000000 4.994348
v -7.241292 0.092799 5.135156
v -7.242307 0.044030 5.102118
v -7.243826 0.011443 5.052672
v -8.203938 0.150326 5.146757
v -8.189440 0.000000 4.994428
v -8.202834 0.092799 5.135162
v -8.199691 0.044030 5.102141
v -8.194988 0.011443 5.052722
v -7.897000 0.000000 2.065751
v -7.881403 0.150325 1.909189
v -7.891031 0.011443 2.005837
v -7.885971 0.044029 1.955045
v -7.882590 0.092798 1.921106
v -8.516672 -0.000000 1.710030
v -8.459736 0.150325 1.576918
v -8.494884 0.011443 1.659090
v -8.476412 0.044029 1.615906
v -8.464069 0.092798 1.587050
v -9.522403 0.150325 4.763680
v -9.450423 0.000000 4.628052
v -9.516924 0.092799 4.753356
v -9.501320 0.044030 4.723955
v -9.477968 0.011443 4.679954
v -8.775668 0.000000 1.287873
v -8.740140 0.150325 1.122501
v -8.762073 0.011443 1.224588
v -8.750546 0.044029 1.170937
v -8.742845 0.092798 1.135089
v -9.182720 0.000000 0.978983
v -9.166764 0.150325 0.801205
v -9.176614 0.011443 0.910949
v -9.171437 0.044029 0.853274
v -9.167978 0.092798 0.814736
v -9.687342 0.000000 0.774473
v -9.640477 0.150325 0.610020
v -9.669408 0.011443 0.711540
v -9.654203 0.044029 0.658187
v -9.644045 0.092798 0.622539
v -10.567900 0.150325 3.895384
v -10.455553 0.000000 3.793282
v -10.559347 0.092798 3.887612
v -10.534994 0.044030 3.865479
v -10.498547 0.011443 3.832354
v -11.447887 0.150325 1.136474
v -11.280157 0.000000 1.129364
v -11.240083 0.150325 0.966424
v -11.431901 0.092798 1.139854
v -11.394411 0.044029 1.139690
v -11.416565 0.150325 1.077500
v -11.397516 0.091357 1.079249
v -11.368116 0.051674 1.082116
v -11.346172 0.063535 1.048759
v -11.261602 0.011443 1.070931
v -11.247471 0.044029 1.019446
v -11.341125 0.011443 1.136006
v -11.323759 0.025253 1.076122
v -11.309124 0.051674 1.033842
v -11.304102 0.150325 0.985469
v -11.366075 0.150325 1.024474
v -11.239914 0.092798 0.982748
v -11.306137 0.091357 1.004472
v -11.356740 0.094349 1.035860
v -11.386630 0.150325 2.692515
v -11.244231 0.000000 2.634565
v -11.375791 0.092798 2.688104
v -11.344922 0.044029 2.675542
v -11.298725 0.011443 2.656741
v -11.445148 0.000000 1.500422
v -11.461510 0.150325 1.167110
v -11.451409 0.011443 1.372867
v -11.456717 0.044029 1.264733
v -11.460264 0.092798 1.192480
v -11.601180 0.150325 1.481504
v -11.445158 0.000000 1.500450
v -11.589302 0.092798 1.482946
v -11.555481 0.044029 1.487053
v -11.504864 0.011443 1.493200
vn 0.9739 0.0706 -0.2156
vn 0.3216 0.9469 -0.0086
vn 0.9329 0.2958 -0.2053
vn 0.8266 0.5449 -0.1408
vn 0.6387 0.7671 -0.0608
vn 0.9818 0.0442 0.1848
vn 0.3260 0.9453 0.0088
vn 0.9630 0.1935 0.1876
vn 0.8919 0.4240 0.1570
vn 0.6896 0.7195 0.0819
vn 0.0928 0.9935 -0.0665
vn 0.8307 0.0943 -0.5487
vn 0.3402 0.9106 -0.2346
vn 0.6048 0.6857 -0.4052
vn 0.7766 0.3666 -0.5124
vn 0.3418 0.1171 0.9324
vn 0.1686 0.9790 0.1147
vn 0.9058 0.0720 0.4174
vn 0.3422 0.4221 0.8395
vn 0.2791 0.7363 0.6164
vn 0.5106 0.0917 0.8549
vn 0.5127 0.3155 0.7985
vn 0.4817 0.6040 0.6349
vn 0.6689 0.4365 0.6017
vn 0.5108 0.8196 0.2595
vn 0.7744 0.5216 0.3581
vn 0.2102 0.9267 0.3114
vn 0.4826 0.7712 0.4152
vn 0.7199 0.4987 0.4828
vn 0.8212 0.0789 0.5651
vn 0.6805 0.0790 0.7284
vn 0.8819 0.2422 0.4044
vn 0.8125 0.2322 0.5347
vn 0.6838 0.2405 0.6889
vn -0.3892 0.1036 0.9153
vn -0.0223 0.9913 0.1299
vn 0.2198 0.1224 0.9678
vn -0.3581 0.3685 0.8579
vn -0.2791 0.6930 0.6647
vn -0.2556 0.1079 0.9607
vn -0.2503 0.3283 0.9108
vn -0.1992 0.6333 0.7478
vn -0.1033 0.5339 0.8392
vn 0.0360 0.9442 0.3275
vn 0.1261 0.7588 0.6391
vn -0.1356 0.9184 0.3716
vn -0.0659 0.8576 0.5100
vn 0.0270 0.6687 0.7431
vn 0.0740 0.1127 0.9909
vn -0.0908 0.1080 0.9900
vn 0.1800 0.4369 0.8813
vn 0.0616 0.3635 0.9296
vn -0.0961 0.3082 0.9464
vn 0.4994 0.0993 -0.8607
vn 0.0642 0.9935 -0.0941
vn 0.4642 0.3809 -0.7997
vn 0.3681 0.6996 -0.6124
vn 0.2175 0.9144 -0.3416
vn 0.0493 0.1029 -0.9935
vn 0.0020 0.9944 -0.1056
vn 0.0456 0.3923 -0.9187
vn 0.0303 0.7140 -0.6994
vn 0.0126 0.9221 -0.3868
vn -0.0176 0.9968 0.0775
vn -0.2318 0.1044 0.9671
vn -0.0791 0.9393 0.3339
vn -0.1581 0.7377 0.6563
vn -0.2140 0.4090 0.8871
vn -0.3397 0.0967 -0.9355
vn -0.0387 0.9940 -0.1021
vn -0.3163 0.3744 -0.8716
vn -0.2469 0.6955 -0.6748
vn -0.1400 0.9157 -0.3768
vn 0.0178 0.9968 0.0780
vn 0.2476 0.1023 0.9635
vn 0.0846 0.9377 0.3370
vn 0.1714 0.7315 0.6599
vn 0.2308 0.4024 0.8859
vn 0.0415 0.9942 0.0996
vn 0.3709 0.0950 0.9238
vn 0.1525 0.9153 0.3728
vn 0.2703 0.6917 0.6697
vn 0.3457 0.3704 0.8621
vn -0.4549 0.0980 -0.8851
vn -0.0411 0.9956 -0.0842
vn -0.4231 0.3833 -0.8210
vn -0.3210 0.7095 -0.6274
vn -0.1691 0.9265 -0.3361
vn -0.2085 0.1053 -0.9723
vn -0.0167 0.9968 -0.0785
vn -0.1913 0.4110 -0.8913
vn -0.1413 0.7393 -0.6583
vn -0.0718 0.9394 -0.3353
vn 0.0152 0.9944 0.1044
vn 0.1325 0.0981 0.9863
vn 0.0546 0.9190 0.3904
vn 0.0961 0.7018 0.7059
vn 0.1230 0.3796 0.9169
vn -0.0153 0.9945 0.1039
vn -0.1398 0.0988 0.9852
vn -0.0561 0.9198 0.3883
vn -0.1004 0.7039 0.7031
vn -0.1298 0.3816 0.9152
vn 0.2592 0.1028 -0.9604
vn 0.0187 0.9969 -0.0768
vn 0.2410 0.4043 -0.8823
vn 0.1787 0.7336 -0.6557
vn 0.0883 0.9386 -0.3336
vn 0.6971 0.0890 -0.7114
vn 0.0599 0.9959 -0.0676
vn 0.6580 0.3575 -0.6627
vn 0.5148 0.6832 -0.5178
vn 0.2701 0.9214 -0.2793
vn -0.0508 0.9941 0.0958
vn -0.4665 0.0988 0.8790
vn -0.1863 0.9176 0.3511
vn -0.3341 0.7015 0.6295
vn -0.4336 0.3802 0.8170
vn 0.7313 0.0898 -0.6761
vn 0.1010 0.9919 -0.0771
vn 0.6861 0.3535 -0.6358
vn 0.5561 0.6663 -0.4968
vn 0.3370 0.8985 -0.2812
vn 0.4862 0.1053 -0.8675
vn 0.0528 0.9950 -0.0849
vn 0.4473 0.4024 -0.7987
vn 0.3422 0.7247 -0.5981
vn 0.1910 0.9272 -0.3222
vn 0.0853 0.1071 -0.9906
vn 0.0034 0.9944 -0.1058
vn 0.0778 0.4031 -0.9119
vn 0.0501 0.7240 -0.6880
vn 0.0206 0.9244 -0.3808
vn -0.0782 0.9944 0.0711
vn -0.7365 0.0981 0.6693
vn -0.2918 0.9190 0.2652
vn -0.5272 0.7017 0.4792
vn -0.6846 0.3796 0.6222
vn -0.8816 0.0968 -0.4620
vn -0.2784 0.0968 -0.9556
vn -0.0992 0.9877 -0.1212
vn -0.7873 0.0908 -0.6099
vn -0.6310 0.0854 -0.7711
vn -0.8145 0.3576 -0.4569
vn -0.7442 0.2943 -0.5996
vn -0.6119 0.2579 -0.7477
vn -0.5544 0.4833 -0.6775
vn -0.2867 0.3575 -0.8888
vn -0.2352 0.6788 -0.6956
vn -0.4421 0.0908 -0.8924
vn -0.4405 0.2943 -0.8481
vn -0.3914 0.6019 -0.6961
vn -0.3357 0.9126 -0.2334
vn -0.6353 0.6789 -0.3681
vn -0.1623 0.9126 -0.3753
vn -0.3577 0.8252 -0.4372
vn -0.6048 0.6020 -0.5214
vn -0.1006 0.9941 0.0410
vn -0.9217 0.0989 0.3751
vn -0.3683 0.9175 0.1499
vn -0.6600 0.7016 0.2686
vn -0.8566 0.3803 0.3486
vn -0.9094 0.0980 -0.4042
vn -0.0909 0.9950 -0.0404
vn -0.8442 0.3827 -0.3752
vn -0.6462 0.7071 -0.2872
vn -0.3497 0.9239 -0.1554
vn -0.1093 0.9939 -0.0129
vn -0.9876 0.1005 -0.1204
vn -0.3964 0.9168 -0.0484
vn -0.7053 0.7037 -0.0860
vn -0.9169 0.3832 -0.1118
vn 0.3215 -0.9469 -0.0086
vn 0.9739 -0.0706 -0.2156
vn 0.6387 -0.7671 -0.0608
vn 0.8266 -0.5449 -0.1408
vn 0.9329 -0.2958 -0.2053
vn 0.3260 -0.9453 0.0088
vn 0.9818 -0.0442 0.1848
vn 0.6896 -0.7195 0.0819
vn 0.8919 -0.4240 0.1570
vn 0.9630 -0.1935 0.1876
vn 0.8307 -0.0943 -0.5487
vn 0.0928 -0.9935 -0.0665
vn 0.7766 -0.3666 -0.5124
vn 0.6048 -0.6857 -0.4052
vn 0.3402 -0.9106 -0.2345
vn 0.3418 -0.1171 0.9324
vn 0.9058 -0.0720 0.4174
vn 0.1686 -0.9790 0.1147
vn 0.5106 -0.0917 0.8549
vn 0.6805 -0.0790 0.7284
vn 0.3422 -0.4221 0.8395
vn 0.5127 -0.3155 0.7985
vn 0.6838 -0.2405 0.6889
vn 0.6689 -0.4365 0.6017
vn 0.8819 -0.2422 0.4044
vn 0.7744 -0.5216 0.3581
vn 0.8212 -0.0789 0.5651
vn 0.8125 -0.2322 0.5347
vn 0.7199 -0.4987 0.4828
vn 0.2102 -0.9267 0.3114
vn 0.2791 -0.7363 0.6164
vn 0.5108 -0.8196 0.2595
vn 0.4826 -0.7712 0.4152
vn 0.4817 -0.6040 0.6349
vn -0.3892 -0.1036 0.9153
vn 0.2198 -0.1224 0.9678
vn -0.0223 -0.9913 0.1299
vn -0.2556 -0.1079 0.9607
vn -0.0908 -0.1080 0.9900
vn -0.3581 -0.3685 0.8579
vn -0.2503 -0.3283 0.9108
vn -0.0961 -0.3082 0.9464
vn -0.1033 -0.5339 0.8392
vn 0.1800 -0.4369 0.8813
vn 0.1261 -0.7588 0.6391
vn 0.0740 -0.1127 0.9909
vn 0.0616 -0.3635 0.9296
vn 0.0270 -0.6687 0.7431
vn -0.1356 -0.9184 0.3716
vn -0.2791 -0.6930 0.6647
vn 0.0360 -0.9442 0.3275
vn -0.0659 -0.8576 0.5100
vn -0.1992 -0.6333 0.7478
vn 0.0642 -0.9935 -0.0940
vn 0.4994 -0.0993 -0.8607
vn 0.2175 -0.9144 -0.3416
vn 0.3681 -0.6996 -0.6124
vn 0.4642 -0.3809 -0.7997
vn 0.0020 -0.9944 -0.1056
vn 0.0493 -0.1029 -0.9935
vn 0.0126 -0.9221 -0.3868
vn 0.0303 -0.7140 -0.6994
vn 0.0456 -0.3923 -0.9187
vn -0.2318 -0.1044 0.9671
vn -0.0176 -0.9968 0.0775
vn -0.2140 -0.4090 0.8871
vn -0.1581 -0.7377 0.6563
vn -0.0791 -0.9393 0.3339
vn -0.0387 -0.9940 -0.1021
vn -0.3397 -0.0967 -0.9355
vn -0.1400 -0.9157 -0.3768
vn -0.2469 -0.6955 -0.6748
vn -0.3163 -0.3744 -0.8716
vn 0.2476 -0.1023 0.9635
vn 0.0178 -0.9968 0.0780
vn 0.2308 -0.4024 0.8859
vn 0.1714 -0.7315 0.6599
vn 0.0846 -0.9377 0.3370
vn 0.3709 -0.0950 0.9238
vn 0.0415 -0.9942 0.0996
vn 0.3457 -0.3704 0.8621
vn 0.2703 -0.6917 0.6697
vn 0.1525 -0.9153 0.3728
vn -0.0411 -0.9956 -0.0842
vn -0.4549 -0.0980 -0.8851
vn -0.1691 -0.9265 -0.3361
vn -0.3210 -0.7095 -0.6274
vn -0.4231 -0.3833 -0.8210
vn -0.0167 -0.9968 -0.0785
vn -0.2085 -0.1053 -0.9723
vn -0.0718 -0.9394 -0.3353
vn -0.1413 -0.7393 -0.6583
vn -0.1913 -0.4110 -0.8913
vn 0.1325 -0.0981 0.9863
vn 0.0152 -0.9944 0.1044
vn 0.1230 -0.3796 0.9169
vn 0.0961 -0.7018 0.7059
vn 0.0546 -0.9190 0.3904
vn -0.1398 -0.0988 0.9852
vn -0.0153 -0.9945 0.1039
vn -0.1298 -0.3816 0.9152
vn -0.1004 -0.7039 0.7031
vn -0.0561 -0.9198 0.3883
vn 0.0187 -0.9969 -0.0768
vn 0.2592 -0.1028 -0.9604
vn 0.0883 -0.9386 -0.3336
vn 0.1787 -0.7336 -0.6557
vn 0.2410 -0.4043 -0.8823
vn 0.0599 -0.9959 -0.0676
vn 0.6971 -0.0890 -0.7114
vn 0.2701 -0.9214 -0.2793
vn 0.5148 -0.6832 -0.5178
vn 0.6580 -0.3575 -0.6627
vn -0.4665 -0.0988 0.8790
vn -0.0508 -0.9941 0.0958
vn -0.4336 -0.3802 0.8170
vn -0.3341 -0.7015 0.6295
vn -0.1863 -0.9176 0.3511
vn 0.1010 -0.9919 -0.0771
vn 0.7313 -0.0898 -0.6761
vn 0.3370 -0.8985 -0.2812
vn 0.5561 -0.6663 -0.4968
vn 0.6861 -0.3535 -0.6358
vn 0.0528 -0.9950 -0.0849
vn 0.4862 -0.1053 -0.8675
vn 0.1910 -0.9272 -0.3222
vn 0.3422 -0.7247 -0.5981
vn 0.4473 -0.4024 -0.7987
vn 0.0028 -0.9941 -0.1084
vn 0.0855 -0.1164 -0.9895
vn 0.0191 -0.9229 -0.3846
vn 0.0490 -0.7252 -0.6868
vn 0.0775 -0.4150 -0.9065
vn -0.7365 -0.0981 0.6693
vn -0.0782 -0.9944 0.0711
vn -0.6846 -0.3796 0.6222
vn -0.5272 -0.7017 0.4792
vn -0.2918 -0.9190 0.2652
vn -0.8812 -0.1285 -0.4550
vn -0.1073 -0.9855 -0.1315
vn -0.2602 -0.1265 -0.9572
vn -0.8031 -0.4197 -0.4230
vn -0.6212 -0.7085 -0.3350
vn -0.7987 -0.1313 -0.5872
vn -0.7392 -0.4025 -0.5401
vn -0.5942 -0.6502 -0.4735
vn -0.5224 -0.5653 -0.6384
vn -0.1480 -0.9095 -0.3885
vn -0.1946 -0.7025 -0.6845
vn -0.3477 -0.9106 -0.2233
vn -0.3576 -0.8254 -0.4369
vn -0.3466 -0.6501 -0.6762
vn -0.4176 -0.1313 -0.8991
vn -0.6284 -0.1240 -0.7679
vn -0.2341 -0.4116 -0.8808
vn -0.3832 -0.4024 -0.8314
vn -0.5889 -0.3679 -0.7196
vn -0.9217 -0.0989 0.3751
vn -0.1006 -0.9941 0.0409
vn -0.8566 -0.3803 0.3486
vn -0.6600 -0.7016 0.2686
vn -0.3683 -0.9175 0.1499
vn -0.0915 -0.9950 -0.0408
vn -0.9020 -0.1119 -0.4170
vn -0.3521 -0.9224 -0.1586
vn -0.6400 -0.7086 -0.2971
vn -0.8269 -0.3991 -0.3962
vn -0.9876 -0.1005 -0.1204
vn -0.1091 -0.9939 -0.0129
vn -0.9169 -0.3832 -0.1118
vn -0.7053 -0.7037 -0.0860
vn -0.3964 -0.9168 -0.0484
vt 0.462610 0.765537
vt 0.466823 0.765571
vt 0.468717 0.761984
vt 0.465048 0.761823
vt 0.470827 0.759116
vt 0.468489 0.758685
vt 0.471389 0.765608
vt 0.472062 0.762103
vt 0.472677 0.760006
vt 0.381596 0.727136
vt 0.376137 0.724875
vt 0.375695 0.726637
vt 0.380438 0.728935
vt 0.375255 0.728114
vt 0.379255 0.730375
vt 0.371386 0.722299
vt 0.371863 0.724608
vt 0.473938 0.757693
vt 0.475187 0.759151
vt 0.478854 0.765667
vt 0.478999 0.761935
vt 0.475454 0.762038
vt 0.475614 0.765642
vt 0.478547 0.758765
vt 0.889874 0.016895
vt 0.893458 0.017243
vt 0.893221 0.013829
vt 0.889869 0.013322
vt 0.342923 0.760843
vt 0.346257 0.761001
vt 0.347422 0.758126
vt 0.344829 0.757693
vt 0.345289 0.764596
vt 0.349479 0.764630
vt 0.349439 0.761119
vt 0.349494 0.759018
vt 0.356076 0.603480
vt 0.353092 0.601224
vt 0.350027 0.604540
vt 0.351819 0.606846
vt 0.347546 0.607372
vt 0.348329 0.610216
vt 0.350641 0.599221
vt 0.348542 0.602604
vt 0.347389 0.605155
vt 0.358226 0.764700
vt 0.356642 0.760953
vt 0.352887 0.761055
vt 0.354022 0.764666
vt 0.354631 0.757771
vt 0.351674 0.758160
vt 0.314535 0.765614
vt 0.313210 0.761885
vt 0.309751 0.762055
vt 0.311011 0.765662
vt 0.306448 0.762177
vt 0.306570 0.765696
vt 0.310826 0.758705
vt 0.308292 0.759161
vt 0.306230 0.760059
vt 0.297680 0.765706
vt 0.301889 0.765712
vt 0.302845 0.762092
vt 0.298920 0.761962
vt 0.303872 0.759185
vt 0.300640 0.758761
vt 0.595531 0.024670
vt 0.599391 0.025260
vt 0.599524 0.021936
vt 0.596351 0.020865
vt 0.599564 0.019154
vt 0.596738 0.017478
vt 0.602730 0.026139
vt 0.602164 0.022912
vt 0.305671 0.757693
vt 0.461322 0.926071
vt 0.463701 0.929825
vt 0.467372 0.929723
vt 0.465535 0.926105
vt 0.470718 0.929657
vt 0.470101 0.926142
vt 0.467091 0.933018
vt 0.469435 0.932624
vt 0.471299 0.931763
vt 0.477567 0.926202
vt 0.474326 0.926176
vt 0.474109 0.929777
vt 0.477651 0.929937
vt 0.473795 0.932659
vt 0.477149 0.933098
vt 0.243257 0.727136
vt 0.244415 0.728935
vt 0.249157 0.726637
vt 0.248716 0.724876
vt 0.252989 0.724608
vt 0.253466 0.722300
vt 0.245597 0.730375
vt 0.249597 0.728115
vt 0.472523 0.934097
vt 0.889874 0.175720
vt 0.889869 0.179536
vt 0.893221 0.179782
vt 0.893458 0.176068
vt 0.344001 0.925130
vt 0.344912 0.928740
vt 0.348095 0.928674
vt 0.348191 0.925164
vt 0.889303 0.182971
vt 0.892868 0.182821
vt 0.346030 0.931634
vt 0.348117 0.930775
vt 0.356938 0.925234
vt 0.352734 0.925201
vt 0.351541 0.928794
vt 0.355294 0.928955
vt 0.350283 0.931668
vt 0.353233 0.932104
vt 0.268776 0.603480
vt 0.273034 0.606847
vt 0.274826 0.604541
vt 0.271761 0.601225
vt 0.276310 0.602605
vt 0.274211 0.599221
vt 0.276524 0.610217
vt 0.277306 0.607372
vt 0.277463 0.605156
vt 0.314535 0.926120
vt 0.311095 0.926174
vt 0.310018 0.929988
vt 0.313682 0.929840
vt 0.308359 0.932544
vt 0.311464 0.932984
vt 0.306684 0.926211
vt 0.306440 0.929824
vt 0.306164 0.931802
vt 0.029322 0.024670
vt 0.029425 0.020698
vt 0.025632 0.022142
vt 0.025630 0.026182
vt 0.022954 0.023326
vt 0.022350 0.027385
vt 0.029361 0.017251
vt 0.025769 0.019258
vt 0.305578 0.934241
vt 0.303574 0.932570
vt 0.297680 0.926211
vt 0.298110 0.929924
vt 0.302606 0.930028
vt 0.301974 0.926224
vt 0.299546 0.933049
vt 0.448272 0.744691
vt 0.455496 0.746288
vt 0.535852 0.720298
vt 0.534872 0.716681
vt 0.461636 0.747657
vt 0.536699 0.723378
vt 0.181471 0.831091
vt 0.178306 0.834617
vt 0.178306 0.909735
vt 0.181471 0.909923
vt 0.174572 0.835855
vt 0.174572 0.909669
vt 0.178306 0.779754
vt 0.174572 0.778932
vt 0.181471 0.782097
vt 0.183587 0.825814
vt 0.183587 0.785603
vt 0.415608 0.742342
vt 0.411416 0.742909
vt 0.332888 0.765279
vt 0.332225 0.761538
vt 0.316775 0.761820
vt 0.316165 0.765585
vt 0.330339 0.758349
vt 0.318514 0.758565
vt 0.573861 0.005018
vt 0.573176 0.008240
vt 0.580681 0.012326
vt 0.587727 0.012568
vt 0.572386 0.012058
vt 0.572388 0.012059
vt 0.496823 0.015503
vt 0.497965 0.019137
vt 0.495872 0.012437
vt 0.822529 0.775320
vt 0.825451 0.776786
vt 0.819135 0.705631
vt 0.816300 0.705149
vt 0.829071 0.777257
vt 0.822724 0.705756
vt 0.416586 0.061135
vt 0.418881 0.064114
vt 0.414656 0.058625
vt 0.817062 0.611530
vt 0.814244 0.611799
vt 0.820646 0.611392
vt 0.194170 0.761504
vt 0.193622 0.765250
vt 0.195731 0.758301
vt 0.614152 0.131067
vt 0.617547 0.132349
vt 0.610166 0.129571
vt 0.356417 0.122738
vt 0.359623 0.124784
vt 0.353715 0.121018
vt 0.818728 0.526145
vt 0.815896 0.527131
vt 0.822317 0.525755
vt 0.616048 0.764592
vt 0.615407 0.760858
vt 0.591124 0.760858
vt 0.591888 0.764592
vt 0.619835 0.133223
vt 0.602403 0.162564
vt 0.604913 0.163019
vt 0.598676 0.161907
vt 0.594298 0.161150
vt 0.560674 0.760858
vt 0.561343 0.764592
vt 0.588947 0.757693
vt 0.558772 0.757693
vt 0.576219 0.187089
vt 0.579652 0.188136
vt 0.572188 0.185872
vt 0.526454 0.760858
vt 0.526933 0.764592
vt 0.525090 0.757693
vt 0.546712 0.202108
vt 0.549433 0.203548
vt 0.543523 0.200425
vt 0.325596 0.203796
vt 0.329330 0.204452
vt 0.322446 0.203255
vt 0.804209 0.454499
vt 0.801043 0.452845
vt 0.801043 0.522652
vt 0.804209 0.523644
vt 0.797309 0.452264
vt 0.797309 0.522303
vt 0.490942 0.760858
vt 0.491612 0.764592
vt 0.489034 0.757693
vt 0.521124 0.239364
vt 0.524406 0.239977
vt 0.517271 0.238658
vt 0.637013 0.007150
vt 0.633265 0.006772
vt 0.633082 0.038926
vt 0.636832 0.039093
vt 0.630056 0.005670
vt 0.629870 0.038422
vt 0.518156 0.276228
vt 0.521512 0.275861
vt 0.514215 0.276677
vt 0.320628 0.265333
vt 0.324402 0.265514
vt 0.317444 0.265193
vt 0.801043 0.580522
vt 0.804209 0.581264
vt 0.797309 0.580262
vt 0.333592 0.333394
vt 0.337230 0.332847
vt 0.330524 0.333872
vt 0.801043 0.650394
vt 0.804209 0.650719
vt 0.797309 0.650280
vt 0.633516 0.159085
vt 0.637267 0.159567
vt 0.630301 0.157686
vt 0.557633 0.387341
vt 0.561442 0.388235
vt 0.553159 0.386303
vt 0.634148 0.270076
vt 0.637897 0.270197
vt 0.630939 0.269703
vt 0.606445 0.490423
vt 0.609598 0.489921
vt 0.602745 0.491032
vt 0.400691 0.485232
vt 0.404594 0.485302
vt 0.397398 0.485186
vt 0.801043 0.814411
vt 0.804209 0.815115
vt 0.797309 0.814164
vt 0.397137 0.529089
vt 0.400969 0.529957
vt 0.393905 0.528367
vt 0.801043 0.854159
vt 0.804209 0.855283
vt 0.797309 0.853765
vt 0.633982 0.375324
vt 0.637730 0.375788
vt 0.630774 0.373976
vt 0.616539 0.596114
vt 0.619835 0.597113
vt 0.612670 0.594953
vt 0.815275 0.005018
vt 0.816865 0.007922
vt 0.889303 0.010494
vt 0.817424 0.011536
vt 0.633078 0.441765
vt 0.636827 0.442229
vt 0.629870 0.440415
vt 0.586661 0.677605
vt 0.589969 0.678602
vt 0.582779 0.676447
vt 0.174572 0.977849
vt 0.178306 0.977204
vt 0.181471 0.975369
vt 0.407878 0.743403
vt 0.181471 0.759723
vt 0.178306 0.758441
vt 0.174572 0.757693
vt 0.014032 0.835855
vt 0.010298 0.834617
vt 0.010298 0.909735
vt 0.014032 0.909669
vt 0.007133 0.831091
vt 0.007133 0.909923
vt 0.163216 0.747657
vt 0.169357 0.746289
vt 0.089000 0.720298
vt 0.088153 0.723379
vt 0.176581 0.744691
vt 0.089981 0.716681
vt 0.213436 0.742909
vt 0.209244 0.742342
vt 0.005018 0.825814
vt 0.007133 0.782097
vt 0.005018 0.785603
vt 0.010298 0.779754
vt 0.014032 0.778932
vt 0.052467 0.012058
vt 0.051678 0.008240
vt 0.044172 0.012326
vt 0.052465 0.012059
vt 0.050992 0.005018
vt 0.037125 0.012568
vt 0.330339 0.932651
vt 0.332225 0.929510
vt 0.316775 0.929792
vt 0.318514 0.932866
vt 0.332888 0.925785
vt 0.316165 0.926090
vt 0.987874 0.774590
vt 0.991641 0.773995
vt 0.985325 0.702840
vt 0.981527 0.703090
vt 0.994982 0.772424
vt 0.988753 0.702254
vt 0.128030 0.015503
vt 0.128981 0.012437
vt 0.126888 0.019138
vt 0.983253 0.608739
vt 0.979449 0.608725
vt 0.986697 0.608904
vt 0.208267 0.061136
vt 0.210196 0.058625
vt 0.205972 0.064114
vt 0.010701 0.131067
vt 0.014687 0.129571
vt 0.007306 0.132349
vt 0.194170 0.929476
vt 0.195731 0.932603
vt 0.193622 0.925756
vt 0.984919 0.523354
vt 0.981120 0.523088
vt 0.988349 0.524235
vt 0.268436 0.122739
vt 0.271137 0.121019
vt 0.265230 0.124785
vt 0.026177 0.161907
vt 0.030555 0.161150
vt 0.022450 0.162564
vt 0.005018 0.133223
vt 0.019940 0.163019
vt 0.615407 0.928866
vt 0.616048 0.925132
vt 0.591888 0.925132
vt 0.591124 0.928866
vt 0.048634 0.187090
vt 0.052666 0.185873
vt 0.045200 0.188136
vt 0.588947 0.932031
vt 0.560674 0.928866
vt 0.558772 0.932031
vt 0.561343 0.925132
vt 0.078141 0.202108
vt 0.081330 0.200425
vt 0.075420 0.203548
vt 0.526454 0.928866
vt 0.525090 0.932031
vt 0.526933 0.925132
vt 0.991615 0.452765
vt 0.987839 0.452264
vt 0.994982 0.454315
vt 0.299257 0.203797
vt 0.302407 0.203255
vt 0.295523 0.204453
vt 0.103729 0.239365
vt 0.107582 0.238659
vt 0.100446 0.239978
vt 0.490942 0.928866
vt 0.489034 0.932031
vt 0.491612 0.925132
vt 0.106697 0.276228
vt 0.110638 0.276678
vt 0.103340 0.275861
vt 0.804357 0.005018
vt 0.801235 0.006144
vt 0.801053 0.038298
vt 0.804171 0.037770
vt 0.797517 0.006549
vt 0.797336 0.038493
vt 0.636770 0.522303
vt 0.633036 0.522652
vt 0.633036 0.580522
vt 0.636770 0.580262
vt 0.629870 0.523644
vt 0.629870 0.581264
vt 0.304225 0.265333
vt 0.307409 0.265194
vt 0.300450 0.265515
vt 0.633036 0.650394
vt 0.636770 0.650280
vt 0.629870 0.650719
vt 0.291261 0.333394
vt 0.294328 0.333872
vt 0.287623 0.332847
vt 0.067220 0.387341
vt 0.071694 0.386303
vt 0.063410 0.388236
vt 0.801487 0.158457
vt 0.804601 0.157034
vt 0.797771 0.158967
vt 0.018408 0.490423
vt 0.022108 0.491032
vt 0.015255 0.489921
vt 0.802119 0.269448
vt 0.805239 0.269052
vt 0.798401 0.269597
vt 0.633036 0.814411
vt 0.636770 0.814164
vt 0.629870 0.815115
vt 0.224162 0.485232
vt 0.227454 0.485187
vt 0.220259 0.485303
vt 0.633036 0.854159
vt 0.636770 0.853765
vt 0.629870 0.855283
vt 0.227715 0.529089
vt 0.230948 0.528367
vt 0.223884 0.529958
vt 0.008314 0.596114
vt 0.012183 0.594953
vt 0.005018 0.597113
vt 0.801952 0.374696
vt 0.805074 0.373324
vt 0.798234 0.375188
vt 0.817424 0.170361
vt 0.816865 0.174135
vt 0.815275 0.177495
vt 0.038191 0.677606
vt 0.042074 0.676447
vt 0.034884 0.678602
vt 0.801049 0.441137
vt 0.804171 0.439764
vt 0.797331 0.441629
vt 0.007133 0.975369
vt 0.010298 0.977204
vt 0.014032 0.977849
vt 0.014032 0.757693
vt 0.010298 0.758441
vt 0.007133 0.759723
vt 0.216974 0.743404
vt 0.636770 0.452264
s 1
f 16/1/16 21/2/21 22/3/22 19/4/19
f 19/4/19 22/3/22 23/5/23 20/6/20
f 21/2/21 31/7/31 34/8/34 22/3/22
f 22/3/22 34/8/34 24/9/24 23/5/23
f 17/10/17 27/11/27 28/12/28 25/13/25
f 25/13/25 28/12/28 29/14/29 26/15/26
f 27/11/27 20/16/20 23/17/23 28/12/28
f 28/18/28 23/5/23 24/9/24 29/19/29
f 18/20/18 32/21/32 33/22/33 30/23/30
f 30/23/30 33/22/33 34/8/34 31/7/31
f 32/21/32 26/24/26 29/19/29 33/22/33
f 33/22/33 29/19/29 24/9/24 34/8/34
f 35/25/35 40/26/40 41/27/41 38/28/38
f 38/29/38 41/30/41 42/31/42 39/32/39
f 40/33/40 50/34/50 53/35/53 41/30/41
f 41/30/41 53/35/53 43/36/43 42/31/42
f 36/37/36 46/38/46 47/39/47 44/40/44
f 44/40/44 47/39/47 48/41/48 45/42/45
f 46/38/46 39/43/39 42/44/42 47/39/47
f 47/39/47 42/44/42 43/45/43 48/41/48
f 37/46/37 51/47/51 52/48/52 49/49/49
f 49/49/49 52/48/52 53/35/53 50/34/50
f 51/47/51 45/50/45 48/51/48 52/48/52
f 52/48/52 48/51/48 43/36/43 53/35/53
f 139/52/139 144/53/144 145/54/145 142/55/142
f 142/55/142 145/54/145 146/56/146 143/57/143
f 144/53/144 154/58/154 157/59/157 145/54/145
f 145/54/145 157/59/157 147/60/147 146/56/146
f 140/61/140 150/62/150 151/63/151 148/64/148
f 148/64/148 151/63/151 152/65/152 149/66/149
f 150/62/150 143/57/143 146/56/146 151/63/151
f 151/63/151 146/56/146 147/60/147 152/65/152
f 141/67/141 155/68/155 156/69/156 153/70/153
f 153/70/153 156/69/156 157/71/157 154/72/154
f 155/68/155 149/73/149 152/74/152 156/69/156
f 156/75/156 152/65/152 147/60/147 157/59/157
f 188/76/188 193/77/193 194/78/194 191/79/191
f 191/79/191 194/78/194 195/80/195 192/81/192
f 193/77/193 203/82/203 206/83/206 194/78/194
f 194/78/194 206/83/206 196/84/196 195/80/195
f 189/85/189 199/86/199 200/87/200 197/88/197
f 197/88/197 200/87/200 201/89/201 198/90/198
f 199/86/199 192/81/192 195/80/195 200/87/200
f 200/87/200 195/80/195 196/84/196 201/89/201
f 190/91/190 204/92/204 205/93/205 202/94/202
f 202/94/202 205/93/205 206/95/206 203/96/203
f 204/92/204 198/97/198 201/98/201 205/93/205
f 205/99/205 201/89/201 196/84/196 206/83/206
f 207/100/207 212/101/212 213/102/213 210/103/210
f 210/104/210 213/105/213 214/106/214 211/107/211
f 212/101/212 222/108/222 225/109/225 213/102/213
f 213/105/213 225/110/225 215/111/215 214/106/214
f 208/112/208 218/113/218 219/114/219 216/115/216
f 216/115/216 219/114/219 220/116/220 217/117/217
f 218/113/218 211/107/211 214/106/214 219/114/219
f 219/114/219 214/106/214 215/111/215 220/116/220
f 209/118/209 223/119/223 224/120/224 221/121/221
f 221/121/221 224/120/224 225/122/225 222/123/222
f 223/119/223 217/124/217 220/125/220 224/120/224
f 224/120/224 220/125/220 215/126/215 225/122/225
f 311/127/311 316/128/316 317/129/317 314/130/314
f 314/130/314 317/129/317 318/131/318 315/132/315
f 316/128/316 326/133/326 329/134/329 317/129/317
f 317/129/317 329/134/329 319/135/319 318/131/318
f 312/136/312 322/137/322 323/138/323 320/139/320
f 320/139/320 323/138/323 324/140/324 321/141/321
f 322/137/322 315/142/315 318/143/318 323/138/323
f 323/144/323 318/131/318 319/135/319 324/145/324
f 313/146/313 327/147/327 328/148/328 325/149/325
f 325/149/325 328/148/328 329/134/329 326/133/326
f 327/147/327 321/150/321 324/145/324 328/148/328
f 328/148/328 324/145/324 319/135/319 329/134/329
f 2/151/2 5/152/5 13/153/13 11/154/11
f 5/152/5 4/155/4 14/156/14 13/153/13
f 4/157/4 3/158/3 15/159/15 14/160/14
f 3/158/3 1/161/1 12/162/12 15/159/15
f 1/161/1 3/158/3 8/163/8 6/164/6
f 3/158/3 4/157/4 9/165/9 8/163/8
f 4/157/4 5/166/5 10/167/10 9/165/9
f 5/152/5 2/151/2 7/168/7 10/169/10
f 169/170/169 172/171/172 165/172/165 163/173/163
f 172/171/172 171/174/171 166/175/166 165/172/165
f 171/176/171 170/177/170 167/178/167 166/179/166
f 170/177/170 168/180/168 164/181/164 167/178/167
f 168/180/168 170/177/170 160/182/160 158/183/158
f 170/177/170 171/176/171 161/184/161 160/182/160
f 171/185/171 172/186/172 162/187/162 161/188/161
f 172/186/172 169/189/169 159/190/159 162/187/162
f 163/173/163 165/172/165 144/53/144 139/52/139
f 165/172/165 166/175/166 154/58/154 144/53/144
f 166/179/166 167/178/167 153/70/153 154/72/154
f 167/178/167 164/181/164 141/67/141 153/70/153
f 158/183/158 160/182/160 136/191/136 134/192/134
f 160/182/160 161/184/161 137/193/137 136/191/136
f 161/188/161 162/187/162 138/194/138 137/195/137
f 162/187/162 159/190/159 135/196/135 138/194/138
f 140/61/140 148/64/148 131/197/131 129/198/129
f 148/64/148 149/66/149 132/199/132 131/197/131
f 149/73/149 155/68/155 133/200/133 132/201/132
f 155/68/155 141/67/141 130/202/130 133/200/133
f 134/192/134 136/191/136 116/203/116 114/204/114
f 136/191/136 137/193/137 117/205/117 116/203/116
f 137/195/137 138/194/138 118/206/118 117/207/117
f 138/194/138 135/196/135 115/208/115 118/206/118
f 129/209/129 131/210/131 126/211/126 124/212/124
f 131/213/131 132/201/132 127/214/127 126/215/126
f 132/201/132 133/200/133 128/216/128 127/214/127
f 133/200/133 130/202/130 125/217/125 128/216/128
f 124/212/124 126/211/126 121/218/121 119/219/119
f 126/211/126 127/220/127 122/221/122 121/218/121
f 127/214/127 128/216/128 123/222/123 122/223/122
f 128/216/128 125/217/125 120/224/120 123/222/123
f 119/219/119 121/218/121 111/225/111 109/226/109
f 121/218/121 122/221/122 112/227/112 111/225/111
f 122/223/122 123/222/123 113/228/113 112/229/112
f 123/222/123 120/224/120 110/230/110 113/228/113
f 114/204/114 116/203/116 101/231/101 99/232/99
f 116/203/116 117/205/117 102/233/102 101/231/101
f 117/234/117 118/235/118 103/236/103 102/237/102
f 118/235/118 115/238/115 100/239/100 103/236/103
f 109/226/109 111/225/111 106/240/106 104/241/104
f 111/225/111 112/227/112 107/242/107 106/240/106
f 112/229/112 113/228/113 108/243/108 107/244/107
f 113/228/113 110/230/110 105/245/105 108/243/108
f 104/246/104 106/247/106 91/248/91 89/249/89
f 106/247/106 107/250/107 92/251/92 91/248/91
f 107/244/107 108/243/108 93/252/93 92/253/92
f 108/243/108 105/245/105 90/254/90 93/252/93
f 99/232/99 101/231/101 96/255/96 94/256/94
f 101/231/101 102/233/102 97/257/97 96/255/96
f 102/237/102 103/236/103 98/258/98 97/259/97
f 103/236/103 100/239/100 95/260/95 98/258/98
f 94/256/94 96/255/96 81/261/81 79/262/79
f 96/255/96 97/257/97 82/263/82 81/261/81
f 97/259/97 98/258/98 83/264/83 82/265/82
f 98/258/98 95/260/95 80/266/80 83/264/83
f 89/249/89 91/248/91 86/267/86 84/268/84
f 91/248/91 92/251/92 87/269/87 86/267/86
f 92/253/92 93/252/93 88/270/88 87/271/87
f 93/252/93 90/254/90 85/272/85 88/270/88
f 84/268/84 86/267/86 71/273/71 69/274/69
f 86/267/86 87/269/87 72/275/72 71/273/71
f 87/271/87 88/270/88 73/276/73 72/277/72
f 88/270/88 85/272/85 70/278/70 73/276/73
f 79/262/79 81/261/81 76/279/76 74/280/74
f 81/261/81 82/263/82 77/281/77 76/279/76
f 82/265/82 83/264/83 78/282/78 77/283/77
f 83/264/83 80/266/80 75/284/75 78/282/78
f 74/280/74 76/279/76 66/285/66 64/286/64
f 76/279/76 77/281/77 67/287/67 66/285/66
f 77/283/77 78/282/78 68/288/68 67/289/67
f 78/282/78 75/284/75 65/290/65 68/288/68
f 69/274/69 71/273/71 61/291/61 59/292/59
f 71/273/71 72/275/72 62/293/62 61/291/61
f 72/277/72 73/276/73 63/294/63 62/295/62
f 73/276/73 70/278/70 60/296/60 63/294/63
f 64/286/64 66/285/66 46/38/46 36/37/36
f 66/285/66 67/287/67 39/43/39 46/38/46
f 67/297/67 68/298/68 38/28/38 39/299/39
f 68/298/68 65/300/65 35/25/35 38/28/38
f 59/292/59 61/291/61 56/301/56 54/302/54
f 61/291/61 62/293/62 57/303/57 56/301/56
f 62/295/62 63/294/63 58/304/58 57/305/57
f 63/294/63 60/296/60 55/306/55 58/304/58
f 54/307/54 56/308/56 15/159/15 12/162/12
f 56/308/56 57/309/57 14/160/14 15/159/15
f 57/305/57 58/304/58 13/153/13 14/156/14
f 58/304/58 55/306/55 11/154/11 13/153/13
f 36/37/36 44/40/44 27/11/27 17/10/17
f 44/40/44 45/42/45 20/16/20 27/11/27
f 45/50/45 51/47/51 19/4/19 20/6/20
f 51/47/51 37/46/37 16/1/16 19/4/19
f 17/10/17 25/13/25 10/169/10 7/168/7
f 25/13/25 26/15/26 9/310/9 10/169/10
f 26/311/26 32/312/32 8/163/8 9/165/9
f 32/312/32 18/313/18 6/164/6 8/163/8
f 174/314/174 177/315/177 185/316/185 183/317/183
f 177/315/177 176/318/176 186/319/186 185/316/185
f 176/320/176 175/321/175 187/322/187 186/323/186
f 175/321/175 173/324/173 184/325/184 187/322/187
f 173/324/173 175/321/175 180/326/180 178/327/178
f 175/328/175 176/318/176 181/329/181 180/330/180
f 176/318/176 177/315/177 182/331/182 181/329/181
f 177/315/177 174/314/174 179/332/179 182/331/182
f 341/333/341 344/334/344 337/335/337 335/336/335
f 344/334/344 343/337/343 338/338/338 337/335/337
f 343/339/343 342/340/342 339/341/339 338/342/338
f 342/340/342 340/343/340 336/344/336 339/341/339
f 340/345/340 342/346/342 332/347/332 330/348/330
f 342/346/342 343/349/343 333/350/333 332/347/332
f 343/337/343 344/334/344 334/351/334 333/352/333
f 344/334/344 341/333/341 331/353/331 334/351/334
f 335/336/335 337/335/337 322/137/322 312/136/312
f 337/335/337 338/338/338 315/142/315 322/137/322
f 338/342/338 339/341/339 314/130/314 315/132/315
f 339/341/339 336/344/336 311/127/311 314/130/314
f 330/348/330 332/347/332 308/354/308 306/355/306
f 332/347/332 333/350/333 309/356/309 308/354/308
f 333/352/333 334/351/334 310/357/310 309/358/309
f 334/351/334 331/353/331 307/359/307 310/357/310
f 312/136/312 320/139/320 303/360/303 301/361/301
f 320/139/320 321/141/321 304/362/304 303/360/303
f 321/150/321 327/147/327 305/363/305 304/364/304
f 327/147/327 313/146/313 302/365/302 305/363/305
f 306/355/306 308/354/308 288/366/288 286/367/286
f 308/354/308 309/356/309 289/368/289 288/366/288
f 309/358/309 310/357/310 290/369/290 289/370/289
f 310/357/310 307/359/307 287/371/287 290/369/290
f 301/361/301 303/360/303 298/372/298 296/373/296
f 303/360/303 304/362/304 299/374/299 298/372/298
f 304/362/304 305/375/305 300/376/300 299/374/299
f 305/377/305 302/378/302 297/379/297 300/380/300
f 296/373/296 298/372/298 293/381/293 291/382/291
f 298/372/298 299/374/299 294/383/294 293/381/293
f 299/384/299 300/380/300 295/385/295 294/386/294
f 300/380/300 297/379/297 292/387/292 295/385/295
f 291/382/291 293/381/293 283/388/283 281/389/281
f 293/381/293 294/383/294 284/390/284 283/388/283
f 294/386/294 295/385/295 285/391/285 284/392/284
f 295/385/295 292/387/292 282/393/282 285/391/285
f 286/367/286 288/366/288 273/394/273 271/395/271
f 288/366/288 289/368/289 274/396/274 273/394/273
f 289/370/289 290/369/290 275/397/275 274/398/274
f 290/369/290 287/371/287 272/399/272 275/397/275
f 281/389/281 283/388/283 278/400/278 276/401/276
f 283/388/283 284/390/284 279/402/279 278/400/278
f 284/392/284 285/391/285 280/403/280 279/404/279
f 285/391/285 282/393/282 277/405/277 280/403/280
f 276/401/276 278/400/278 263/406/263 261/407/261
f 278/400/278 279/402/279 264/408/264 263/406/263
f 279/409/279 280/410/280 265/411/265 264/412/264
f 280/410/280 277/413/277 262/414/262 265/411/265
f 271/415/271 273/416/273 268/417/268 266/418/266
f 273/416/273 274/419/274 269/420/269 268/417/268
f 274/398/274 275/397/275 270/421/270 269/422/269
f 275/397/275 272/399/272 267/423/267 270/421/270
f 266/418/266 268/417/268 253/424/253 251/425/251
f 268/417/268 269/420/269 254/426/254 253/424/253
f 269/422/269 270/421/270 255/427/255 254/428/254
f 270/421/270 267/423/267 252/429/252 255/427/255
f 261/407/261 263/406/263 258/430/258 256/431/256
f 263/406/263 264/408/264 259/432/259 258/430/258
f 264/412/264 265/411/265 260/433/260 259/434/259
f 265/411/265 262/414/262 257/435/257 260/433/260
f 256/431/256 258/430/258 243/436/243 241/437/241
f 258/430/258 259/432/259 244/438/244 243/436/243
f 259/434/259 260/433/260 245/439/245 244/440/244
f 260/433/260 257/435/257 242/441/242 245/439/245
f 251/425/251 253/424/253 248/442/248 246/443/246
f 253/424/253 254/426/254 249/444/249 248/442/248
f 254/428/254 255/427/255 250/445/250 249/446/249
f 255/427/255 252/429/252 247/447/247 250/445/250
f 246/443/246 248/442/248 238/448/238 236/449/236
f 248/442/248 249/444/249 239/450/239 238/448/238
f 249/446/249 250/445/250 240/451/240 239/452/239
f 250/445/250 247/447/247 237/453/237 240/451/240
f 241/437/241 243/436/243 233/454/233 231/455/231
f 243/436/243 244/438/244 234/456/234 233/454/233
f 244/440/244 245/439/245 235/457/235 234/458/234
f 245/439/245 242/441/242 232/459/232 235/457/235
f 236/460/236 238/461/238 212/101/212 207/100/207
f 238/461/238 239/462/239 222/108/222 212/101/212
f 239/452/239 240/451/240 221/121/221 222/123/222
f 240/451/240 237/453/237 209/118/209 221/121/221
f 231/455/231 233/454/233 228/463/228 226/464/226
f 233/454/233 234/456/234 229/465/229 228/463/228
f 234/458/234 235/457/235 230/466/230 229/467/229
f 235/457/235 232/459/232 227/468/227 230/466/230
f 226/464/226 228/463/228 187/322/187 184/325/184
f 228/463/228 229/465/229 186/323/186 187/322/187
f 229/469/229 230/470/230 185/316/185 186/319/186
f 230/470/230 227/471/227 183/317/183 185/316/185
f 208/112/208 216/115/216 193/77/193 188/76/188
f 216/115/216 217/117/217 203/82/203 193/77/193
f 217/124/217 223/119/223 202/94/202 203/96/203
f 223/119/223 209/118/209 190/91/190 202/94/202
f 189/472/189 197/473/197 182/331/182 179/332/179
f 197/473/197 198/474/198 181/329/181 182/331/182
f 198/97/198 204/92/204 180/326/180 181/475/181
f 204/92/204 190/91/190 178/327/178 180/326/180
f 18/20/18 30/23/30 199/86/199 189/85/189
f 30/23/30 31/7/31 192/81/192 199/86/199
f 31/7/31 21/2/21 191/79/191 192/81/192
f 21/2/21 16/1/16 188/76/188 191/79/191
f 37/46/37 49/49/49 218/113/218 208/112/208
f 49/49/49 50/34/50 211/107/211 218/113/218
f 50/34/50 40/33/40 210/104/210 211/107/211
f 40/26/40 35/25/35 207/100/207 210/103/210
f 139/52/139 142/55/142 316/128/316 311/127/311
f 142/55/142 143/57/143 326/133/326 316/128/316
f 143/57/143 150/62/150 325/149/325 326/133/326
f 150/62/150 140/61/140 313/146/313 325/149/325
f 1/161/1 174/314/174 183/317/183 12/162/12
f 2/151/2 11/154/11 7/168/7
f 6/164/6 179/332/179 174/314/174 1/161/1
f 17/10/17 7/168/7 11/154/11
f 18/313/18 189/472/189 179/332/179 6/164/6
f 12/162/12 183/317/183 227/471/227 54/307/54
f 55/306/55 36/37/36 11/154/11
f 36/37/36 17/10/17 11/154/11
f 37/46/37 208/112/208 188/76/188 16/1/16
f 65/300/65 236/460/236 207/100/207 35/25/35
f 64/286/64 36/37/36 60/296/60
f 60/296/60 36/37/36 55/306/55
f 54/302/54 227/468/227 232/459/232 59/292/59
f 59/292/59 232/459/232 242/441/242 69/274/69
f 70/278/70 64/286/64 60/296/60
f 75/284/75 246/443/246 236/449/236 65/290/65
f 74/280/74 64/286/64 70/278/70
f 69/274/69 242/441/242 257/435/257 84/268/84
f 85/272/85 79/262/79 70/278/70
f 79/262/79 74/280/74 70/278/70
f 80/266/80 251/425/251 246/443/246 75/284/75
f 95/260/95 266/418/266 251/425/251 80/266/80
f 94/256/94 79/262/79 90/254/90
f 90/254/90 79/262/79 85/272/85
f 84/268/84 257/435/257 262/414/262 89/249/89
f 89/249/89 262/414/262 277/413/277 104/246/104
f 105/245/105 99/232/99 90/254/90
f 99/232/99 94/256/94 90/254/90
f 100/239/100 271/415/271 266/418/266 95/260/95
f 115/238/115 286/476/286 271/415/271 100/239/100
f 114/204/114 99/232/99 110/230/110
f 110/230/110 99/232/99 105/245/105
f 104/241/104 277/405/277 282/393/282 109/226/109
f 109/226/109 282/393/282 292/387/292 119/219/119
f 120/224/120 114/204/114 110/230/110
f 135/196/135 306/355/306 286/367/286 115/208/115
f 134/192/134 114/204/114 130/202/130
f 130/202/130 114/204/114 125/217/125
f 125/217/125 114/204/114 120/224/120
f 119/219/119 292/387/292 297/379/297 124/212/124
f 124/212/124 297/379/297 302/378/302 129/209/129
f 129/198/129 302/365/302 313/146/313 140/61/140
f 141/67/141 134/192/134 130/202/130
f 159/190/159 330/348/330 306/355/306 135/196/135
f 158/183/158 134/192/134 141/67/141
f 139/52/139 311/127/311 336/344/336 163/173/163
f 164/181/164 158/183/158 141/67/141
f 169/189/169 340/345/340 330/348/330 159/190/159
f 168/180/168 158/183/158 164/181/164
f 163/173/163 336/344/336 340/343/340 169/170/169
f 173/324/173 178/327/178 184/325/184
f 190/91/190 184/325/184 178/327/178
f 226/464/226 184/325/184 209/118/209
f 209/118/209 184/325/184 190/91/190
f 237/453/237 231/455/231 209/118/209
f 231/455/231 226/464/226 209/118/209
f 241/437/241 231/455/231 237/453/237
f 247/447/247 241/437/241 237/453/237
f 256/431/256 241/437/241 252/429/252
f 252/429/252 241/437/241 247/447/247
f 267/423/267 261/407/261 252/429/252
f 261/407/261 256/431/256 252/429/252
f 276/401/276 261/407/261 272/399/272
f 272/399/272 261/407/261 267/423/267
f 287/371/287 281/389/281 272/399/272
f 281/389/281 276/401/276 272/399/272
f 291/382/291 281/389/281 287/371/287
f 307/359/307 301/361/301 287/371/287
f 301/361/301 296/373/296 287/371/287
f 296/373/296 291/382/291 287/371/287
f 312/136/312 301/361/301 307/359/307
f 331/353/331 312/136/312 307/359/307
f 335/336/335 312/136/312 331/353/331
f 341/333/341 335/336/335 331/353/331
