# Blender 5.2.1 LTS
# www.blender.org
o sofa_2
v -36.180164 13.398920 0.238109
v -36.261822 13.211958 -0.000001
v -36.211414 13.384688 0.146988
v -36.237904 13.344160 0.069740
v -36.255608 13.283505 0.018124
v -33.427631 13.211959 16.371298
v -33.268867 13.398921 16.539988
v -33.415550 13.283506 16.384134
v -33.381134 13.344161 16.420698
v -33.329628 13.384689 16.475428
v -33.258869 13.211958 1.281267
v -33.324772 13.398920 1.456418
v -33.263885 13.283505 1.294600
v -33.278172 13.344160 1.332568
v -33.299553 13.384688 1.389391
v -33.802097 13.398921 15.282406
v -33.750439 13.211959 15.603359
v -33.782326 13.384689 15.405233
v -33.765572 13.344161 15.509351
v -33.754372 13.283506 15.578931
v -35.843014 13.398921 13.403602
v -35.834339 13.211959 13.681170
v -35.839695 13.384689 13.509823
v -35.836880 13.344161 13.599874
v -35.834999 13.283506 13.660041
v -37.825569 13.398921 11.868492
v -37.953522 13.211959 12.038859
v -37.874535 13.384689 11.933688
v -37.916046 13.344161 11.988959
v -37.943783 13.283506 12.025890
v -37.055122 13.211958 0.133191
v -36.736958 13.211958 -0.000001
v -36.944458 13.398920 0.240155
v -36.990685 13.211958 0.082221
v -36.907593 13.211958 0.039010
v -37.046513 13.283505 0.141142
v -36.978806 13.280985 0.093919
v -36.914330 13.279221 0.053618
v -36.919842 13.319480 0.074662
v -36.776756 13.283505 0.018280
v -36.830166 13.344160 0.070339
v -36.818497 13.211958 0.010138
v -36.848427 13.280985 0.034863
v -36.880917 13.336253 0.067786
v -36.986622 13.384688 0.199031
v -37.022457 13.344160 0.164263
v -36.889053 13.384688 0.148251
v -36.929943 13.364002 0.126646
v -36.964352 13.336252 0.108309
v -37.816509 13.211958 0.906118
v -37.819336 13.398920 1.135689
v -37.816723 13.283505 0.923588
v -37.817337 13.344160 0.973352
v -37.818253 13.384688 1.047825
v -38.194599 13.211958 2.010396
v -37.964622 13.398920 1.573718
v -38.177101 13.283505 1.977169
v -38.127251 13.344160 1.882509
v -38.052635 13.384688 1.740837
v -38.348099 13.398921 10.718292
v -38.535061 13.211959 10.758769
v -38.419651 13.384689 10.733783
v -38.480305 13.344161 10.746915
v -38.520836 13.283506 10.755689
v -38.348099 13.398920 5.546842
v -38.535061 13.211958 5.537852
v -38.419651 13.384688 5.543401
v -38.480305 13.344160 5.540485
v -38.520836 13.283505 5.538536
v 0.000000 13.211959 17.704308
v -0.186962 13.398921 17.714666
v -0.014232 13.283506 17.705095
v -0.054760 13.344161 17.707342
v -0.115415 13.384689 17.710703
v 0.000000 13.211960 21.419338
v -0.186962 13.398922 21.402950
v -0.014232 13.283507 21.418091
v -0.054760 13.344162 21.414537
v -0.115415 13.384690 21.409222
v -0.528586 13.398921 14.641226
v -0.343396 13.211959 14.614919
v -0.457717 13.384689 14.631159
v -0.397637 13.344161 14.622623
v -0.357493 13.283506 14.616921
v -0.658069 13.211960 24.451508
v -0.686733 13.398922 24.231939
v -0.481981 13.211960 24.147627
v -0.646287 13.283507 24.423141
v -0.647597 13.344162 24.371454
v -0.600654 13.211960 24.391657
v -0.598415 13.280987 24.364346
v -0.599691 13.336255 24.333174
v -0.569022 13.319484 24.300150
v -0.611542 13.384690 24.217583
v -0.546226 13.344162 24.196520
v -0.661800 13.384690 24.304312
v -0.604120 13.364004 24.279810
v -0.555619 13.336254 24.257118
v -0.505356 13.211960 24.227198
v -0.547028 13.211960 24.312891
v -0.500731 13.283507 24.171953
v -0.527940 13.280987 24.242725
v -0.555655 13.279222 24.307894
v -0.810862 13.211959 11.916559
v -1.030106 13.398921 11.746293
v -0.827551 13.283506 11.903599
v -0.875077 13.344161 11.866691
v -0.946205 13.384689 11.811452
v -2.182172 13.398922 25.479528
v -2.100362 13.211960 25.654758
v -2.150864 13.384690 25.546587
v -2.124323 13.344162 25.603436
v -2.106589 13.283507 25.641420
v -1.550394 13.211959 10.725316
v -1.292389 13.211959 10.961010
v -1.388019 13.398921 11.030021
v -1.477453 13.211959 10.764329
v -1.402807 13.211959 10.822821
v -1.507191 13.283506 10.760703
v -1.449291 13.280986 10.800230
v -1.396341 13.279222 10.840346
v -1.392221 13.319481 10.863576
v -1.297820 13.283506 10.969930
v -1.317901 13.344161 10.986177
v -1.337822 13.211959 10.891886
v -1.347786 13.280986 10.901046
v -1.359272 13.336254 10.911585
v -1.419314 13.384689 10.925608
v -1.461162 13.344161 10.831037
v -1.349574 13.384689 11.007278
v -1.387160 13.364003 10.918162
v -1.421652 13.336253 10.844489
v -2.982961 13.211959 10.158999
v -3.156163 13.398921 10.329527
v -2.996146 13.283506 10.171981
v -3.033691 13.344161 10.208946
v -3.089883 13.384689 10.264270
v -5.143035 13.398922 26.013165
v -5.134480 13.211960 26.201597
v -5.139761 13.384690 26.085276
v -5.136986 13.344162 26.146408
v -5.135131 13.283507 26.187254
v -8.780713 13.211959 9.577461
v -8.790065 13.398921 9.764423
v -8.781425 13.283506 9.591693
v -8.783452 13.344161 9.632221
v -8.786486 13.384689 9.692876
v -31.314920 13.211960 30.405859
v -31.044226 13.398922 30.533615
v -31.294312 13.283507 30.415585
v -31.235634 13.344162 30.443279
v -31.147812 13.384690 30.484726
v -34.398273 13.398922 23.628330
v -34.587181 13.211960 23.720798
v -34.470570 13.384690 23.663717
v -34.531857 13.344162 23.693718
v -34.572803 13.283507 23.713760
v -33.669300 13.211959 17.669025
v -33.493538 13.398921 17.746431
v -33.655926 13.283506 17.674917
v -33.617828 13.344161 17.691694
v -33.560806 13.384689 17.716806
v -34.634800 13.211960 18.950888
v -34.494770 13.398922 19.075733
v -34.624142 13.283507 18.960392
v -34.593784 13.344162 18.987453
v -34.548355 13.384690 19.027958
v -35.697796 13.398922 20.971361
v -35.819641 13.211960 21.202957
v -35.744427 13.384690 21.059994
v -35.783958 13.344162 21.135132
v -35.810371 13.283507 21.185335
v -35.826420 13.211960 20.083363
v -35.791725 13.398922 20.308317
v -35.935360 13.211960 20.397223
v -35.838203 13.283507 20.114193
v -35.835747 13.344162 20.167772
v -35.876259 13.211960 20.146740
v -35.877228 13.280987 20.175379
v -35.874451 13.336255 20.208261
v -35.896229 13.319484 20.243259
v -35.848434 13.384690 20.330172
v -35.895649 13.344162 20.354744
v -35.819427 13.384690 20.235937
v -35.863728 13.364004 20.264277
v -35.900543 13.336254 20.289434
v -35.935215 13.211960 20.316599
v -35.914463 13.211960 20.228642
v -35.926170 13.283507 20.378288
v -35.919891 13.280987 20.303089
v -35.908745 13.279222 20.234549
v -13.027890 13.211960 25.508339
v -13.019698 13.398922 25.321377
v -13.027267 13.283507 25.494108
v -13.025491 13.344162 25.453579
v -13.022833 13.384690 25.392923
v -16.831045 13.398921 9.764423
v -16.808781 13.211959 9.577461
v -16.822525 13.384689 9.692876
v -16.815302 13.344161 9.632221
v -16.810476 13.283506 9.591693
v -18.760960 13.211960 25.508339
v -18.807085 13.398922 25.321377
v -18.764471 13.283507 25.494108
v -18.774469 13.344162 25.453577
v -18.789434 13.384690 25.392923
v -19.063641 13.398921 9.227849
v -19.019100 13.211959 9.043551
v -19.046597 13.384689 9.157321
v -19.032146 13.344161 9.097530
v -19.022491 13.283506 9.057580
v -29.730240 13.211960 31.271399
v -29.712761 13.398922 31.051020
v -29.728909 13.283507 31.254623
v -29.725121 13.344162 31.206852
v -29.719450 13.384690 31.135355
v -21.448526 13.398921 8.651311
v -21.382879 13.211959 8.472008
v -21.423405 13.384689 8.582696
v -21.402107 13.344161 8.524526
v -21.387877 13.283506 8.485658
v -27.989731 13.211958 4.725813
v -28.003439 13.398920 4.934879
v -27.990774 13.283505 4.741728
v -27.993746 13.344160 4.787048
v -27.998194 13.384688 4.854874
v -30.722153 13.211960 31.126970
v -30.623062 13.398922 31.049683
v -30.416468 13.211960 31.271399
v -30.714180 13.283507 31.121613
v -30.692549 13.344162 31.105043
v -30.662485 13.211960 31.182241
v -30.651413 13.280987 31.173311
v -30.638474 13.336255 31.162548
v -30.596590 13.319484 31.197083
v -30.570322 13.384690 31.134527
v -30.512541 13.344162 31.206457
v -30.660551 13.384690 31.079784
v -30.607136 13.364004 31.149664
v -30.560287 13.336254 31.206308
v -30.497051 13.211960 31.260405
v -30.583441 13.211960 31.229097
v -30.458513 13.283507 31.254520
v -30.527727 13.280987 31.237207
v -30.590862 13.279222 31.216547
v -36.261822 0.186962 0.000000
v -36.180164 0.000000 0.238111
v -36.255608 0.115415 0.018125
v -36.237904 0.054760 0.069742
v -36.211414 0.014232 0.146989
v -33.268867 -0.000002 16.539988
v -33.427631 0.186962 16.371300
v -33.329628 0.014230 16.475430
v -33.381134 0.054759 16.420700
v -33.415550 0.115414 16.384136
v -33.324772 0.000000 1.456420
v -33.258869 0.186962 1.281269
v -33.299553 0.014232 1.389392
v -33.278172 0.054760 1.332570
v -33.263885 0.115415 1.294601
v -33.750439 0.186963 15.603360
v -33.802097 0.000001 15.282407
v -33.754372 0.115416 15.578932
v -33.765572 0.054761 15.509352
v -33.782326 0.014233 15.405234
v -35.834339 0.186963 13.681170
v -35.843014 0.000001 13.403603
v -35.834999 0.115416 13.660042
v -35.836880 0.054761 13.599874
v -35.839695 0.014233 13.509824
v -37.953522 0.186963 12.038861
v -37.825569 0.000001 11.868494
v -37.943783 0.115416 12.025893
v -37.916046 0.054761 11.988963
v -37.874535 0.014233 11.933691
v -37.055122 0.186962 0.133193
v -36.944458 0.000000 0.240156
v -36.736958 0.186962 0.000000
v -37.046513 0.115415 0.141144
v -37.022457 0.054760 0.164265
v -36.990685 0.186962 0.082222
v -36.978806 0.117935 0.093921
v -36.964352 0.062667 0.108310
v -36.919842 0.079440 0.074663
v -36.889057 0.014232 0.148252
v -36.830166 0.054760 0.070340
v -36.986622 0.014232 0.199032
v -36.929943 0.034917 0.126648
v -36.880920 0.062667 0.067788
v -36.818497 0.186962 0.010139
v -36.907593 0.186962 0.039011
v -36.776756 0.115415 0.018281
v -36.848427 0.117935 0.034864
v -36.914330 0.119699 0.053620
v -37.819336 0.000000 1.135689
v -37.816509 0.186962 0.906119
v -37.818253 0.014232 1.047826
v -37.817337 0.054760 0.973353
v -37.816723 0.115415 0.923589
v -37.964622 0.000000 1.573719
v -38.194599 0.186962 2.010396
v -38.052635 0.014232 1.740837
v -38.127251 0.054760 1.882509
v -38.177101 0.115415 1.977168
v -38.535061 0.186963 10.758769
v -38.348099 0.000001 10.718293
v -38.520836 0.115416 10.755689
v -38.480305 0.054761 10.746915
v -38.419651 0.014232 10.733784
v -38.535061 0.186963 5.537853
v -38.348099 0.000000 5.546843
v -38.520836 0.115415 5.538537
v -38.480305 0.054760 5.540486
v -38.419651 0.014232 5.543402
v -0.186962 0.000000 17.714668
v 0.000000 0.186964 17.704309
v -0.115415 0.014232 17.710705
v -0.054760 0.054761 17.707344
v -0.014232 0.115416 17.705097
v -0.186962 0.000002 21.402952
v 0.000000 0.186964 21.419340
v -0.115415 0.014233 21.409224
v -0.054760 0.054762 21.414539
v -0.014232 0.115417 21.418093
v -0.343396 0.186962 14.614920
v -0.528586 0.000000 14.641227
v -0.357493 0.115414 14.616922
v -0.397637 0.054759 14.622624
v -0.457717 0.014231 14.631160
v -0.658070 0.186964 24.451508
v -0.481981 0.186964 24.147627
v -0.686733 0.000002 24.231939
v -0.600654 0.186964 24.391661
v -0.547029 0.186964 24.312895
v -0.646286 0.115417 24.423145
v -0.598415 0.117937 24.364347
v -0.555655 0.119701 24.307896
v -0.569022 0.079442 24.300152
v -0.500731 0.115417 24.171953
v -0.546226 0.054762 24.196520
v -0.505356 0.186964 24.227201
v -0.527940 0.117937 24.242725
v -0.555619 0.062669 24.257118
v -0.661799 0.014234 24.304316
v -0.647596 0.054762 24.371458
v -0.611542 0.014233 24.217583
v -0.604120 0.034919 24.279812
v -0.599691 0.062669 24.333176
v -1.030107 0.000001 11.746298
v -0.810862 0.186963 11.916565
v -0.946205 0.014232 11.811457
v -0.875077 0.054761 11.866694
v -0.827551 0.115416 11.903605
v -2.100362 0.186964 25.654760
v -2.182172 0.000002 25.479530
v -2.106589 0.115417 25.641422
v -2.124323 0.054762 25.603437
v -2.150864 0.014234 25.546589
v -1.550395 0.186963 10.725318
v -1.388019 0.000001 11.030023
v -1.292389 0.186963 10.961013
v -1.507192 0.115416 10.760705
v -1.461162 0.054761 10.831038
v -1.477453 0.186963 10.764330
v -1.449291 0.117936 10.800231
v -1.421652 0.062668 10.844490
v -1.392221 0.079441 10.863577
v -1.349575 0.014232 11.007280
v -1.317901 0.054761 10.986180
v -1.419315 0.014232 10.925610
v -1.387161 0.034918 10.918163
v -1.359272 0.062668 10.911587
v -1.337821 0.186963 10.891888
v -1.402807 0.186963 10.822822
v -1.297820 0.115416 10.969933
v -1.347786 0.117936 10.901048
v -1.396341 0.119700 10.840347
v -3.156163 0.000001 10.329527
v -2.982961 0.186963 10.158999
v -3.089881 0.014232 10.264268
v -3.033690 0.054761 10.208944
v -2.996145 0.115416 10.171980
v -5.134480 0.186964 26.201599
v -5.143035 0.000002 26.013166
v -5.135131 0.115417 26.187256
v -5.136986 0.054762 26.146410
v -5.139761 0.014234 26.085278
v -8.790065 0.000001 9.764423
v -8.780713 0.186963 9.577461
v -8.786486 0.014232 9.692876
v -8.783452 0.054761 9.632221
v -8.781425 0.115416 9.591693
v -31.044226 0.000002 30.533617
v -31.314920 0.186965 30.405861
v -31.147812 0.014234 30.484728
v -31.235634 0.054762 30.443281
v -31.294312 0.115417 30.415586
v -34.587181 0.186964 23.720802
v -34.398273 0.000002 23.628334
v -34.572803 0.115417 23.713764
v -34.531857 0.054762 23.693722
v -34.470570 0.014233 23.663721
v -33.493538 0.000002 17.746349
v -33.669300 0.186964 17.668949
v -33.560802 0.014233 17.716728
v -33.617825 0.054762 17.691616
v -33.655922 0.115416 17.674839
v -34.494766 0.000001 19.075735
v -34.634800 0.186964 18.950891
v -34.548351 0.014233 19.027962
v -34.593781 0.054761 18.987459
v -34.624138 0.115416 18.960396
v -35.819641 0.186964 21.202963
v -35.697796 0.000002 20.971367
v -35.810371 0.115417 21.185339
v -35.783958 0.054762 21.135138
v -35.744427 0.014233 21.059999
v -35.826420 0.186964 20.083380
v -35.935360 0.186964 20.397240
v -35.791725 0.000002 20.308336
v -35.877502 0.186964 20.140640
v -35.916145 0.186964 20.220394
v -35.822536 0.115416 20.106619
v -35.874435 0.113623 20.168343
v -35.905979 0.117345 20.232712
v -35.891716 0.079021 20.244389
v -35.923183 0.115416 20.396587
v -35.891613 0.054762 20.379463
v -35.936462 0.186964 20.310501
v -35.922340 0.113623 20.306358
v -35.896130 0.064269 20.296574
v -35.803761 0.014233 20.228365
v -35.814579 0.054762 20.157530
v -35.845451 0.014233 20.348473
v -35.859180 0.031409 20.267265
v -35.865204 0.064269 20.207474
v -13.019698 0.000002 25.321379
v -13.027890 0.186964 25.508341
v -13.022833 0.014234 25.392925
v -13.025491 0.054762 25.453581
v -13.027267 0.115417 25.494110
v -16.808781 0.186963 9.577462
v -16.831045 0.000001 9.764424
v -16.810476 0.115416 9.591694
v -16.815302 0.054761 9.632222
v -16.822525 0.014233 9.692877
v -18.807085 0.000002 25.321379
v -18.760960 0.186964 25.508341
v -18.789434 0.014234 25.392925
v -18.774469 0.054762 25.453579
v -18.764471 0.115417 25.494110
v -19.019100 0.186961 9.043552
v -19.063641 -0.000001 9.227850
v -19.022491 0.115414 9.057581
v -19.032146 0.054759 9.097531
v -19.046597 0.014230 9.157322
v -29.712761 0.000002 31.051022
v -29.730240 0.186965 31.271400
v -29.719450 0.014234 31.135357
v -29.725121 0.054762 31.206854
v -29.728909 0.115417 31.254625
v -21.382879 0.186963 8.472010
v -21.448526 0.000001 8.651313
v -21.387877 0.115416 8.485657
v -21.402107 0.054761 8.524526
v -21.423405 0.014232 8.582695
v -28.003439 0.000000 4.934881
v -27.989731 0.186963 4.725815
v -27.998194 0.014232 4.854876
v -27.993746 0.054760 4.787049
v -27.990774 0.115415 4.741730
v -30.722153 0.186965 31.126972
v -30.416468 0.186965 31.271400
v -30.623062 0.000002 31.049685
v -30.662485 0.186965 31.182243
v -30.583441 0.186965 31.229099
v -30.714180 0.115417 31.121614
v -30.651413 0.117938 31.173315
v -30.590862 0.119702 31.216549
v -30.596590 0.079443 31.197084
v -30.458513 0.115417 31.254522
v -30.512541 0.054762 31.206459
v -30.497051 0.186965 31.260406
v -30.527727 0.117938 31.237209
v -30.560287 0.062670 31.206310
v -30.660551 0.014234 31.079786
v -30.692549 0.054762 31.105045
v -30.570322 0.014234 31.134529
v -30.607136 0.034920 31.149666
v -30.638474 0.062670 31.162550
vn 0.0280 0.9949 -0.0966
vn 0.1913 0.1128 -0.9750
vn 0.0895 0.9305 -0.3551
vn 0.1445 0.7411 -0.6557
vn 0.1756 0.4229 -0.8890
vn -0.9897 0.0705 0.1247
vn -0.0915 0.9958 -0.0023
vn -0.9501 0.2785 0.1402
vn -0.8068 0.5770 0.1270
vn -0.4634 0.8837 0.0651
vn 0.4688 0.0968 -0.8780
vn 0.0499 0.9945 -0.0916
vn 0.4361 0.3766 -0.8173
vn 0.3375 0.6991 -0.6303
vn 0.1872 0.9189 -0.3472
vn -0.0656 0.9960 0.0601
vn -0.8283 0.0696 0.5559
vn -0.3858 0.8842 0.2633
vn -0.6853 0.5741 0.4481
vn -0.8071 0.2706 0.5248
vn -0.0537 0.9964 0.0661
vn -0.6441 0.1079 0.7573
vn -0.2222 0.9378 0.2667
vn -0.4332 0.7412 0.5127
vn -0.5903 0.4138 0.6930
vn -0.0848 0.9946 0.0604
vn -0.7776 0.1063 0.6198
vn -0.3042 0.9251 0.2274
vn -0.5451 0.7236 0.4235
vn -0.7162 0.4023 0.5703
vn -0.6592 0.0901 -0.7465
vn -0.0604 0.1177 -0.9912
vn -0.0761 0.9883 -0.1322
vn -0.5417 0.0948 -0.8352
vn -0.3837 0.0947 -0.9186
vn -0.6247 0.3195 -0.7125
vn -0.5307 0.2867 -0.7976
vn -0.3850 0.2769 -0.8804
vn -0.3757 0.4925 -0.7851
vn -0.0798 0.4248 -0.9018
vn -0.0699 0.7453 -0.6630
vn -0.2165 0.1018 -0.9710
vn -0.2200 0.3396 -0.9145
vn -0.2128 0.6413 -0.7372
vn -0.2857 0.8904 -0.3543
vn -0.5099 0.6346 -0.5808
vn -0.0736 0.9380 -0.3387
vn -0.2474 0.8284 -0.5025
vn -0.4458 0.5822 -0.6799
vn -0.8414 0.0646 -0.5366
vn -0.2143 0.9730 -0.0854
vn -0.8094 0.2708 -0.5212
vn -0.7201 0.5434 -0.4315
vn -0.5275 0.8065 -0.2669
vn -0.9779 0.0774 -0.1944
vn -0.2170 0.9737 -0.0698
vn -0.9294 0.3172 -0.1885
vn -0.7920 0.5814 -0.1862
vn -0.5546 0.8176 -0.1550
vn -0.1062 0.9941 0.0230
vn -0.9726 0.0989 0.2106
vn -0.3887 0.9175 0.0842
vn -0.6964 0.7016 0.1508
vn -0.9039 0.3803 0.1957
vn -0.1008 0.9949 -0.0049
vn -0.9941 0.0978 -0.0479
vn -0.3869 0.9219 -0.0186
vn -0.7089 0.7045 -0.0341
vn -0.9235 0.3809 -0.0445
vn 0.9937 0.0978 -0.0551
vn 0.1011 0.9949 -0.0056
vn 0.9233 0.3807 -0.0512
vn 0.7089 0.7042 -0.0393
vn 0.3875 0.9216 -0.0215
vn 0.9914 0.0979 0.0869
vn 0.1026 0.9947 0.0090
vn 0.9214 0.3800 0.0808
vn 0.7085 0.7030 0.0621
vn 0.3892 0.9205 0.0341
vn 0.0989 0.9950 -0.0140
vn 0.9853 0.0979 -0.1400
vn 0.3819 0.9226 -0.0543
vn 0.7018 0.7054 -0.0997
vn 0.9152 0.3815 -0.1300
vn 0.6801 0.0958 0.7268
vn 0.1290 0.9888 0.0748
vn 0.9688 0.0958 0.2287
vn 0.6494 0.3576 0.6711
vn 0.5122 0.6794 0.5254
vn 0.7739 0.0898 0.6269
vn 0.7447 0.2938 0.5992
vn 0.6327 0.5986 0.4913
vn 0.7621 0.4734 0.4416
vn 0.3841 0.9150 0.1236
vn 0.7106 0.6794 0.1831
vn 0.2983 0.9150 0.2718
vn 0.4913 0.8232 0.2847
vn 0.7409 0.5986 0.3047
vn 0.9287 0.0898 0.3597
vn 0.8620 0.0867 0.4995
vn 0.9052 0.3576 0.2297
vn 0.8902 0.2938 0.3481
vn 0.8363 0.2564 0.4846
vn 0.9495 0.0831 -0.3025
vn 0.1389 0.9884 -0.0620
vn 0.8982 0.3349 -0.2847
vn 0.7309 0.6345 -0.2513
vn 0.4505 0.8753 -0.1758
vn 0.0466 0.9939 0.0999
vn 0.4209 0.0997 0.9016
vn 0.1688 0.9170 0.3614
vn 0.3011 0.7024 0.6449
vn 0.3910 0.3817 0.8375
vn 0.4146 0.1068 -0.9037
vn 0.8596 0.0720 -0.5059
vn 0.1495 0.9818 -0.1174
vn 0.5458 0.0818 -0.8339
vn 0.6726 0.0752 -0.7362
vn 0.4100 0.3932 -0.8230
vn 0.5446 0.2903 -0.7868
vn 0.6744 0.2249 -0.7032
vn 0.6601 0.4130 -0.6274
vn 0.8338 0.2527 -0.4908
vn 0.7269 0.5392 -0.4253
vn 0.7838 0.0770 -0.6163
vn 0.7749 0.2288 -0.5892
vn 0.6923 0.4946 -0.5255
vn 0.2234 0.9223 -0.3153
vn 0.3298 0.7106 -0.6215
vn 0.4674 0.8347 -0.2912
vn 0.4750 0.7645 -0.4358
vn 0.5016 0.5793 -0.6425
vn 0.2399 0.1079 -0.9648
vn 0.0183 0.9950 -0.0984
vn 0.2203 0.4102 -0.8850
vn 0.1559 0.7307 -0.6646
vn 0.0775 0.9284 -0.3634
vn 0.0048 0.9944 0.1052
vn 0.0451 0.0981 0.9942
vn 0.0179 0.9192 0.3935
vn 0.0323 0.7018 0.7116
vn 0.0419 0.3796 0.9242
vn 0.0497 0.0978 -0.9940
vn 0.0050 0.9949 -0.1009
vn 0.0462 0.3809 -0.9235
vn 0.0355 0.7044 -0.7089
vn 0.0194 0.9218 -0.3871
vn -0.8427 0.0886 0.5310
vn -0.1119 0.9900 0.0854
vn -0.7917 0.3536 0.4981
vn -0.6299 0.6567 0.4148
vn -0.3764 0.8876 0.2657
vn -0.0806 0.9960 0.0393
vn -0.8930 0.1070 0.4371
vn -0.3197 0.9346 0.1561
vn -0.6081 0.7361 0.2973
vn -0.8191 0.4105 0.4008
vn -0.9104 0.1021 -0.4009
vn -0.0746 0.9967 -0.0329
vn -0.8381 0.4016 -0.3691
vn -0.6252 0.7303 -0.2753
vn -0.3203 0.9368 -0.1411
vn -0.7427 0.0989 -0.6623
vn -0.0691 0.9957 -0.0616
vn -0.6881 0.3874 -0.6136
vn -0.5230 0.7134 -0.4664
vn -0.2783 0.9279 -0.2481
vn -0.1169 0.9928 0.0248
vn -0.9484 0.0976 0.3017
vn -0.4034 0.9092 0.1036
vn -0.6915 0.6931 0.2033
vn -0.8814 0.3798 0.2807
vn -0.7311 0.0930 -0.6760
vn -0.1698 0.9843 -0.0486
vn -0.9943 0.0812 0.0689
vn -0.7086 0.3496 -0.6129
vn -0.5734 0.6679 -0.4744
vn -0.8433 0.0792 -0.5315
vn -0.8271 0.2703 -0.4927
vn -0.7216 0.5744 -0.3865
vn -0.8536 0.4412 -0.2771
vn -0.4681 0.8835 -0.0167
vn -0.7866 0.6168 0.0286
vn -0.3500 0.9069 -0.2345
vn -0.5786 0.7946 -0.1841
vn -0.8263 0.5497 -0.1227
vn -0.9909 0.0761 -0.1109
vn -0.9421 0.0707 -0.3278
vn -0.9509 0.3057 0.0476
vn -0.9612 0.2509 -0.1143
vn -0.9225 0.2251 -0.3135
vn -0.0436 0.0984 0.9942
vn -0.0042 0.9955 0.0951
vn -0.0404 0.3849 0.9221
vn -0.0308 0.7102 0.7034
vn -0.0165 0.9259 0.3774
vn 0.0105 0.9960 -0.0892
vn 0.1176 0.0998 -0.9880
vn 0.0431 0.9303 -0.3644
vn 0.0820 0.7179 -0.6913
vn 0.1087 0.3912 -0.9139
vn 0.2383 0.1024 0.9658
vn 0.0193 0.9967 0.0783
vn 0.2192 0.4030 0.8885
vn 0.1632 0.7319 0.6615
vn 0.0834 0.9375 0.3379
vn 0.0227 0.9953 -0.0943
vn 0.2337 0.0990 -0.9672
vn 0.0890 0.9252 -0.3688
vn 0.1652 0.7106 -0.6839
vn 0.2167 0.3859 -0.8967
vn 0.2332 0.1083 0.9664
vn 0.0308 0.9947 0.0984
vn 0.2147 0.4083 0.8872
vn 0.1712 0.7290 0.6627
vn 0.1023 0.9268 0.3614
vn 0.0320 0.9962 -0.0815
vn 0.3660 0.1009 -0.9251
vn 0.1328 0.9323 -0.3363
vn 0.2543 0.7226 -0.6428
vn 0.3381 0.3954 -0.8540
vn 0.5189 0.0974 -0.8493
vn 0.0494 0.9954 -0.0827
vn 0.4824 0.3814 -0.7886
vn 0.3684 0.7065 -0.6043
vn 0.1973 0.9245 -0.3261
vn -0.7208 0.0744 0.6892
vn -0.1043 0.9826 0.1535
vn -0.0649 0.1068 0.9922
vn -0.6927 0.2676 0.6697
vn -0.5916 0.5633 0.5768
vn -0.5981 0.0774 0.7977
vn -0.5912 0.2385 0.7704
vn -0.5123 0.5197 0.6837
vn -0.4328 0.4363 0.7889
vn -0.0985 0.9222 0.3740
vn -0.0882 0.7114 0.6972
vn -0.3591 0.8513 0.3826
vn -0.3075 0.7836 0.5398
vn -0.2588 0.5928 0.7626
vn -0.2383 0.0852 0.9675
vn -0.4257 0.0753 0.9017
vn -0.0891 0.3934 0.9150
vn -0.2517 0.2956 0.9216
vn -0.4331 0.2322 0.8709
vn 0.1913 -0.1128 -0.9750
vn 0.0280 -0.9949 -0.0965
vn 0.1756 -0.4229 -0.8890
vn 0.1445 -0.7411 -0.6557
vn 0.0895 -0.9305 -0.3551
vn -0.0915 -0.9958 -0.0023
vn -0.9897 -0.0705 0.1247
vn -0.4634 -0.8838 0.0651
vn -0.8068 -0.5770 0.1270
vn -0.9501 -0.2785 0.1402
vn 0.0499 -0.9945 -0.0916
vn 0.4688 -0.0968 -0.8780
vn 0.1872 -0.9189 -0.3472
vn 0.3375 -0.6991 -0.6303
vn 0.4361 -0.3766 -0.8173
vn -0.8283 -0.0696 0.5559
vn -0.0656 -0.9960 0.0601
vn -0.8071 -0.2706 0.5248
vn -0.6853 -0.5741 0.4481
vn -0.3858 -0.8842 0.2633
vn -0.6441 -0.1079 0.7573
vn -0.0537 -0.9964 0.0661
vn -0.5903 -0.4138 0.6930
vn -0.4332 -0.7412 0.5127
vn -0.2222 -0.9378 0.2668
vn -0.7776 -0.1063 0.6198
vn -0.0848 -0.9946 0.0604
vn -0.7162 -0.4023 0.5703
vn -0.5451 -0.7236 0.4235
vn -0.3042 -0.9251 0.2274
vn -0.6592 -0.0901 -0.7465
vn -0.0761 -0.9883 -0.1322
vn -0.0604 -0.1177 -0.9912
vn -0.6247 -0.3195 -0.7125
vn -0.5099 -0.6346 -0.5807
vn -0.5417 -0.0948 -0.8352
vn -0.5307 -0.2867 -0.7976
vn -0.4458 -0.5822 -0.6799
vn -0.3757 -0.4925 -0.7851
vn -0.0736 -0.9380 -0.3387
vn -0.0699 -0.7453 -0.6630
vn -0.2857 -0.8904 -0.3543
vn -0.2474 -0.8284 -0.5025
vn -0.2128 -0.6413 -0.7372
vn -0.2165 -0.1018 -0.9710
vn -0.3837 -0.0947 -0.9186
vn -0.0798 -0.4248 -0.9018
vn -0.2200 -0.3396 -0.9145
vn -0.3850 -0.2769 -0.8804
vn -0.2143 -0.9730 -0.0854
vn -0.8414 -0.0646 -0.5366
vn -0.5275 -0.8065 -0.2669
vn -0.7201 -0.5434 -0.4315
vn -0.8094 -0.2708 -0.5212
vn -0.2170 -0.9737 -0.0698
vn -0.9779 -0.0774 -0.1944
vn -0.5546 -0.8176 -0.1550
vn -0.7920 -0.5814 -0.1862
vn -0.9294 -0.3172 -0.1885
vn -0.9726 -0.0989 0.2106
vn -0.1062 -0.9941 0.0230
vn -0.9039 -0.3803 0.1957
vn -0.6964 -0.7016 0.1508
vn -0.3887 -0.9175 0.0842
vn -0.9941 -0.0978 -0.0479
vn -0.1007 -0.9949 -0.0049
vn -0.9235 -0.3809 -0.0445
vn -0.7089 -0.7045 -0.0341
vn -0.3870 -0.9219 -0.0186
vn 0.1011 -0.9949 -0.0056
vn 0.9937 -0.0978 -0.0551
vn 0.3875 -0.9216 -0.0215
vn 0.7089 -0.7042 -0.0393
vn 0.9233 -0.3807 -0.0512
vn 0.1026 -0.9947 0.0090
vn 0.9914 -0.0979 0.0869
vn 0.3892 -0.9205 0.0341
vn 0.7085 -0.7030 0.0621
vn 0.9214 -0.3800 0.0808
vn 0.9853 -0.0979 -0.1400
vn 0.0989 -0.9950 -0.0140
vn 0.9152 -0.3815 -0.1300
vn 0.7018 -0.7054 -0.0997
vn 0.3819 -0.9226 -0.0543
vn 0.6801 -0.0958 0.7268
vn 0.9688 -0.0958 0.2287
vn 0.1290 -0.9888 0.0748
vn 0.7739 -0.0898 0.6269
vn 0.8620 -0.0867 0.4995
vn 0.6494 -0.3576 0.6712
vn 0.7447 -0.2938 0.5992
vn 0.8363 -0.2564 0.4846
vn 0.7621 -0.4734 0.4416
vn 0.9052 -0.3576 0.2297
vn 0.7106 -0.6794 0.1831
vn 0.9287 -0.0898 0.3597
vn 0.8902 -0.2938 0.3481
vn 0.7409 -0.5986 0.3047
vn 0.2983 -0.9150 0.2718
vn 0.5122 -0.6794 0.5254
vn 0.3841 -0.9150 0.1236
vn 0.4913 -0.8232 0.2847
vn 0.6327 -0.5986 0.4913
vn 0.1389 -0.9884 -0.0620
vn 0.9495 -0.0831 -0.3025
vn 0.4505 -0.8753 -0.1758
vn 0.7309 -0.6345 -0.2513
vn 0.8982 -0.3349 -0.2847
vn 0.4209 -0.0997 0.9016
vn 0.0466 -0.9939 0.0999
vn 0.3910 -0.3817 0.8375
vn 0.3011 -0.7024 0.6449
vn 0.1688 -0.9170 0.3614
vn 0.4146 -0.1068 -0.9037
vn 0.1495 -0.9818 -0.1174
vn 0.8596 -0.0720 -0.5059
vn 0.4100 -0.3932 -0.8230
vn 0.3298 -0.7106 -0.6215
vn 0.5458 -0.0818 -0.8339
vn 0.5446 -0.2903 -0.7868
vn 0.5016 -0.5793 -0.6425
vn 0.6602 -0.4130 -0.6274
vn 0.4674 -0.8347 -0.2912
vn 0.7269 -0.5392 -0.4253
vn 0.2234 -0.9223 -0.3154
vn 0.4750 -0.7645 -0.4358
vn 0.6923 -0.4946 -0.5255
vn 0.7838 -0.0770 -0.6163
vn 0.6726 -0.0752 -0.7362
vn 0.8338 -0.2527 -0.4908
vn 0.7749 -0.2288 -0.5892
vn 0.6744 -0.2249 -0.7032
vn 0.0183 -0.9950 -0.0984
vn 0.2399 -0.1079 -0.9648
vn 0.0775 -0.9284 -0.3634
vn 0.1559 -0.7307 -0.6647
vn 0.2203 -0.4101 -0.8850
vn 0.0451 -0.0981 0.9942
vn 0.0048 -0.9944 0.1052
vn 0.0419 -0.3796 0.9242
vn 0.0323 -0.7018 0.7116
vn 0.0179 -0.9192 0.3935
vn 0.0050 -0.9949 -0.1009
vn 0.0497 -0.0978 -0.9940
vn 0.0194 -0.9218 -0.3871
vn 0.0355 -0.7044 -0.7089
vn 0.0462 -0.3809 -0.9235
vn -0.1119 -0.9900 0.0855
vn -0.8427 -0.0886 0.5310
vn -0.3764 -0.8876 0.2657
vn -0.6299 -0.6567 0.4148
vn -0.7917 -0.3536 0.4981
vn -0.8930 -0.1070 0.4371
vn -0.0806 -0.9960 0.0393
vn -0.8191 -0.4105 0.4008
vn -0.6081 -0.7360 0.2973
vn -0.3197 -0.9346 0.1561
vn -0.0747 -0.9967 -0.0329
vn -0.9104 -0.1021 -0.4009
vn -0.3203 -0.9368 -0.1410
vn -0.6252 -0.7303 -0.2753
vn -0.8381 -0.4016 -0.3691
vn -0.0704 -0.9955 -0.0628
vn -0.7424 -0.1077 -0.6612
vn -0.2812 -0.9264 -0.2504
vn -0.5238 -0.7135 -0.4654
vn -0.6858 -0.3976 -0.6095
vn -0.9484 -0.0982 0.3016
vn -0.1173 -0.9928 0.0249
vn -0.8812 -0.3806 0.2805
vn -0.6915 -0.6932 0.2031
vn -0.4038 -0.9090 0.1035
vn -0.7188 -0.1216 -0.6845
vn -0.9936 -0.0860 0.0731
vn -0.1788 -0.9822 -0.0575
vn -0.8266 -0.1177 -0.5503
vn -0.9386 -0.0947 -0.3318
vn -0.6606 -0.4046 -0.6324
vn -0.7748 -0.3729 -0.5105
vn -0.8989 -0.3055 -0.3143
vn -0.8158 -0.5061 -0.2799
vn -0.9430 -0.3250 0.0718
vn -0.7751 -0.6301 0.0470
vn -0.9903 -0.0889 -0.1072
vn -0.9435 -0.3148 -0.1030
vn -0.8069 -0.5792 -0.1160
vn -0.3380 -0.9052 -0.2578
vn -0.5268 -0.6973 -0.4861
vn -0.4730 -0.8810 -0.0076
vn -0.5735 -0.7947 -0.1989
vn -0.6732 -0.6210 -0.4015
vn -0.0042 -0.9955 0.0951
vn -0.0436 -0.0984 0.9942
vn -0.0165 -0.9259 0.3774
vn -0.0308 -0.7102 0.7034
vn -0.0404 -0.3849 0.9221
vn 0.1176 -0.0998 -0.9880
vn 0.0105 -0.9960 -0.0892
vn 0.1087 -0.3912 -0.9139
vn 0.0820 -0.7179 -0.6913
vn 0.0432 -0.9303 -0.3644
vn 0.0193 -0.9967 0.0783
vn 0.2383 -0.1024 0.9658
vn 0.0834 -0.9375 0.3379
vn 0.1632 -0.7319 0.6616
vn 0.2192 -0.4030 0.8885
vn 0.2337 -0.0990 -0.9672
vn 0.0227 -0.9953 -0.0943
vn 0.2167 -0.3859 -0.8967
vn 0.1652 -0.7106 -0.6839
vn 0.0890 -0.9252 -0.3688
vn 0.0308 -0.9947 0.0984
vn 0.2332 -0.1083 0.9664
vn 0.1023 -0.9268 0.3614
vn 0.1712 -0.7290 0.6627
vn 0.2147 -0.4083 0.8872
vn 0.3660 -0.1009 -0.9251
vn 0.0320 -0.9962 -0.0815
vn 0.3381 -0.3954 -0.8540
vn 0.2543 -0.7226 -0.6427
vn 0.1328 -0.9323 -0.3363
vn 0.0494 -0.9954 -0.0827
vn 0.5189 -0.0974 -0.8493
vn 0.1973 -0.9245 -0.3260
vn 0.3684 -0.7065 -0.6043
vn 0.4824 -0.3814 -0.7886
vn -0.7208 -0.0744 0.6892
vn -0.0649 -0.1068 0.9922
vn -0.1043 -0.9826 0.1535
vn -0.5981 -0.0774 0.7977
vn -0.4257 -0.0753 0.9017
vn -0.6928 -0.2676 0.6697
vn -0.5912 -0.2385 0.7704
vn -0.4331 -0.2322 0.8709
vn -0.4328 -0.4363 0.7889
vn -0.0891 -0.3934 0.9150
vn -0.0882 -0.7114 0.6972
vn -0.2383 -0.0852 0.9675
vn -0.2517 -0.2956 0.9216
vn -0.2588 -0.5928 0.7626
vn -0.3591 -0.8513 0.3826
vn -0.5916 -0.5633 0.5768
vn -0.0985 -0.9222 0.3740
vn -0.3075 -0.7836 0.5398
vn -0.5123 -0.5197 0.6837
vt 0.926480 0.749773
vt 0.926535 0.750827
vt 0.927746 0.750791
vt 0.927675 0.749773
vt 0.928865 0.750765
vt 0.929056 0.749773
vt 0.926682 0.751720
vt 0.927831 0.751605
vt 0.928645 0.751358
vt 0.931540 0.749771
vt 0.930413 0.749772
vt 0.929851 0.750790
vt 0.930896 0.750826
vt 0.929197 0.751605
vt 0.929836 0.751720
vt 0.955062 0.058112
vt 0.956231 0.059175
vt 0.956666 0.058636
vt 0.955783 0.057616
vt 0.957037 0.058178
vt 0.956397 0.057179
vt 0.957191 0.060233
vt 0.957378 0.059503
vt 0.928146 0.752013
vt 0.199115 0.990570
vt 0.199115 0.991734
vt 0.200133 0.991955
vt 0.200171 0.990921
vt 0.200949 0.992157
vt 0.201065 0.991266
vt 0.199115 0.992982
vt 0.200107 0.992905
vt 0.200701 0.992786
vt 0.501811 0.511404
vt 0.500694 0.511544
vt 0.500882 0.512438
vt 0.501800 0.512524
vt 0.501072 0.513190
vt 0.501919 0.513508
vt 0.499688 0.511530
vt 0.500102 0.512330
vt 0.500492 0.512861
vt 0.199115 0.994985
vt 0.200171 0.994571
vt 0.200133 0.993722
vt 0.199115 0.994124
vt 0.201065 0.993808
vt 0.200949 0.993261
vt 0.710353 0.980080
vt 0.711128 0.981135
vt 0.712066 0.981098
vt 0.711399 0.980080
vt 0.712975 0.981072
vt 0.712704 0.980080
vt 0.712367 0.982030
vt 0.712836 0.981913
vt 0.713300 0.981666
vt 0.715289 0.980080
vt 0.714070 0.980080
vt 0.714111 0.981098
vt 0.715361 0.981135
vt 0.714158 0.981913
vt 0.715415 0.982030
vt 0.694723 0.540073
vt 0.694941 0.540687
vt 0.696343 0.540395
vt 0.696327 0.539920
vt 0.697514 0.540098
vt 0.697823 0.539571
vt 0.715443 0.982628
vt 0.714030 0.982323
vt 0.420542 0.749131
vt 0.419448 0.749129
vt 0.419232 0.750146
vt 0.420171 0.750185
vt 0.419035 0.750960
vt 0.419823 0.751078
vt 0.418373 0.749127
vt 0.418405 0.750118
vt 0.418505 0.750712
vt 0.661563 0.015785
vt 0.662693 0.015590
vt 0.662417 0.014855
vt 0.661416 0.014894
vt 0.662165 0.014235
vt 0.661206 0.014118
vt 0.663733 0.015533
vt 0.663262 0.014850
vt 0.662823 0.014424
vt 0.488247 0.794552
vt 0.488066 0.793497
vt 0.487137 0.793535
vt 0.487204 0.794553
vt 0.486328 0.793562
vt 0.486212 0.794554
vt 0.487976 0.792603
vt 0.487096 0.792720
vt 0.486529 0.792968
vt 0.664034 0.794440
vt 0.665172 0.794439
vt 0.665134 0.793421
vt 0.664021 0.793384
vt 0.665085 0.792606
vt 0.663958 0.792490
vt 0.666337 0.794439
vt 0.666121 0.793447
vt 0.665829 0.792853
vt 0.491110 0.058886
vt 0.490787 0.058249
vt 0.489624 0.058804
vt 0.489731 0.059391
vt 0.488672 0.059299
vt 0.488528 0.059993
vt 0.490523 0.057690
vt 0.489534 0.058298
vt 0.665140 0.792197
vt 0.666204 0.792606
vt 0.199115 0.556440
vt 0.200171 0.556012
vt 0.200133 0.555235
vt 0.199115 0.555471
vt 0.667353 0.794439
vt 0.666835 0.793421
vt 0.201065 0.555648
vt 0.200949 0.555029
vt 0.926480 0.557624
vt 0.927675 0.557625
vt 0.927746 0.556606
vt 0.926535 0.556568
vt 0.927831 0.555790
vt 0.926682 0.555672
vt 0.929056 0.557625
vt 0.928865 0.556632
vt 0.928645 0.556038
vt 0.007331 0.058112
vt 0.006610 0.057616
vt 0.005727 0.058637
vt 0.006163 0.059175
vt 0.005015 0.059503
vt 0.005203 0.060233
vt 0.005996 0.057179
vt 0.005356 0.058179
vt 0.928146 0.555378
vt 0.929197 0.555789
vt 0.931540 0.557622
vt 0.930896 0.556567
vt 0.929851 0.556605
vt 0.930413 0.557624
vt 0.929836 0.555671
vt 0.006966 0.990570
vt 0.005910 0.990921
vt 0.005947 0.991955
vt 0.006966 0.991734
vt 0.005973 0.992905
vt 0.006966 0.992982
vt 0.005015 0.991266
vt 0.005132 0.992157
vt 0.005379 0.992786
vt 0.006966 0.994985
vt 0.006966 0.994124
vt 0.005947 0.993722
vt 0.005910 0.994571
vt 0.005132 0.993262
vt 0.005015 0.993808
vt 0.460582 0.511406
vt 0.460593 0.512527
vt 0.461511 0.512441
vt 0.461699 0.511546
vt 0.462291 0.512333
vt 0.462705 0.511533
vt 0.460473 0.513511
vt 0.461321 0.513193
vt 0.461901 0.512864
vt 0.710353 0.787930
vt 0.711399 0.787930
vt 0.712066 0.786912
vt 0.711128 0.786875
vt 0.712836 0.786097
vt 0.712367 0.785980
vt 0.712704 0.787930
vt 0.712975 0.786938
vt 0.713300 0.786344
vt 0.267670 0.540076
vt 0.266066 0.539923
vt 0.266050 0.540399
vt 0.267452 0.540691
vt 0.715443 0.785382
vt 0.714030 0.785687
vt 0.714158 0.786097
vt 0.715415 0.785980
vt 0.264570 0.539575
vt 0.264879 0.540102
vt 0.715289 0.787930
vt 0.715361 0.786875
vt 0.714111 0.786912
vt 0.714070 0.787930
vt 0.420505 0.556983
vt 0.420390 0.555926
vt 0.419281 0.555898
vt 0.419438 0.556982
vt 0.418417 0.555951
vt 0.418373 0.556979
vt 0.420132 0.555029
vt 0.419123 0.555168
vt 0.418518 0.555385
vt 0.488366 0.986702
vt 0.487235 0.986703
vt 0.487282 0.987785
vt 0.488444 0.987757
vt 0.487341 0.988513
vt 0.488446 0.988652
vt 0.486212 0.986704
vt 0.486444 0.987731
vt 0.486696 0.988296
vt 0.300830 0.015784
vt 0.301251 0.014883
vt 0.300033 0.014914
vt 0.299637 0.015838
vt 0.299146 0.014985
vt 0.298574 0.015868
vt 0.301556 0.014103
vt 0.300343 0.014276
vt 0.299599 0.014486
vt 0.664153 0.986589
vt 0.664141 0.987645
vt 0.665254 0.987607
vt 0.665290 0.986589
vt 0.666241 0.987581
vt 0.666456 0.986588
vt 0.664079 0.988540
vt 0.665206 0.988423
vt 0.665949 0.988175
vt 0.006966 0.556440
vt 0.006966 0.555471
vt 0.005947 0.555235
vt 0.005910 0.556013
vt 0.005132 0.555029
vt 0.005015 0.555648
vt 0.667472 0.986588
vt 0.666955 0.987607
vt 0.666325 0.988422
vt 0.471283 0.058886
vt 0.472661 0.059391
vt 0.472769 0.058803
vt 0.471605 0.058248
vt 0.472859 0.058298
vt 0.471870 0.057690
vt 0.473864 0.059992
vt 0.473721 0.059299
vt 0.665261 0.988832
vt 0.886449 0.775351
vt 0.887504 0.775075
vt 0.887504 0.736287
vt 0.886449 0.736418
vt 0.888399 0.774287
vt 0.888399 0.735914
vt 0.955461 0.068791
vt 0.954260 0.068968
vt 0.927753 0.107383
vt 0.928519 0.107837
vt 0.952849 0.069159
vt 0.926856 0.106830
vt 0.594561 0.537778
vt 0.594411 0.538815
vt 0.639935 0.542921
vt 0.639995 0.541875
vt 0.594288 0.539680
vt 0.639889 0.543792
vt 0.810109 0.982030
vt 0.810387 0.981135
vt 0.768671 0.981135
vt 0.768439 0.982030
vt 0.810485 0.980080
vt 0.768752 0.980080
vt 0.857424 0.981135
vt 0.857547 0.980080
vt 0.857072 0.982030
vt 0.540943 0.527946
vt 0.540695 0.528784
vt 0.541241 0.526938
vt 0.650778 0.793391
vt 0.650507 0.794447
vt 0.651551 0.792496
vt 0.500820 0.052958
vt 0.501684 0.051789
vt 0.499807 0.054319
vt 0.860952 0.173482
vt 0.862095 0.173785
vt 0.863069 0.174027
vt 0.888399 0.652203
vt 0.887504 0.652755
vt 0.886449 0.652949
vt 0.734744 0.436857
vt 0.735770 0.437112
vt 0.759355 0.321018
vt 0.758343 0.320692
vt 0.736644 0.437312
vt 0.760217 0.321278
vt 0.486249 0.710423
vt 0.487141 0.710738
vt 0.487162 0.606865
vt 0.486270 0.606513
vt 0.488196 0.710851
vt 0.488217 0.606990
vt 0.522257 0.330032
vt 0.521235 0.329768
vt 0.488089 0.441618
vt 0.489139 0.441790
vt 0.520372 0.329530
vt 0.487204 0.441456
vt 0.201065 0.822983
vt 0.200171 0.822676
vt 0.200171 0.920285
vt 0.201065 0.920547
vt 0.199115 0.822568
vt 0.199115 0.920192
vt 0.444057 0.750204
vt 0.443987 0.749150
vt 0.444258 0.751097
vt 0.676426 0.037503
vt 0.677151 0.036944
vt 0.675575 0.038144
vt 0.650560 0.014251
vt 0.651702 0.015193
vt 0.649596 0.013438
vt 0.499336 0.793488
vt 0.498872 0.792594
vt 0.499499 0.794543
vt 0.609180 0.025002
vt 0.609477 0.026158
vt 0.608933 0.024007
vt 0.540824 0.793462
vt 0.540853 0.792567
vt 0.540814 0.794517
vt 0.465697 0.750236
vt 0.465565 0.749182
vt 0.466071 0.751129
vt 0.692482 0.055623
vt 0.693019 0.054851
vt 0.691854 0.056515
vt 0.213639 0.555686
vt 0.212584 0.555515
vt 0.212589 0.570533
vt 0.213644 0.570784
vt 0.211689 0.555029
vt 0.211694 0.569816
vt 0.709750 0.062611
vt 0.710698 0.062006
vt 0.708636 0.063307
vt 0.487163 0.781470
vt 0.488217 0.781735
vt 0.486270 0.780720
vt 0.710790 0.517729
vt 0.711432 0.518682
vt 0.710039 0.516587
vt 0.487105 0.486380
vt 0.488164 0.486133
vt 0.486212 0.486575
vt 0.200171 0.963428
vt 0.201065 0.963464
vt 0.199115 0.963415
vt 0.692349 0.980080
vt 0.692414 0.981135
vt 0.692598 0.982030
vt 0.730744 0.981135
vt 0.731035 0.980080
vt 0.729917 0.982030
vt 0.728680 0.982628
vt 0.683318 0.543138
vt 0.682132 0.544151
vt 0.200171 0.748189
vt 0.199115 0.748135
vt 0.201065 0.748344
vt 0.538159 0.246460
vt 0.537245 0.246476
vt 0.539243 0.246423
vt 0.773625 0.290461
vt 0.772653 0.290015
vt 0.774453 0.290824
vt 0.487134 0.582034
vt 0.486242 0.581624
vt 0.488189 0.582180
vt 0.200171 0.565484
vt 0.199115 0.565349
vt 0.201065 0.565868
vt 0.487222 0.071681
vt 0.486212 0.071367
vt 0.488419 0.072033
vt 0.788907 0.257813
vt 0.787987 0.257256
vt 0.789692 0.258270
vt 0.487104 0.555487
vt 0.486212 0.555025
vt 0.488159 0.555651
vt 0.888399 0.555025
vt 0.887504 0.555410
vt 0.886449 0.555545
vt 0.681131 0.544995
vt 0.888600 0.982030
vt 0.888632 0.981135
vt 0.888466 0.980080
vt 0.213641 0.747167
vt 0.212586 0.747057
vt 0.212598 0.790748
vt 0.213653 0.790442
vt 0.211691 0.746746
vt 0.211703 0.791622
vt 0.882954 0.020317
vt 0.882728 0.021206
vt 0.936622 0.037684
vt 0.934800 0.036168
vt 0.882466 0.022238
vt 0.938778 0.039454
vt 0.807693 0.005952
vt 0.807704 0.007039
vt 0.807687 0.005015
vt 0.212571 0.679495
vt 0.211677 0.679322
vt 0.213627 0.679556
vt 0.788746 0.010301
vt 0.789543 0.011207
vt 0.788076 0.009517
vt 0.212572 0.658969
vt 0.211677 0.659251
vt 0.213627 0.658869
vt 0.898430 0.749712
vt 0.898892 0.750769
vt 0.911023 0.750810
vt 0.911150 0.749755
vt 0.900208 0.751667
vt 0.910663 0.751703
vt 0.902177 0.752270
vt 0.910123 0.752297
vt 0.944684 0.042841
vt 0.945953 0.043107
vt 0.947034 0.043317
vt 0.937639 0.750813
vt 0.937687 0.749758
vt 0.937502 0.751704
vt 0.759989 0.035065
vt 0.761532 0.035337
vt 0.758685 0.034819
vt 0.212581 0.622905
vt 0.211686 0.623698
vt 0.213636 0.622627
vt 0.726549 0.059217
vt 0.728381 0.059300
vt 0.725002 0.059131
vt 0.212589 0.583354
vt 0.211694 0.584334
vt 0.213644 0.583010
vt 0.211096 0.568743
vt 0.211096 0.585801
vt 0.009545 0.069160
vt 0.008133 0.068969
vt 0.034640 0.107384
vt 0.035537 0.106830
vt 0.006932 0.068791
vt 0.033875 0.107838
vt 0.692349 0.774287
vt 0.693244 0.775075
vt 0.693244 0.736287
vt 0.692349 0.735914
vt 0.694299 0.775351
vt 0.694299 0.736418
vt 0.810485 0.787930
vt 0.810387 0.786875
vt 0.768671 0.786875
vt 0.768752 0.787930
vt 0.810109 0.785980
vt 0.768439 0.785980
vt 0.368105 0.539683
vt 0.367982 0.538819
vt 0.322458 0.542924
vt 0.322504 0.543796
vt 0.367832 0.537781
vt 0.322398 0.541879
vt 0.421450 0.527949
vt 0.421152 0.526941
vt 0.421698 0.528788
vt 0.857424 0.786875
vt 0.857072 0.785980
vt 0.857547 0.787930
vt 0.461573 0.052958
vt 0.462586 0.054318
vt 0.460709 0.051789
vt 0.650898 0.987652
vt 0.651672 0.988546
vt 0.650626 0.986596
vt 0.694299 0.652949
vt 0.693244 0.652755
vt 0.692349 0.652204
vt 0.099324 0.174028
vt 0.100298 0.173786
vt 0.101442 0.173483
vt 0.680343 0.711282
vt 0.681399 0.711174
vt 0.681421 0.607300
vt 0.680365 0.607421
vt 0.682297 0.710863
vt 0.682318 0.606953
vt 0.225749 0.437315
vt 0.226623 0.437114
vt 0.203038 0.321020
vt 0.202176 0.321281
vt 0.227650 0.436860
vt 0.204050 0.320694
vt 0.006966 0.822568
vt 0.005910 0.822676
vt 0.005910 0.920285
vt 0.006966 0.920193
vt 0.005015 0.822983
vt 0.005015 0.920547
vt 0.442021 0.329532
vt 0.441158 0.329770
vt 0.474303 0.441620
vt 0.475189 0.441459
vt 0.440135 0.330033
vt 0.473254 0.441792
vt 0.285967 0.037503
vt 0.286818 0.038144
vt 0.285242 0.036944
vt 0.444020 0.555945
vt 0.444221 0.555048
vt 0.443950 0.557001
vt 0.499456 0.987748
vt 0.499618 0.986693
vt 0.498993 0.988644
vt 0.311833 0.014251
vt 0.312797 0.013437
vt 0.310691 0.015193
vt 0.540944 0.987722
vt 0.540933 0.986666
vt 0.540974 0.988617
vt 0.353213 0.025002
vt 0.353460 0.024007
vt 0.352916 0.026158
vt 0.269910 0.055623
vt 0.270538 0.056516
vt 0.269373 0.054852
vt 0.465660 0.555977
vt 0.466034 0.555081
vt 0.465529 0.557033
vt 0.252644 0.062611
vt 0.253758 0.063307
vt 0.251695 0.062006
vt 0.407739 0.555039
vt 0.406844 0.555525
vt 0.406849 0.570541
vt 0.407744 0.569824
vt 0.405788 0.555696
vt 0.405793 0.570793
vt 0.251603 0.517733
vt 0.252354 0.516591
vt 0.250961 0.518685
vt 0.681421 0.781906
vt 0.682318 0.781160
vt 0.680365 0.782166
vt 0.005910 0.963428
vt 0.006966 0.963415
vt 0.005015 0.963464
vt 0.475288 0.486383
vt 0.476181 0.486578
vt 0.474229 0.486135
vt 0.692598 0.785980
vt 0.692414 0.786875
vt 0.692349 0.787930
vt 0.280261 0.544155
vt 0.279075 0.543142
vt 0.729918 0.785980
vt 0.728680 0.785382
vt 0.730744 0.786875
vt 0.731035 0.787930
vt 0.424234 0.246461
vt 0.423150 0.246424
vt 0.425148 0.246477
vt 0.005910 0.748190
vt 0.005015 0.748344
vt 0.006966 0.748135
vt 0.681393 0.582470
vt 0.680336 0.582610
vt 0.682290 0.582063
vt 0.188769 0.290463
vt 0.187940 0.290826
vt 0.189741 0.290017
vt 0.475171 0.071681
vt 0.473974 0.072033
vt 0.476181 0.071367
vt 0.005910 0.565484
vt 0.005015 0.565868
vt 0.006966 0.565349
vt 0.681363 0.555923
vt 0.680306 0.556082
vt 0.682260 0.555465
vt 0.173486 0.257815
vt 0.172701 0.258272
vt 0.174406 0.257258
vt 0.694299 0.555545
vt 0.693244 0.555410
vt 0.692349 0.555025
vt 0.281262 0.544998
vt 0.888466 0.787930
vt 0.888632 0.786875
vt 0.888600 0.785980
vt 0.079928 0.022238
vt 0.079666 0.021207
vt 0.025771 0.037685
vt 0.023616 0.039455
vt 0.079439 0.020317
vt 0.027593 0.036169
vt 0.407741 0.746754
vt 0.406846 0.747066
vt 0.406858 0.790757
vt 0.407753 0.791631
vt 0.405790 0.747175
vt 0.405802 0.790450
vt 0.406832 0.679504
vt 0.405776 0.679564
vt 0.407727 0.679331
vt 0.154701 0.005952
vt 0.154706 0.005015
vt 0.154689 0.007039
vt 0.406832 0.658977
vt 0.405776 0.658878
vt 0.407727 0.659259
vt 0.173647 0.010300
vt 0.174317 0.009517
vt 0.172850 0.011207
vt 0.016440 0.043107
vt 0.017710 0.042841
vt 0.902177 0.555025
vt 0.900208 0.555618
vt 0.910663 0.555654
vt 0.910123 0.555052
vt 0.898892 0.556510
vt 0.911023 0.556551
vt 0.898430 0.557564
vt 0.911150 0.557607
vt 0.015360 0.043318
vt 0.937639 0.556553
vt 0.937502 0.555656
vt 0.937687 0.557610
vt 0.406841 0.622914
vt 0.405785 0.622636
vt 0.407736 0.623707
vt 0.202404 0.035065
vt 0.203708 0.034819
vt 0.200861 0.035337
vt 0.406849 0.583363
vt 0.405793 0.583018
vt 0.407744 0.584343
vt 0.235844 0.059217
vt 0.237391 0.059131
vt 0.234012 0.059300
vt 0.408342 0.568752
vt 0.408342 0.585810
s 1
f 31/1/31 36/2/36 37/3/37 34/4/34
f 34/4/34 37/3/37 38/5/38 35/6/35
f 36/2/36 46/7/46 49/8/49 37/3/37
f 37/3/37 49/8/49 39/9/39 38/5/38
f 32/10/32 42/11/42 43/12/43 40/13/40
f 40/13/40 43/12/43 44/14/44 41/15/41
f 42/11/42 35/6/35 38/5/38 43/12/43
f 43/12/43 38/5/38 39/9/39 44/14/44
f 33/16/33 47/17/47 48/18/48 45/19/45
f 45/19/45 48/18/48 49/20/49 46/21/46
f 47/17/47 41/22/41 44/23/44 48/18/48
f 48/24/48 44/14/44 39/9/39 49/8/49
f 85/25/85 90/26/90 91/27/91 88/28/88
f 88/28/88 91/27/91 92/29/92 89/30/89
f 90/26/90 100/31/100 103/32/103 91/27/91
f 91/27/91 103/32/103 93/33/93 92/29/92
f 86/34/86 96/35/96 97/36/97 94/37/94
f 94/37/94 97/36/97 98/38/98 95/39/95
f 96/35/96 89/40/89 92/41/92 97/36/97
f 97/36/97 92/41/92 93/42/93 98/38/98
f 87/43/87 101/44/101 102/45/102 99/46/99
f 99/46/99 102/45/102 103/32/103 100/31/100
f 101/44/101 95/47/95 98/48/98 102/45/102
f 102/45/102 98/48/98 93/33/93 103/32/103
f 114/49/114 119/50/119 120/51/120 117/52/117
f 117/52/117 120/51/120 121/53/121 118/54/118
f 119/50/119 129/55/129 132/56/132 120/51/120
f 120/51/120 132/56/132 122/57/122 121/53/121
f 115/58/115 125/59/125 126/60/126 123/61/123
f 123/61/123 126/60/126 127/62/127 124/63/124
f 125/59/125 118/54/118 121/53/121 126/60/126
f 126/60/126 121/53/121 122/57/122 127/62/127
f 116/64/116 130/65/130 131/66/131 128/67/128
f 128/67/128 131/66/131 132/68/132 129/69/129
f 130/70/130 124/63/124 127/62/127 131/71/131
f 131/71/131 127/62/127 122/57/122 132/56/132
f 173/72/173 178/73/178 179/74/179 176/75/176
f 176/75/176 179/74/179 180/76/180 177/77/177
f 178/73/178 188/78/188 191/79/191 179/74/179
f 179/74/179 191/79/191 181/80/181 180/76/180
f 174/81/174 184/82/184 185/83/185 182/84/182
f 182/84/182 185/83/185 186/85/186 183/86/183
f 184/82/184 177/87/177 180/88/180 185/83/185
f 185/83/185 180/88/180 181/89/181 186/85/186
f 175/90/175 189/91/189 190/92/190 187/93/187
f 187/93/187 190/92/190 191/94/191 188/95/188
f 189/91/189 183/96/183 186/97/186 190/92/190
f 190/92/190 186/97/186 181/98/181 191/94/191
f 227/99/227 232/100/232 233/101/233 230/102/230
f 230/102/230 233/101/233 234/103/234 231/104/231
f 232/100/232 242/105/242 245/106/245 233/101/233
f 233/101/233 245/106/245 235/107/235 234/103/234
f 228/108/228 238/109/238 239/110/239 236/111/236
f 236/111/236 239/110/239 240/112/240 237/113/237
f 238/109/238 231/114/231 234/115/234 239/110/239
f 239/116/239 234/103/234 235/107/235 240/117/240
f 229/118/229 243/119/243 244/120/244 241/121/241
f 241/122/241 244/123/244 245/106/245 242/105/242
f 243/119/243 237/124/237 240/125/240 244/120/244
f 244/123/244 240/117/240 235/107/235 245/106/245
f 276/126/276 281/127/281 282/128/282 279/129/279
f 279/129/279 282/128/282 283/130/283 280/131/280
f 281/127/281 291/132/291 294/133/294 282/128/282
f 282/128/282 294/133/294 284/134/284 283/130/283
f 277/135/277 287/136/287 288/137/288 285/138/285
f 285/138/285 288/137/288 289/139/289 286/140/286
f 287/136/287 280/141/280 283/142/283 288/137/288
f 288/143/288 283/130/283 284/134/284 289/144/289
f 278/145/278 292/146/292 293/147/293 290/148/290
f 290/148/290 293/147/293 294/133/294 291/132/291
f 292/146/292 286/149/286 289/144/289 293/147/293
f 293/147/293 289/144/289 284/134/284 294/133/294
f 330/150/330 335/151/335 336/152/336 333/153/333
f 333/153/333 336/152/336 337/154/337 334/155/334
f 335/151/335 345/156/345 348/157/348 336/152/336
f 336/152/336 348/157/348 338/158/338 337/154/337
f 331/159/331 341/160/341 342/161/342 339/162/339
f 339/162/339 342/161/342 343/163/343 340/164/340
f 341/160/341 334/155/334 337/154/337 342/161/342
f 342/161/342 337/154/337 338/158/338 343/163/343
f 332/165/332 346/166/346 347/167/347 344/168/344
f 344/168/344 347/167/347 348/169/348 345/170/345
f 346/166/346 340/171/340 343/172/343 347/167/347
f 347/167/347 343/172/343 338/173/338 348/169/348
f 359/174/359 364/175/364 365/176/365 362/177/362
f 362/177/362 365/176/365 366/178/366 363/179/363
f 364/175/364 374/180/374 377/181/377 365/176/365
f 365/176/365 377/181/377 367/182/367 366/178/366
f 360/183/360 370/184/370 371/185/371 368/186/368
f 368/187/368 371/188/371 372/189/372 369/190/369
f 370/184/370 363/191/363 366/192/366 371/185/371
f 371/188/371 366/178/366 367/182/367 372/189/372
f 361/193/361 375/194/375 376/195/376 373/196/373
f 373/196/373 376/195/376 377/181/377 374/180/374
f 375/194/375 369/190/369 372/189/372 376/195/376
f 376/195/376 372/189/372 367/182/367 377/181/377
f 418/197/418 423/198/423 424/199/424 421/200/421
f 421/200/421 424/199/424 425/201/425 422/202/422
f 423/198/423 433/203/433 436/204/436 424/199/424
f 424/199/424 436/204/436 426/205/426 425/201/425
f 419/206/419 429/207/429 430/208/430 427/209/427
f 427/209/427 430/208/430 431/210/431 428/211/428
f 429/207/429 422/212/422 425/213/425 430/208/430
f 430/208/430 425/213/425 426/214/426 431/210/431
f 420/215/420 434/216/434 435/217/435 432/218/432
f 432/218/432 435/217/435 436/219/436 433/220/433
f 434/216/434 428/221/428 431/222/431 435/217/435
f 435/217/435 431/222/431 426/223/426 436/219/436
f 472/224/472 477/225/477 478/226/478 475/227/475
f 475/227/475 478/226/478 479/228/479 476/229/476
f 477/225/477 487/230/487 490/231/490 478/226/478
f 478/226/478 490/231/490 480/232/480 479/228/479
f 473/233/473 483/234/483 484/235/484 481/236/481
f 481/236/481 484/235/484 485/237/485 482/238/482
f 483/239/483 476/229/476 479/228/479 484/240/484
f 484/240/484 479/228/479 480/232/480 485/241/485
f 474/242/474 488/243/488 489/244/489 486/245/486
f 486/245/486 489/244/489 490/246/490 487/247/487
f 488/243/488 482/248/482 485/249/485 489/244/489
f 489/250/489 485/241/485 480/232/480 490/231/490
f 2/251/2 5/252/5 13/253/13 11/254/11
f 5/252/5 4/255/4 14/256/14 13/253/13
f 4/257/4 3/258/3 15/259/15 14/260/14
f 3/258/3 1/261/1 12/262/12 15/259/15
f 71/263/71 74/264/74 82/265/82 80/266/80
f 74/264/74 73/267/73 83/268/83 82/265/82
f 73/269/73 72/270/72 84/271/84 83/272/83
f 72/270/72 70/273/70 81/274/81 84/271/84
f 70/273/70 72/270/72 77/275/77 75/276/75
f 72/270/72 73/269/73 78/277/78 77/275/77
f 73/267/73 74/264/74 79/278/79 78/279/78
f 74/264/74 71/263/71 76/280/76 79/278/79
f 227/99/227 230/102/230 150/281/150 148/282/148
f 230/102/230 231/104/231 151/283/151 150/281/150
f 231/114/231 238/109/238 152/284/152 151/285/151
f 238/109/238 228/108/228 149/286/149 152/284/152
f 223/287/223 226/288/226 15/259/15 12/262/12
f 226/288/226 225/289/225 14/260/14 15/259/15
f 225/290/225 224/291/224 13/253/13 14/256/14
f 224/291/224 222/292/222 11/254/11 13/253/13
f 144/293/144 147/294/147 199/295/199 197/296/197
f 147/294/147 146/297/146 200/298/200 199/295/199
f 146/299/146 145/300/145 201/301/201 200/302/200
f 145/300/145 143/303/143 198/304/198 201/301/201
f 193/305/193 196/306/196 140/307/140 138/308/138
f 196/306/196 195/309/195 141/310/141 140/307/140
f 195/311/195 194/312/194 142/313/142 141/314/141
f 194/312/194 192/315/192 139/316/139 142/313/142
f 173/72/173 176/75/176 165/317/165 163/318/163
f 176/75/176 177/77/177 166/319/166 165/317/165
f 177/87/177 184/82/184 167/320/167 166/321/166
f 184/82/184 174/81/174 164/322/164 167/320/167
f 174/81/174 182/84/182 170/323/170 168/324/168
f 182/84/182 183/86/183 171/325/171 170/323/170
f 183/96/183 189/91/189 172/326/172 171/327/171
f 189/91/189 175/90/175 169/328/169 172/326/172
f 168/324/168 170/323/170 155/329/155 153/330/153
f 170/323/170 171/325/171 156/331/156 155/329/155
f 171/327/171 172/326/172 157/332/157 156/333/156
f 172/326/172 169/328/169 154/334/154 157/332/157
f 163/318/163 165/317/165 160/335/160 158/336/158
f 165/317/165 166/319/166 161/337/161 160/335/160
f 166/321/166 167/320/167 162/338/162 161/339/161
f 167/320/167 164/322/164 159/340/159 162/338/162
f 158/341/158 160/342/160 8/343/8 6/344/6
f 160/342/160 161/345/161 9/346/9 8/343/8
f 161/339/161 162/338/162 10/347/10 9/348/9
f 162/338/162 159/340/159 7/349/7 10/347/10
f 153/330/153 155/329/155 152/284/152 149/286/149
f 155/329/155 156/331/156 151/285/151 152/284/152
f 156/333/156 157/332/157 150/281/150 151/283/151
f 157/332/157 154/334/154 148/282/148 150/281/150
f 143/303/143 145/300/145 135/350/135 133/351/133
f 145/300/145 146/299/146 136/352/136 135/350/135
f 146/297/146 147/294/147 137/353/137 136/354/136
f 147/294/147 144/293/144 134/355/134 137/353/137
f 138/308/138 140/307/140 111/356/111 109/357/109
f 140/307/140 141/310/141 112/358/112 111/356/111
f 141/314/141 142/313/142 113/359/113 112/360/112
f 142/313/142 139/316/139 110/361/110 113/359/113
f 133/362/133 135/363/135 119/50/119 114/49/114
f 135/363/135 136/364/136 129/55/129 119/50/119
f 136/354/136 137/353/137 128/67/128 129/69/129
f 137/353/137 134/355/134 116/64/116 128/67/128
f 115/58/115 123/61/123 106/365/106 104/366/104
f 123/61/123 124/63/124 107/367/107 106/365/106
f 124/63/124 130/70/130 108/368/108 107/367/107
f 130/65/130 116/64/116 105/369/105 108/370/108
f 109/357/109 111/356/111 96/35/96 86/34/86
f 111/356/111 112/358/112 89/40/89 96/35/96
f 112/360/112 113/359/113 88/28/88 89/30/89
f 113/359/113 110/361/110 85/25/85 88/28/88
f 192/315/192 194/312/194 204/371/204 202/372/202
f 194/312/194 195/311/195 205/373/205 204/371/204
f 195/309/195 196/306/196 206/374/206 205/375/205
f 196/306/196 193/305/193 203/376/203 206/374/206
f 197/296/197 199/295/199 209/377/209 207/378/207
f 199/295/199 200/298/200 210/379/210 209/377/209
f 200/302/200 201/301/201 211/380/211 210/381/210
f 201/301/201 198/304/198 208/382/208 211/380/211
f 202/372/202 204/371/204 214/383/214 212/384/212
f 204/371/204 205/373/205 215/385/215 214/383/214
f 205/375/205 206/374/206 216/386/216 215/387/215
f 206/374/206 203/376/203 213/388/213 216/386/216
f 207/378/207 209/377/209 219/389/219 217/390/217
f 209/377/209 210/379/210 220/391/220 219/389/219
f 210/381/210 211/380/211 221/392/221 220/393/220
f 211/380/211 208/382/208 218/394/218 221/392/221
f 217/390/217 219/389/219 226/288/226 223/287/223
f 219/389/219 220/391/220 225/289/225 226/288/226
f 220/395/220 221/396/221 224/291/224 225/290/225
f 221/396/221 218/397/218 222/292/222 224/291/224
f 212/384/212 214/383/214 243/119/243 229/118/229
f 214/383/214 215/385/215 237/124/237 243/119/243
f 215/387/215 216/386/216 236/111/236 237/113/237
f 216/386/216 213/388/213 228/108/228 236/111/236
f 104/366/104 106/365/106 84/271/84 81/274/81
f 106/365/106 107/367/107 83/272/83 84/271/84
f 107/398/107 108/370/108 82/265/82 83/268/83
f 108/370/108 105/369/105 80/266/80 82/265/82
f 86/34/86 94/37/94 79/278/79 76/280/76
f 94/37/94 95/39/95 78/279/78 79/278/79
f 95/399/95 101/400/101 77/275/77 78/277/78
f 101/400/101 87/401/87 75/276/75 77/275/77
f 66/402/66 69/403/69 57/404/57 55/405/55
f 69/403/69 68/406/68 58/407/58 57/404/57
f 68/408/68 67/409/67 59/410/59 58/411/58
f 67/409/67 65/412/65 56/413/56 59/410/59
f 65/412/65 67/409/67 62/414/62 60/415/60
f 67/409/67 68/408/68 63/416/63 62/414/62
f 68/406/68 69/403/69 64/417/64 63/418/63
f 69/403/69 66/402/66 61/419/61 64/417/64
f 60/415/60 62/414/62 28/420/28 26/421/26
f 62/414/62 63/416/63 29/422/29 28/420/28
f 63/418/63 64/417/64 30/423/30 29/424/29
f 64/417/64 61/419/61 27/425/27 30/423/30
f 55/426/55 57/427/57 52/428/52 50/429/50
f 57/427/57 58/430/58 53/431/53 52/428/52
f 58/430/58 59/432/59 54/433/54 53/431/53
f 59/410/59 56/413/56 51/434/51 54/435/54
f 50/429/50 52/428/52 36/2/36 31/1/31
f 52/428/52 53/431/53 46/7/46 36/2/36
f 53/436/53 54/435/54 45/19/45 46/21/46
f 54/435/54 51/434/51 33/16/33 45/19/45
f 32/10/32 40/13/40 5/437/5 2/438/2
f 40/13/40 41/15/41 4/439/4 5/437/5
f 41/22/41 47/17/47 3/258/3 4/257/4
f 47/17/47 33/16/33 1/261/1 3/258/3
f 26/421/26 28/420/28 23/440/23 21/441/21
f 28/420/28 29/422/29 24/442/24 23/440/23
f 29/424/29 30/423/30 25/443/25 24/444/24
f 30/423/30 27/425/27 22/445/22 25/443/25
f 21/441/21 23/440/23 18/446/18 16/447/16
f 23/440/23 24/442/24 19/448/19 18/446/18
f 24/444/24 25/443/25 20/449/20 19/450/19
f 25/443/25 22/445/22 17/451/17 20/449/20
f 6/344/6 8/343/8 20/449/20 17/451/17
f 8/343/8 9/346/9 19/450/19 20/449/20
f 9/346/9 10/452/10 18/453/18 19/450/19
f 10/347/10 7/349/7 16/447/16 18/446/18
f 247/454/247 250/455/250 258/456/258 256/457/256
f 250/455/250 249/458/249 259/459/259 258/456/258
f 249/460/249 248/461/248 260/462/260 259/463/259
f 248/461/248 246/464/246 257/465/257 260/462/260
f 316/466/316 319/467/319 327/468/327 325/469/325
f 319/467/319 318/470/318 328/471/328 327/468/327
f 318/472/318 317/473/317 329/474/329 328/475/328
f 317/473/317 315/476/315 326/477/326 329/474/329
f 315/476/315 317/473/317 322/478/322 320/479/320
f 317/473/317 318/472/318 323/480/323 322/478/322
f 318/470/318 319/467/319 324/481/324 323/482/323
f 319/467/319 316/466/316 321/483/321 324/481/324
f 474/242/474 486/245/486 395/484/395 393/485/393
f 486/245/486 487/247/487 396/486/396 395/484/395
f 487/230/487 477/225/477 397/487/397 396/488/396
f 477/225/477 472/224/472 394/489/394 397/487/397
f 468/490/468 471/491/471 260/462/260 257/465/257
f 471/491/471 470/492/470 259/463/259 260/462/260
f 470/493/470 469/494/469 258/456/258 259/459/259
f 469/494/469 467/495/467 256/457/256 258/456/258
f 389/496/389 392/497/392 444/498/444 442/499/442
f 392/497/392 391/500/391 445/501/445 444/498/444
f 391/502/391 390/503/390 446/504/446 445/505/445
f 390/503/390 388/506/388 443/507/443 446/504/446
f 438/508/438 441/509/441 385/510/385 383/511/383
f 441/509/441 440/512/440 386/513/386 385/510/385
f 440/514/440 439/515/439 387/516/387 386/517/386
f 439/515/439 437/518/437 384/519/384 387/516/387
f 420/215/420 432/218/432 410/520/410 408/521/408
f 432/218/432 433/220/433 411/522/411 410/520/410
f 433/203/433 423/198/423 412/523/412 411/524/411
f 423/198/423 418/197/418 409/525/409 412/523/412
f 419/206/419 427/209/427 415/526/415 413/527/413
f 427/209/427 428/211/428 416/528/416 415/526/415
f 428/221/428 434/216/434 417/529/417 416/530/416
f 434/216/434 420/215/420 414/531/414 417/529/417
f 413/527/413 415/526/415 400/532/400 398/533/398
f 415/526/415 416/528/416 401/534/401 400/532/400
f 416/530/416 417/529/417 402/535/402 401/536/401
f 417/529/417 414/531/414 399/537/399 402/535/402
f 408/521/408 410/520/410 405/538/405 403/539/403
f 410/520/410 411/522/411 406/540/406 405/538/405
f 411/524/411 412/523/412 407/541/407 406/542/406
f 412/523/412 409/525/409 404/543/404 407/541/407
f 403/539/403 405/538/405 253/544/253 251/545/251
f 405/538/405 406/540/406 254/546/254 253/544/253
f 406/547/406 407/548/407 255/549/255 254/550/254
f 407/548/407 404/551/404 252/552/252 255/549/255
f 398/533/398 400/532/400 397/487/397 394/489/394
f 400/532/400 401/534/401 396/488/396 397/487/397
f 401/536/401 402/535/402 395/484/395 396/486/396
f 402/535/402 399/537/399 393/485/393 395/484/395
f 388/506/388 390/503/390 380/553/380 378/554/378
f 390/503/390 391/502/391 381/555/381 380/553/380
f 391/500/391 392/497/392 382/556/382 381/557/381
f 392/497/392 389/496/389 379/558/379 382/556/382
f 383/511/383 385/510/385 356/559/356 354/560/354
f 385/510/385 386/513/386 357/561/357 356/559/356
f 386/517/386 387/516/387 358/562/358 357/563/357
f 387/516/387 384/519/384 355/564/355 358/562/358
f 378/554/378 380/553/380 370/184/370 360/183/360
f 380/553/380 381/555/381 363/191/363 370/184/370
f 381/565/381 382/566/382 362/177/362 363/179/363
f 382/566/382 379/567/379 359/174/359 362/177/362
f 360/183/360 368/186/368 351/568/351 349/569/349
f 368/187/368 369/190/369 352/570/352 351/571/351
f 369/190/369 375/194/375 353/572/353 352/570/352
f 375/194/375 361/193/361 350/573/350 353/572/353
f 354/560/354 356/559/356 335/151/335 330/150/330
f 356/559/356 357/561/357 345/156/345 335/151/335
f 357/563/357 358/562/358 344/168/344 345/170/345
f 358/562/358 355/564/355 332/165/332 344/168/344
f 437/518/437 439/515/439 449/574/449 447/575/447
f 439/515/439 440/514/440 450/576/450 449/574/449
f 440/512/440 441/509/441 451/577/451 450/578/450
f 441/509/441 438/508/438 448/579/448 451/577/451
f 442/499/442 444/498/444 454/580/454 452/581/452
f 444/498/444 445/501/445 455/582/455 454/580/454
f 445/505/445 446/504/446 456/583/456 455/584/455
f 446/504/446 443/507/443 453/585/453 456/583/456
f 447/575/447 449/574/449 459/586/459 457/587/457
f 449/574/449 450/576/450 460/588/460 459/586/459
f 450/578/450 451/577/451 461/589/461 460/590/460
f 451/577/451 448/579/448 458/591/458 461/589/461
f 452/581/452 454/580/454 464/592/464 462/593/462
f 454/580/454 455/582/455 465/594/465 464/592/464
f 455/584/455 456/583/456 466/595/466 465/596/465
f 456/583/456 453/585/453 463/597/463 466/595/466
f 462/598/462 464/599/464 471/491/471 468/490/468
f 464/599/464 465/600/465 470/492/470 471/491/471
f 465/596/465 466/595/466 469/494/469 470/493/470
f 466/595/466 463/597/463 467/495/467 469/494/469
f 457/587/457 459/586/459 488/243/488 474/242/474
f 459/586/459 460/588/460 482/248/482 488/243/488
f 460/590/460 461/589/461 481/236/481 482/238/482
f 461/589/461 458/591/458 473/233/473 481/236/481
f 349/569/349 351/568/351 329/474/329 326/477/326
f 351/568/351 352/601/352 328/475/328 329/474/329
f 352/570/352 353/572/353 327/468/327 328/471/328
f 353/572/353 350/573/350 325/469/325 327/468/327
f 331/602/331 339/603/339 324/481/324 321/483/321
f 339/603/339 340/604/340 323/482/323 324/481/324
f 340/171/340 346/166/346 322/478/322 323/480/323
f 346/166/346 332/165/332 320/479/320 322/478/322
f 311/605/311 314/606/314 302/607/302 300/608/300
f 314/606/314 313/609/313 303/610/303 302/607/302
f 313/611/313 312/612/312 304/613/304 303/614/303
f 312/612/312 310/615/310 301/616/301 304/613/304
f 310/615/310 312/612/312 307/617/307 305/618/305
f 312/612/312 313/611/313 308/619/308 307/617/307
f 313/609/313 314/606/314 309/620/309 308/621/308
f 314/606/314 311/605/311 306/622/306 309/620/309
f 305/618/305 307/617/307 273/623/273 271/624/271
f 307/617/307 308/619/308 274/625/274 273/623/273
f 308/621/308 309/620/309 275/626/275 274/627/274
f 309/620/309 306/622/306 272/628/272 275/626/275
f 300/608/300 302/607/302 297/629/297 295/630/295
f 302/631/302 303/632/303 298/633/298 297/634/297
f 303/632/303 304/635/304 299/636/299 298/633/298
f 304/635/304 301/637/301 296/638/296 299/636/299
f 295/630/295 297/629/297 287/136/287 277/135/277
f 297/629/297 298/639/298 280/141/280 287/136/287
f 298/633/298 299/636/299 279/129/279 280/131/280
f 299/636/299 296/638/296 276/126/276 279/129/279
f 277/135/277 285/138/285 250/455/250 247/454/247
f 285/138/285 286/140/286 249/458/249 250/455/250
f 286/149/286 292/146/292 248/640/248 249/641/249
f 292/146/292 278/145/278 246/642/246 248/640/248
f 271/624/271 273/623/273 268/643/268 266/644/266
f 273/623/273 274/625/274 269/645/269 268/643/268
f 274/627/274 275/626/275 270/646/270 269/647/269
f 275/626/275 272/628/272 267/648/267 270/646/270
f 266/644/266 268/643/268 263/649/263 261/650/261
f 268/643/268 269/645/269 264/651/264 263/649/263
f 269/647/269 270/646/270 265/652/265 264/653/264
f 270/646/270 267/648/267 262/654/262 265/652/265
f 251/545/251 253/544/253 265/652/265 262/654/262
f 253/655/253 254/550/254 264/651/264 265/656/265
f 254/550/254 255/549/255 263/649/263 264/651/264
f 255/549/255 252/552/252 261/650/261 263/649/263
f 31/1/31 34/4/34 281/127/281 276/126/276
f 34/4/34 35/6/35 291/132/291 281/127/281
f 35/6/35 42/11/42 290/148/290 291/132/291
f 42/11/42 32/10/32 278/145/278 290/148/290
f 87/43/87 99/46/99 341/160/341 331/159/331
f 99/46/99 100/31/100 334/155/334 341/160/341
f 100/31/100 90/26/90 333/153/333 334/155/334
f 90/26/90 85/25/85 330/150/330 333/153/333
f 114/49/114 117/52/117 364/175/364 359/174/359
f 117/52/117 118/54/118 374/180/374 364/175/364
f 118/54/118 125/59/125 373/196/373 374/180/374
f 125/59/125 115/58/115 361/193/361 373/196/373
f 175/90/175 187/93/187 429/207/429 419/206/419
f 187/93/187 188/95/188 422/212/422 429/207/429
f 188/78/188 178/73/178 421/200/421 422/202/422
f 178/73/178 173/72/173 418/197/418 421/200/421
f 229/118/229 241/121/241 483/234/483 473/233/473
f 241/122/241 242/105/242 476/229/476 483/239/483
f 242/105/242 232/100/232 475/227/475 476/229/476
f 232/100/232 227/99/227 472/224/472 475/227/475
f 11/254/11 257/465/257 246/464/246 2/251/2
f 1/261/1 7/349/7 12/262/12
f 7/349/7 1/261/1 16/447/16
f 2/438/2 246/642/246 278/145/278 32/10/32
f 33/16/33 26/421/26 1/261/1
f 26/421/26 21/441/21 1/261/1
f 21/441/21 16/447/16 1/261/1
f 17/451/17 261/650/261 252/552/252 6/344/6
f 7/349/7 149/286/149 12/262/12
f 6/344/6 252/552/252 404/551/404 158/341/158
f 159/340/159 153/330/153 7/349/7
f 153/330/153 149/286/149 7/349/7
f 149/286/149 228/108/228 12/262/12
f 12/262/12 213/388/213 223/287/223
f 228/108/228 213/388/213 12/262/12
f 222/292/222 468/490/468 257/465/257 11/254/11
f 22/445/22 266/644/266 261/650/261 17/451/17
f 27/425/27 271/624/271 266/644/266 22/445/22
f 61/419/61 305/618/305 271/624/271 27/425/27
f 60/415/60 26/421/26 56/413/56
f 56/413/56 26/421/26 51/434/51
f 51/434/51 26/421/26 33/16/33
f 31/1/31 276/126/276 296/638/296 50/429/50
f 50/429/50 296/638/296 301/637/301 55/426/55
f 55/405/55 301/616/301 310/615/310 66/402/66
f 65/412/65 60/415/60 56/413/56
f 66/402/66 310/615/310 305/618/305 61/419/61
f 70/273/70 316/466/316 325/469/325 81/274/81
f 71/263/71 80/266/80 76/280/76
f 75/276/75 321/483/321 316/466/316 70/273/70
f 86/34/86 76/280/76 80/266/80
f 87/401/87 331/602/331 321/483/321 75/276/75
f 81/274/81 325/469/325 350/573/350 104/366/104
f 105/369/105 86/34/86 80/266/80
f 110/361/110 354/560/354 330/150/330 85/25/85
f 109/357/109 86/34/86 105/369/105
f 104/366/104 350/573/350 361/193/361 115/58/115
f 116/64/116 109/357/109 105/369/105
f 139/316/139 383/511/383 354/560/354 110/361/110
f 138/308/138 109/357/109 134/355/134
f 134/355/134 109/357/109 116/64/116
f 114/49/114 359/174/359 379/567/379 133/362/133
f 133/351/133 379/558/379 389/496/389 143/303/143
f 144/293/144 138/308/138 134/355/134
f 192/315/192 438/508/438 383/511/383 139/316/139
f 193/305/193 138/308/138 144/293/144
f 143/303/143 389/496/389 442/499/442 198/304/198
f 197/296/197 193/305/193 144/293/144
f 148/282/148 394/489/394 472/224/472 227/99/227
f 154/334/154 398/533/398 394/489/394 148/282/148
f 169/328/169 413/527/413 398/533/398 154/334/154
f 168/324/168 153/330/153 164/322/164
f 164/322/164 153/330/153 159/340/159
f 158/336/158 404/543/404 409/525/409 163/318/163
f 163/318/163 409/525/409 418/197/418 173/72/173
f 174/81/174 168/324/168 164/322/164
f 175/90/175 419/206/419 413/527/413 169/328/169
f 203/376/203 193/305/193 197/296/197
f 202/372/202 448/579/448 438/508/438 192/315/192
f 207/378/207 203/376/203 197/296/197
f 198/304/198 442/499/442 452/581/452 208/382/208
f 213/388/213 203/376/203 207/378/207
f 212/384/212 458/591/458 448/579/448 202/372/202
f 217/390/217 213/388/213 207/378/207
f 208/382/208 452/581/452 462/593/462 218/394/218
f 229/118/229 473/233/473 458/591/458 212/384/212
f 223/287/223 213/388/213 217/390/217
f 218/397/218 462/598/462 468/490/468 222/292/222
f 247/454/247 256/457/256 251/545/251
f 277/135/277 247/454/247 272/628/272
f 272/628/272 247/454/247 267/648/267
f 267/648/267 247/454/247 262/654/262
f 251/545/251 262/654/262 247/454/247
f 403/539/403 251/545/251 399/537/399
f 399/537/399 251/545/251 393/485/393
f 251/545/251 256/457/256 393/485/393
f 474/242/474 256/457/256 457/587/457
f 256/457/256 467/495/467 457/587/457
f 393/485/393 256/457/256 474/242/474
f 306/622/306 300/608/300 272/628/272
f 300/608/300 295/630/295 272/628/272
f 295/630/295 277/135/277 272/628/272
f 311/605/311 300/608/300 306/622/306
f 315/476/315 320/479/320 326/477/326
f 332/165/332 326/477/326 320/479/320
f 349/569/349 326/477/326 332/165/332
f 355/564/355 349/569/349 332/165/332
f 360/183/360 349/569/349 355/564/355
f 384/519/384 378/554/378 355/564/355
f 378/554/378 360/183/360 355/564/355
f 388/506/388 378/554/378 384/519/384
f 437/518/437 388/506/388 384/519/384
f 443/507/443 388/506/388 437/518/437
f 414/531/414 408/521/408 399/537/399
f 408/521/408 403/539/403 399/537/399
f 420/215/420 408/521/408 414/531/414
f 447/575/447 443/507/443 437/518/437
f 453/585/453 443/507/443 447/575/447
f 457/587/457 453/585/453 447/575/447
f 463/597/463 453/585/453 457/587/457
f 467/495/467 463/597/463 457/587/457
